G04 #@! TF.GenerationSoftware,KiCad,Pcbnew,9.0.3*
G04 #@! TF.CreationDate,2025-08-22T23:16:02-04:00*
G04 #@! TF.ProjectId,LINBoard-HW,4c494e42-6f61-4726-942d-48572e6b6963,rev?*
G04 #@! TF.SameCoordinates,Original*
G04 #@! TF.FileFunction,Soldermask,Top*
G04 #@! TF.FilePolarity,Negative*
%FSLAX46Y46*%
G04 Gerber Fmt 4.6, Leading zero omitted, Abs format (unit mm)*
G04 Created by KiCad (PCBNEW 9.0.3) date 2025-08-22 23:16:02*
%MOMM*%
%LPD*%
G01*
G04 APERTURE LIST*
G04 Aperture macros list*
%AMRoundRect*
0 Rectangle with rounded corners*
0 $1 Rounding radius*
0 $2 $3 $4 $5 $6 $7 $8 $9 X,Y pos of 4 corners*
0 Add a 4 corners polygon primitive as box body*
4,1,4,$2,$3,$4,$5,$6,$7,$8,$9,$2,$3,0*
0 Add four circle primitives for the rounded corners*
1,1,$1+$1,$2,$3*
1,1,$1+$1,$4,$5*
1,1,$1+$1,$6,$7*
1,1,$1+$1,$8,$9*
0 Add four rect primitives between the rounded corners*
20,1,$1+$1,$2,$3,$4,$5,0*
20,1,$1+$1,$4,$5,$6,$7,0*
20,1,$1+$1,$6,$7,$8,$9,0*
20,1,$1+$1,$8,$9,$2,$3,0*%
%AMFreePoly0*
4,1,23,0.500000,-0.750000,0.000000,-0.750000,0.000000,-0.745722,-0.065263,-0.745722,-0.191342,-0.711940,-0.304381,-0.646677,-0.396677,-0.554381,-0.461940,-0.441342,-0.495722,-0.315263,-0.495722,-0.250000,-0.500000,-0.250000,-0.500000,0.250000,-0.495722,0.250000,-0.495722,0.315263,-0.461940,0.441342,-0.396677,0.554381,-0.304381,0.646677,-0.191342,0.711940,-0.065263,0.745722,0.000000,0.745722,
0.000000,0.750000,0.500000,0.750000,0.500000,-0.750000,0.500000,-0.750000,$1*%
%AMFreePoly1*
4,1,23,0.000000,0.745722,0.065263,0.745722,0.191342,0.711940,0.304381,0.646677,0.396677,0.554381,0.461940,0.441342,0.495722,0.315263,0.495722,0.250000,0.500000,0.250000,0.500000,-0.250000,0.495722,-0.250000,0.495722,-0.315263,0.461940,-0.441342,0.396677,-0.554381,0.304381,-0.646677,0.191342,-0.711940,0.065263,-0.745722,0.000000,-0.745722,0.000000,-0.750000,-0.500000,-0.750000,
-0.500000,0.750000,0.000000,0.750000,0.000000,0.745722,0.000000,0.745722,$1*%
G04 Aperture macros list end*
%ADD10RoundRect,0.250000X-0.450000X0.262500X-0.450000X-0.262500X0.450000X-0.262500X0.450000X0.262500X0*%
%ADD11RoundRect,0.250000X-0.250000X-0.475000X0.250000X-0.475000X0.250000X0.475000X-0.250000X0.475000X0*%
%ADD12R,1.300000X1.000000*%
%ADD13C,2.000000*%
%ADD14RoundRect,0.250000X-0.262500X-0.450000X0.262500X-0.450000X0.262500X0.450000X-0.262500X0.450000X0*%
%ADD15RoundRect,0.150000X0.150000X-0.825000X0.150000X0.825000X-0.150000X0.825000X-0.150000X-0.825000X0*%
%ADD16RoundRect,0.250000X-0.475000X0.250000X-0.475000X-0.250000X0.475000X-0.250000X0.475000X0.250000X0*%
%ADD17RoundRect,0.243750X0.456250X-0.243750X0.456250X0.243750X-0.456250X0.243750X-0.456250X-0.243750X0*%
%ADD18RoundRect,0.250000X0.262500X0.450000X-0.262500X0.450000X-0.262500X-0.450000X0.262500X-0.450000X0*%
%ADD19RoundRect,0.375000X0.375000X-0.825000X0.375000X0.825000X-0.375000X0.825000X-0.375000X-0.825000X0*%
%ADD20RoundRect,0.150000X0.512500X0.150000X-0.512500X0.150000X-0.512500X-0.150000X0.512500X-0.150000X0*%
%ADD21RoundRect,0.225000X0.225000X0.375000X-0.225000X0.375000X-0.225000X-0.375000X0.225000X-0.375000X0*%
%ADD22RoundRect,0.250000X0.475000X-0.250000X0.475000X0.250000X-0.475000X0.250000X-0.475000X-0.250000X0*%
%ADD23R,2.400000X2.400000*%
%ADD24C,0.700000*%
%ADD25O,0.900000X2.400000*%
%ADD26O,0.900000X1.700000*%
%ADD27RoundRect,0.150000X0.825000X0.150000X-0.825000X0.150000X-0.825000X-0.150000X0.825000X-0.150000X0*%
%ADD28R,1.000000X0.750000*%
%ADD29RoundRect,0.225000X0.375000X-0.225000X0.375000X0.225000X-0.375000X0.225000X-0.375000X-0.225000X0*%
%ADD30RoundRect,0.112500X-0.112500X0.187500X-0.112500X-0.187500X0.112500X-0.187500X0.112500X0.187500X0*%
%ADD31RoundRect,0.250000X0.250000X0.475000X-0.250000X0.475000X-0.250000X-0.475000X0.250000X-0.475000X0*%
%ADD32RoundRect,0.070000X-0.650000X-0.300000X0.650000X-0.300000X0.650000X0.300000X-0.650000X0.300000X0*%
%ADD33FreePoly0,90.000000*%
%ADD34FreePoly1,90.000000*%
%ADD35R,1.500000X2.200000*%
%ADD36R,3.800000X2.200000*%
%ADD37RoundRect,0.075000X-0.075000X0.662500X-0.075000X-0.662500X0.075000X-0.662500X0.075000X0.662500X0*%
%ADD38RoundRect,0.075000X-0.662500X0.075000X-0.662500X-0.075000X0.662500X-0.075000X0.662500X0.075000X0*%
%ADD39C,0.990600*%
%ADD40C,0.787400*%
%ADD41R,1.000000X1.300000*%
%ADD42C,3.430000*%
%ADD43C,2.500000*%
G04 APERTURE END LIST*
G36*
X-9950000Y-29750000D02*
G01*
X-8450000Y-29750000D01*
X-8450000Y-29450000D01*
X-9950000Y-29450000D01*
X-9950000Y-29750000D01*
G37*
G36*
X-18350000Y-39550000D02*
G01*
X-16850000Y-39550000D01*
X-16850000Y-39250000D01*
X-18350000Y-39250000D01*
X-18350000Y-39550000D01*
G37*
G36*
X-12750000Y-29750000D02*
G01*
X-11250000Y-29750000D01*
X-11250000Y-29450000D01*
X-12750000Y-29450000D01*
X-12750000Y-29750000D01*
G37*
D10*
X-15500724Y-27757749D03*
X-15500724Y-29582749D03*
X-10200000Y-42087500D03*
X-10200000Y-43912500D03*
D11*
X6850000Y-27800000D03*
X8750000Y-27800000D03*
D12*
X-16950000Y-20200000D03*
X-13050000Y-21950000D03*
X-16950000Y-23700000D03*
D10*
X-13600000Y-42087500D03*
X-13600000Y-43912500D03*
D11*
X4250000Y-30000000D03*
X6150000Y-30000000D03*
D13*
X22600000Y-32050000D03*
D14*
X21087500Y-8400000D03*
X22912500Y-8400000D03*
D15*
X8695000Y-25275000D03*
X9965000Y-25275000D03*
X11235000Y-25275000D03*
X12505000Y-25275000D03*
X12505000Y-20325000D03*
X11235000Y-20325000D03*
X9965000Y-20325000D03*
X8695000Y-20325000D03*
D16*
X14600000Y-23050000D03*
X14600000Y-24950000D03*
D17*
X-5600000Y-47537500D03*
X-5600000Y-45662500D03*
X-9600000Y-47537500D03*
X-9600000Y-45662500D03*
D16*
X14400000Y-18250000D03*
X14400000Y-20150000D03*
D18*
X15712500Y-27800000D03*
X13887500Y-27800000D03*
D19*
X20550000Y-2800000D03*
X24250000Y-2800000D03*
D13*
X-11400000Y-33800000D03*
D15*
X-11600000Y-25550000D03*
X-10330000Y-25550000D03*
X-9060000Y-25550000D03*
X-7790000Y-25550000D03*
X-7790000Y-20600000D03*
X-9060000Y-20600000D03*
X-10330000Y-20600000D03*
X-11600000Y-20600000D03*
D13*
X-14600000Y-36000000D03*
D14*
X7287500Y-47200000D03*
X9112500Y-47200000D03*
D20*
X18337500Y-3750000D03*
X18337500Y-2800000D03*
X18337500Y-1850000D03*
X16062500Y-1850000D03*
X16062500Y-2800000D03*
X16062500Y-3750000D03*
D21*
X10600000Y-44800000D03*
X7300000Y-44800000D03*
D22*
X-5200000Y-26350000D03*
X-5200000Y-24450000D03*
D16*
X16600000Y-18250000D03*
X16600000Y-20150000D03*
D13*
X22600000Y-35600000D03*
D23*
X2570000Y-23400000D03*
X-1530000Y-23400000D03*
D11*
X18250000Y-6200000D03*
X20150000Y-6200000D03*
X22200000Y5600000D03*
X24100000Y5600000D03*
D16*
X-17900724Y-27832749D03*
X-17900724Y-29732749D03*
D24*
X-1950000Y-42740000D03*
X-1100000Y-42740000D03*
X-250000Y-42740000D03*
X600000Y-42740000D03*
X1450000Y-42740000D03*
X2300000Y-42740000D03*
X3150000Y-42740000D03*
X4000000Y-42740000D03*
X4000000Y-44090000D03*
X3150000Y-44090000D03*
X2300000Y-44090000D03*
X1450000Y-44090000D03*
X600000Y-44090000D03*
X-250000Y-44090000D03*
X-1100000Y-44090000D03*
X-1950000Y-44090000D03*
D25*
X-3300000Y-43720000D03*
D26*
X-3300000Y-47100000D03*
D25*
X5350000Y-43720000D03*
D26*
X5350000Y-47100000D03*
D18*
X9212500Y-42500000D03*
X7387500Y-42500000D03*
D10*
X-17200000Y-15887500D03*
X-17200000Y-17712500D03*
D13*
X-14600000Y-32400000D03*
D10*
X6800000Y-23687500D03*
X6800000Y-25512500D03*
D21*
X19850000Y5600000D03*
X16550000Y5600000D03*
D13*
X-14600000Y-39600000D03*
D16*
X-3000000Y-17250000D03*
X-3000000Y-19150000D03*
D27*
X19400000Y-33610000D03*
X19400000Y-32340000D03*
X19400000Y-31070000D03*
X19400000Y-29800000D03*
X14450000Y-29800000D03*
X14450000Y-31070000D03*
X14450000Y-32340000D03*
X14450000Y-33610000D03*
D11*
X22200000Y3200000D03*
X24100000Y3200000D03*
D28*
X20800000Y-46250000D03*
X14800000Y-46250000D03*
X20800000Y-42550000D03*
X14800000Y-42550000D03*
D29*
X-17200000Y-14050000D03*
X-17200000Y-10750000D03*
D17*
X-13600000Y-47537500D03*
X-13600000Y-45662500D03*
X-17600000Y-47537500D03*
X-17600000Y-45662500D03*
D14*
X16087500Y-8400000D03*
X17912500Y-8400000D03*
D30*
X-5200000Y-17150000D03*
X-5200000Y-19250000D03*
D11*
X4450000Y-39800000D03*
X6350000Y-39800000D03*
D31*
X-4450000Y-39800000D03*
X-6350000Y-39800000D03*
D32*
X4300000Y-17400000D03*
X4300000Y-19300000D03*
X6400000Y-18350000D03*
D11*
X22200000Y800000D03*
X24100000Y800000D03*
D33*
X-9200000Y-30250000D03*
D34*
X-9200000Y-28950000D03*
D16*
X21900000Y-27300000D03*
X21900000Y-29200000D03*
X16700000Y-23050000D03*
X16700000Y-24950000D03*
D14*
X17487500Y-27800000D03*
X19312500Y-27800000D03*
D31*
X-4850000Y-28400000D03*
X-6750000Y-28400000D03*
D16*
X12800000Y-44050000D03*
X12800000Y-45950000D03*
D10*
X16200000Y1825000D03*
X16200000Y0D03*
D33*
X-17600000Y-40050000D03*
D34*
X-17600000Y-38750000D03*
D11*
X-2100000Y-26400000D03*
X-200000Y-26400000D03*
D22*
X11800000Y-33950000D03*
X11800000Y-32050000D03*
D10*
X-5600000Y-41887500D03*
X-5600000Y-43712500D03*
X-17600000Y-42087500D03*
X-17600000Y-43912500D03*
D33*
X-12000000Y-30250000D03*
D34*
X-12000000Y-28950000D03*
D35*
X23600000Y-18600000D03*
X21300000Y-18600000D03*
X19000000Y-18600000D03*
D36*
X21300000Y-24900000D03*
D37*
X2750000Y-30675000D03*
X2250000Y-30675000D03*
X1750000Y-30675000D03*
X1250000Y-30675000D03*
X750000Y-30675000D03*
X250000Y-30675000D03*
X-250000Y-30675000D03*
X-750000Y-30675000D03*
X-1250000Y-30675000D03*
X-1750000Y-30675000D03*
X-2250000Y-30675000D03*
X-2750000Y-30675000D03*
D38*
X-4162500Y-32087500D03*
X-4162500Y-32587500D03*
X-4162500Y-33087500D03*
X-4162500Y-33587500D03*
X-4162500Y-34087500D03*
X-4162500Y-34587500D03*
X-4162500Y-35087500D03*
X-4162500Y-35587500D03*
X-4162500Y-36087500D03*
X-4162500Y-36587500D03*
X-4162500Y-37087500D03*
X-4162500Y-37587500D03*
D37*
X-2750000Y-39000000D03*
X-2250000Y-39000000D03*
X-1750000Y-39000000D03*
X-1250000Y-39000000D03*
X-750000Y-39000000D03*
X-250000Y-39000000D03*
X250000Y-39000000D03*
X750000Y-39000000D03*
X1250000Y-39000000D03*
X1750000Y-39000000D03*
X2250000Y-39000000D03*
X2750000Y-39000000D03*
D38*
X4162500Y-37587500D03*
X4162500Y-37087500D03*
X4162500Y-36587500D03*
X4162500Y-36087500D03*
X4162500Y-35587500D03*
X4162500Y-35087500D03*
X4162500Y-34587500D03*
X4162500Y-34087500D03*
X4162500Y-33587500D03*
X4162500Y-33087500D03*
X4162500Y-32587500D03*
X4162500Y-32087500D03*
D11*
X1400000Y-26400000D03*
X3300000Y-26400000D03*
D14*
X7487500Y-34000000D03*
X9312500Y-34000000D03*
D39*
X11565000Y-41940000D03*
X10549000Y-36860000D03*
X12581000Y-36860000D03*
D40*
X12200000Y-40670000D03*
X10930000Y-40670000D03*
X12200000Y-39400000D03*
X10930000Y-39400000D03*
X12200000Y-38130000D03*
X10930000Y-38130000D03*
D13*
X-11400000Y-37400000D03*
D10*
X-8000000Y-42087500D03*
X-8000000Y-43912500D03*
D41*
X14975000Y-40550000D03*
X16725000Y-36650000D03*
X18475000Y-40550000D03*
D42*
X-11110000Y-12350000D03*
X0Y0D03*
X11110000Y-12350000D03*
D43*
X4200000Y-12350000D03*
X0Y-12350000D03*
X-4200000Y-12350000D03*
X-4200000Y-6000000D03*
X0Y-6000000D03*
X4200000Y-6000000D03*
M02*
