G04 #@! TF.GenerationSoftware,KiCad,Pcbnew,9.0.3*
G04 #@! TF.CreationDate,2025-08-22T23:16:01-04:00*
G04 #@! TF.ProjectId,LINBoard-HW,4c494e42-6f61-4726-942d-48572e6b6963,rev?*
G04 #@! TF.SameCoordinates,Original*
G04 #@! TF.FileFunction,Copper,L2,Inr*
G04 #@! TF.FilePolarity,Positive*
%FSLAX46Y46*%
G04 Gerber Fmt 4.6, Leading zero omitted, Abs format (unit mm)*
G04 Created by KiCad (PCBNEW 9.0.3) date 2025-08-22 23:16:01*
%MOMM*%
%LPD*%
G01*
G04 APERTURE LIST*
G04 #@! TA.AperFunction,ComponentPad*
%ADD10C,2.000000*%
G04 #@! TD*
G04 #@! TA.AperFunction,ComponentPad*
%ADD11C,0.700000*%
G04 #@! TD*
G04 #@! TA.AperFunction,ComponentPad*
%ADD12O,0.900000X2.400000*%
G04 #@! TD*
G04 #@! TA.AperFunction,ComponentPad*
%ADD13O,0.900000X1.700000*%
G04 #@! TD*
G04 #@! TA.AperFunction,ComponentPad*
%ADD14C,2.500000*%
G04 #@! TD*
G04 #@! TA.AperFunction,ViaPad*
%ADD15C,0.600000*%
G04 #@! TD*
G04 APERTURE END LIST*
D10*
X22600000Y-32050000D03*
X-11400000Y-33800000D03*
X-14600000Y-36000000D03*
X22600000Y-35600000D03*
D11*
X-1950000Y-42740000D03*
X-1100000Y-42740000D03*
X-250000Y-42740000D03*
X600000Y-42740000D03*
X1450000Y-42740000D03*
X2300000Y-42740000D03*
X3150000Y-42740000D03*
X4000000Y-42740000D03*
X4000000Y-44090000D03*
X3150000Y-44090000D03*
X2300000Y-44090000D03*
X1450000Y-44090000D03*
X600000Y-44090000D03*
X-250000Y-44090000D03*
X-1100000Y-44090000D03*
X-1950000Y-44090000D03*
D12*
X-3300000Y-43720000D03*
D13*
X-3300000Y-47100000D03*
D12*
X5350000Y-43720000D03*
D13*
X5350000Y-47100000D03*
D10*
X-14600000Y-32400000D03*
X-14600000Y-39600000D03*
X-11400000Y-37400000D03*
D14*
X4200000Y-12350000D03*
X0Y-12350000D03*
X-4200000Y-12350000D03*
X-4200000Y-6000000D03*
X0Y-6000000D03*
X4200000Y-6000000D03*
D15*
X-7500000Y-45100000D03*
X2000000Y-21000000D03*
X23200000Y-20300000D03*
X23600000Y-20800000D03*
X4600000Y-21000000D03*
X5000000Y-18400000D03*
X25000000Y2000000D03*
X1000000Y-8000000D03*
X1000000Y-4000000D03*
X-800000Y-32000000D03*
X-3400000Y-23000000D03*
X-6600000Y-20400000D03*
X14600000Y-26200000D03*
X-400000Y-27800000D03*
X-500000Y-8000000D03*
X-1000000Y-21000000D03*
X17800000Y-4800000D03*
X-6700000Y-26900000D03*
X1400000Y-27800000D03*
X16800000Y-4800000D03*
X24000000Y-20300000D03*
X-3400000Y-21000000D03*
X-6200000Y-38400000D03*
X2200000Y-37600000D03*
X2600000Y-32600000D03*
X16200000Y-40800000D03*
X4600000Y-23000000D03*
X7400000Y-30000000D03*
X15600000Y-21600000D03*
X24000000Y-21300000D03*
X-5000000Y-4000000D03*
X-3500000Y-8000000D03*
X-2600000Y-37000000D03*
X4600000Y-27800000D03*
X4600000Y-25500000D03*
X-3400000Y-27800000D03*
X11000000Y-27000000D03*
X-3400000Y-25500000D03*
X23600000Y-21800000D03*
X-11500000Y-45100000D03*
X8000000Y-18400000D03*
X-2000000Y-45200000D03*
X14600000Y1800000D03*
X-2000000Y-46000000D03*
X23200000Y-21300000D03*
X25000000Y4400000D03*
X16500000Y-32340000D03*
X-3500000Y-4000000D03*
X7800000Y-40200000D03*
X-5000000Y-8000000D03*
X-2000000Y-46800000D03*
X-500000Y-4000000D03*
X-50058Y-32009515D03*
X13400000Y-39400000D03*
X20900000Y-21300000D03*
X21300000Y-21800000D03*
X3200000Y-40400000D03*
X-6600000Y-25700000D03*
X21700000Y-20300000D03*
X13400000Y-34600000D03*
X17125000Y-40800000D03*
X21700000Y-21300000D03*
X21300000Y-20800000D03*
X-17600000Y-37200000D03*
X20900000Y-20300000D03*
X10600000Y-22800000D03*
X5800000Y-28825000D03*
X16600000Y-26200000D03*
X-14000000Y-27200000D03*
X12775000Y-42098959D03*
X-3200000Y-40600000D03*
X5800000Y-35200000D03*
X13900000Y-29000000D03*
X400000Y-41506250D03*
X1600000Y-41506250D03*
X7000000Y-37284741D03*
X16100000Y-31000000D03*
X-5800000Y-36200000D03*
X-5800000Y-37000000D03*
X4550000Y-45600000D03*
X5750000Y-45600000D03*
X5150000Y-45600000D03*
X-5800000Y-30000000D03*
X-10400000Y-27200000D03*
G04 #@! TA.AperFunction,Conductor*
G36*
X25685148Y6685148D02*
G01*
X25699500Y6650500D01*
X25699500Y-48650500D01*
X25685148Y-48685148D01*
X25650500Y-48699500D01*
X-19650500Y-48699500D01*
X-19685148Y-48685148D01*
X-19699500Y-48650500D01*
X-19699500Y-46620940D01*
X-3900500Y-46620940D01*
X-3900500Y-47579060D01*
X-3875946Y-47670693D01*
X-3859577Y-47731784D01*
X-3780520Y-47868716D01*
X-3668716Y-47980520D01*
X-3531784Y-48059577D01*
X-3379060Y-48100499D01*
X-3379060Y-48100500D01*
X-3379057Y-48100500D01*
X-3220940Y-48100500D01*
X-3220939Y-48100499D01*
X-3188665Y-48091851D01*
X-3068216Y-48059577D01*
X-3068215Y-48059576D01*
X-3068213Y-48059576D01*
X-2931290Y-47980524D01*
X-2931287Y-47980521D01*
X-2931284Y-47980520D01*
X-2819480Y-47868716D01*
X-2819478Y-47868713D01*
X-2819475Y-47868709D01*
X-2740423Y-47731786D01*
X-2740422Y-47731782D01*
X-2699500Y-47579060D01*
X-2699500Y-46620939D01*
X-2740422Y-46468217D01*
X-2740423Y-46468213D01*
X-2819475Y-46331290D01*
X-2819482Y-46331281D01*
X-2931281Y-46219482D01*
X-2931290Y-46219475D01*
X-3068213Y-46140423D01*
X-3068217Y-46140422D01*
X-3220940Y-46099500D01*
X-3220943Y-46099500D01*
X-3379057Y-46099500D01*
X-3379060Y-46099500D01*
X-3531782Y-46140422D01*
X-3531786Y-46140423D01*
X-3668709Y-46219475D01*
X-3668713Y-46219478D01*
X-3668716Y-46219480D01*
X-3780520Y-46331284D01*
X-3780521Y-46331287D01*
X-3780524Y-46331290D01*
X-3859576Y-46468213D01*
X-3859577Y-46468217D01*
X-3900499Y-46620939D01*
X-3900500Y-46620940D01*
X-19699500Y-46620940D01*
X-19699500Y-45040688D01*
X-11950500Y-45040688D01*
X-11950500Y-45159311D01*
X-11944902Y-45180201D01*
X-11919799Y-45273886D01*
X-11860489Y-45376613D01*
X-11776613Y-45460489D01*
X-11673886Y-45519799D01*
X-11616597Y-45535149D01*
X-11559311Y-45550500D01*
X-11559309Y-45550500D01*
X-11440688Y-45550500D01*
X-11354758Y-45527474D01*
X-11326114Y-45519799D01*
X-11223387Y-45460489D01*
X-11139511Y-45376613D01*
X-11137935Y-45373884D01*
X-11080201Y-45273887D01*
X-11080200Y-45273884D01*
X-11049500Y-45159311D01*
X-11049500Y-45040688D01*
X-11049499Y-45040688D01*
X-7950500Y-45040688D01*
X-7950500Y-45159311D01*
X-7944902Y-45180201D01*
X-7919799Y-45273886D01*
X-7860489Y-45376613D01*
X-7776613Y-45460489D01*
X-7673886Y-45519799D01*
X-7616597Y-45535149D01*
X-7559311Y-45550500D01*
X-7559309Y-45550500D01*
X-7440688Y-45550500D01*
X-7354758Y-45527474D01*
X-7326114Y-45519799D01*
X-7223387Y-45460489D01*
X-7139511Y-45376613D01*
X-7137935Y-45373884D01*
X-7080201Y-45273887D01*
X-7080200Y-45273884D01*
X-7049500Y-45159311D01*
X-7049500Y-45140688D01*
X-2450500Y-45140688D01*
X-2450500Y-45259311D01*
X-2446595Y-45273884D01*
X-2419799Y-45373886D01*
X-2360489Y-45476613D01*
X-2276613Y-45560489D01*
X-2276600Y-45560496D01*
X-2275787Y-45561121D01*
X-2275521Y-45561580D01*
X-2274342Y-45562760D01*
X-2274657Y-45563075D01*
X-2257031Y-45593597D01*
X-2266732Y-45629824D01*
X-2275787Y-45638879D01*
X-2276605Y-45639506D01*
X-2276613Y-45639511D01*
X-2276619Y-45639517D01*
X-2360488Y-45723386D01*
X-2419798Y-45826112D01*
X-2419799Y-45826115D01*
X-2450500Y-45940688D01*
X-2450500Y-46059311D01*
X-2439731Y-46099500D01*
X-2419799Y-46173886D01*
X-2360489Y-46276613D01*
X-2276613Y-46360489D01*
X-2276600Y-46360496D01*
X-2275787Y-46361121D01*
X-2275521Y-46361580D01*
X-2274342Y-46362760D01*
X-2274657Y-46363075D01*
X-2257031Y-46393597D01*
X-2266732Y-46429824D01*
X-2275787Y-46438879D01*
X-2276605Y-46439506D01*
X-2276613Y-46439511D01*
X-2276619Y-46439517D01*
X-2360488Y-46523386D01*
X-2419798Y-46626112D01*
X-2419799Y-46626115D01*
X-2450500Y-46740688D01*
X-2450500Y-46859311D01*
X-2435149Y-46916597D01*
X-2419799Y-46973886D01*
X-2360489Y-47076613D01*
X-2276613Y-47160489D01*
X-2173886Y-47219799D01*
X-2116597Y-47235149D01*
X-2059311Y-47250500D01*
X-2059309Y-47250500D01*
X-1940688Y-47250500D01*
X-1854758Y-47227474D01*
X-1826114Y-47219799D01*
X-1723387Y-47160489D01*
X-1639511Y-47076613D01*
X-1580201Y-46973887D01*
X-1580200Y-46973884D01*
X-1549500Y-46859311D01*
X-1549500Y-46740688D01*
X-1549499Y-46740688D01*
X-1580200Y-46626115D01*
X-1580201Y-46626112D01*
X-1639511Y-46523386D01*
X-1723387Y-46439510D01*
X-1724222Y-46438870D01*
X-1724486Y-46438411D01*
X-1725658Y-46437240D01*
X-1725344Y-46436926D01*
X-1742969Y-46406389D01*
X-1733257Y-46370165D01*
X-1724222Y-46361130D01*
X-1723387Y-46360489D01*
X-1639511Y-46276613D01*
X-1580201Y-46173887D01*
X-1580200Y-46173884D01*
X-1549500Y-46059311D01*
X-1549500Y-45940688D01*
X-1549499Y-45940688D01*
X-1580200Y-45826115D01*
X-1580201Y-45826112D01*
X-1639511Y-45723386D01*
X-1723387Y-45639510D01*
X-1724222Y-45638870D01*
X-1724486Y-45638411D01*
X-1725658Y-45637240D01*
X-1725344Y-45636926D01*
X-1725990Y-45635805D01*
X-1729251Y-45634431D01*
X-1735147Y-45619941D01*
X-1742969Y-45606389D01*
X-1742052Y-45602970D01*
X-1743386Y-45599694D01*
X-1738582Y-45590027D01*
X-1733257Y-45570165D01*
X-1728818Y-45565136D01*
X-1725133Y-45561497D01*
X-1723387Y-45560489D01*
X-1703586Y-45540688D01*
X4099500Y-45540688D01*
X4099500Y-45659311D01*
X4130200Y-45773884D01*
X4130201Y-45773887D01*
X4189511Y-45876613D01*
X4273387Y-45960489D01*
X4348585Y-46003905D01*
X4369277Y-46015852D01*
X4376114Y-46019799D01*
X4404758Y-46027474D01*
X4490688Y-46050500D01*
X4490691Y-46050500D01*
X4609311Y-46050500D01*
X4666597Y-46035149D01*
X4723886Y-46019799D01*
X4825501Y-45961130D01*
X4862682Y-45956235D01*
X4874496Y-45961129D01*
X4955190Y-46007718D01*
X4969277Y-46015852D01*
X4976114Y-46019799D01*
X5004758Y-46027474D01*
X5090688Y-46050500D01*
X5091096Y-46050500D01*
X5091285Y-46050578D01*
X5093872Y-46050919D01*
X5093780Y-46051612D01*
X5125744Y-46064852D01*
X5140096Y-46099500D01*
X5125744Y-46134148D01*
X5115596Y-46141935D01*
X4981290Y-46219475D01*
X4981281Y-46219482D01*
X4869482Y-46331281D01*
X4869475Y-46331290D01*
X4790423Y-46468213D01*
X4790422Y-46468217D01*
X4749500Y-46620939D01*
X4749500Y-47579060D01*
X4790422Y-47731782D01*
X4790423Y-47731786D01*
X4869475Y-47868709D01*
X4869478Y-47868713D01*
X4869480Y-47868716D01*
X4981284Y-47980520D01*
X4981287Y-47980521D01*
X4981290Y-47980524D01*
X5118213Y-48059576D01*
X5118215Y-48059576D01*
X5118216Y-48059577D01*
X5238665Y-48091851D01*
X5270939Y-48100499D01*
X5270940Y-48100500D01*
X5270943Y-48100500D01*
X5429060Y-48100500D01*
X5429060Y-48100499D01*
X5581784Y-48059577D01*
X5718716Y-47980520D01*
X5830520Y-47868716D01*
X5909577Y-47731784D01*
X5950499Y-47579060D01*
X5950500Y-47579060D01*
X5950500Y-46620940D01*
X5950499Y-46620939D01*
X5909577Y-46468217D01*
X5909576Y-46468213D01*
X5830524Y-46331290D01*
X5830521Y-46331287D01*
X5830520Y-46331284D01*
X5718716Y-46219480D01*
X5718713Y-46219478D01*
X5718709Y-46219475D01*
X5581786Y-46140423D01*
X5581782Y-46140422D01*
X5429060Y-46099500D01*
X5429057Y-46099500D01*
X5368710Y-46099500D01*
X5334062Y-46085148D01*
X5319710Y-46050500D01*
X5334062Y-46015852D01*
X5344210Y-46008065D01*
X5362521Y-45997492D01*
X5425501Y-45961130D01*
X5462682Y-45956235D01*
X5474496Y-45961129D01*
X5555190Y-46007718D01*
X5569277Y-46015852D01*
X5576114Y-46019799D01*
X5604758Y-46027474D01*
X5690688Y-46050500D01*
X5690691Y-46050500D01*
X5809311Y-46050500D01*
X5866597Y-46035149D01*
X5923886Y-46019799D01*
X6026613Y-45960489D01*
X6110489Y-45876613D01*
X6169799Y-45773886D01*
X6185149Y-45716597D01*
X6200500Y-45659311D01*
X6200500Y-45540688D01*
X6169799Y-45426115D01*
X6169798Y-45426112D01*
X6110488Y-45323386D01*
X6026613Y-45239511D01*
X5923887Y-45180201D01*
X5923884Y-45180200D01*
X5809312Y-45149500D01*
X5809309Y-45149500D01*
X5690691Y-45149500D01*
X5690688Y-45149500D01*
X5576115Y-45180200D01*
X5576111Y-45180201D01*
X5474500Y-45238868D01*
X5437318Y-45243763D01*
X5425500Y-45238868D01*
X5323888Y-45180201D01*
X5323884Y-45180200D01*
X5275420Y-45167214D01*
X5275412Y-45167212D01*
X5209309Y-45149500D01*
X5090691Y-45149500D01*
X5090688Y-45149500D01*
X4976115Y-45180200D01*
X4976111Y-45180201D01*
X4874500Y-45238868D01*
X4837318Y-45243763D01*
X4825500Y-45238868D01*
X4723888Y-45180201D01*
X4723884Y-45180200D01*
X4609312Y-45149500D01*
X4609309Y-45149500D01*
X4490691Y-45149500D01*
X4490688Y-45149500D01*
X4376115Y-45180200D01*
X4376112Y-45180201D01*
X4273386Y-45239511D01*
X4273386Y-45239512D01*
X4189512Y-45323386D01*
X4189511Y-45323386D01*
X4130201Y-45426112D01*
X4130200Y-45426115D01*
X4099500Y-45540688D01*
X-1703586Y-45540688D01*
X-1639511Y-45476613D01*
X-1630201Y-45460488D01*
X-1580201Y-45373887D01*
X-1580200Y-45373884D01*
X-1549500Y-45259311D01*
X-1549500Y-45140688D01*
X-1549499Y-45140688D01*
X-1580200Y-45026115D01*
X-1580201Y-45026112D01*
X-1639511Y-44923386D01*
X-1723386Y-44839512D01*
X-1723386Y-44839511D01*
X-1826112Y-44780201D01*
X-1826115Y-44780200D01*
X-1940688Y-44749500D01*
X-1940691Y-44749500D01*
X-2059309Y-44749500D01*
X-2059312Y-44749500D01*
X-2173884Y-44780200D01*
X-2173887Y-44780201D01*
X-2276613Y-44839511D01*
X-2360489Y-44923387D01*
X-2419799Y-45026114D01*
X-2427474Y-45054758D01*
X-2450500Y-45140688D01*
X-7049500Y-45140688D01*
X-7049500Y-45040688D01*
X-7049499Y-45040688D01*
X-7080200Y-44926115D01*
X-7080201Y-44926112D01*
X-7139511Y-44823386D01*
X-7223386Y-44739512D01*
X-7223386Y-44739511D01*
X-7326112Y-44680201D01*
X-7326115Y-44680200D01*
X-7440688Y-44649500D01*
X-7440691Y-44649500D01*
X-7559309Y-44649500D01*
X-7559312Y-44649500D01*
X-7673884Y-44680200D01*
X-7673887Y-44680201D01*
X-7776613Y-44739511D01*
X-7860488Y-44823386D01*
X-7919798Y-44926112D01*
X-7919799Y-44926115D01*
X-7950500Y-45040688D01*
X-11049499Y-45040688D01*
X-11080200Y-44926115D01*
X-11080201Y-44926112D01*
X-11139511Y-44823386D01*
X-11223386Y-44739512D01*
X-11223386Y-44739511D01*
X-11326112Y-44680201D01*
X-11326115Y-44680200D01*
X-11440688Y-44649500D01*
X-11440691Y-44649500D01*
X-11559309Y-44649500D01*
X-11559312Y-44649500D01*
X-11673884Y-44680200D01*
X-11673887Y-44680201D01*
X-11776613Y-44739511D01*
X-11860488Y-44823386D01*
X-11919798Y-44926112D01*
X-11919799Y-44926115D01*
X-11950500Y-45040688D01*
X-19699500Y-45040688D01*
X-19699500Y-42890940D01*
X-3900500Y-42890940D01*
X-3900500Y-44549060D01*
X-3875946Y-44640693D01*
X-3859577Y-44701784D01*
X-3780520Y-44838716D01*
X-3668716Y-44950520D01*
X-3668709Y-44950524D01*
X-3537781Y-45026115D01*
X-3531784Y-45029577D01*
X-3379060Y-45070499D01*
X-3379060Y-45070500D01*
X-3379057Y-45070500D01*
X-3220940Y-45070500D01*
X-3220939Y-45070499D01*
X-3154830Y-45052785D01*
X-3068216Y-45029577D01*
X-3068215Y-45029576D01*
X-3068213Y-45029576D01*
X-2931290Y-44950524D01*
X-2931287Y-44950521D01*
X-2931284Y-44950520D01*
X-2819480Y-44838716D01*
X-2819478Y-44838713D01*
X-2819475Y-44838709D01*
X-2740423Y-44701786D01*
X-2740422Y-44701782D01*
X-2699500Y-44549060D01*
X-2699500Y-44024105D01*
X-2450500Y-44024105D01*
X-2450500Y-44155895D01*
X-2430035Y-44232268D01*
X-2416392Y-44283186D01*
X-2350500Y-44397314D01*
X-2257314Y-44490500D01*
X-2143186Y-44556392D01*
X-2015895Y-44590499D01*
X-2015895Y-44590500D01*
X-2015892Y-44590500D01*
X-1884105Y-44590500D01*
X-1884104Y-44590499D01*
X-1857207Y-44583292D01*
X-1756814Y-44556392D01*
X-1756813Y-44556391D01*
X-1756811Y-44556391D01*
X-1684457Y-44514617D01*
X-1642686Y-44490500D01*
X-1559648Y-44407462D01*
X-1525000Y-44393110D01*
X-1490352Y-44407462D01*
X-1407314Y-44490500D01*
X-1293186Y-44556392D01*
X-1165895Y-44590499D01*
X-1165895Y-44590500D01*
X-1165892Y-44590500D01*
X-1034105Y-44590500D01*
X-1034104Y-44590499D01*
X-1007207Y-44583292D01*
X-906814Y-44556392D01*
X-906813Y-44556391D01*
X-906811Y-44556391D01*
X-834457Y-44514617D01*
X-792686Y-44490500D01*
X-709648Y-44407462D01*
X-675000Y-44393110D01*
X-640352Y-44407462D01*
X-557314Y-44490500D01*
X-443186Y-44556392D01*
X-315895Y-44590499D01*
X-315895Y-44590500D01*
X-315892Y-44590500D01*
X-184105Y-44590500D01*
X-184104Y-44590499D01*
X-157207Y-44583292D01*
X-56814Y-44556392D01*
X-56813Y-44556391D01*
X-56811Y-44556391D01*
X-8575Y-44528541D01*
X57314Y-44490500D01*
X140352Y-44407462D01*
X175000Y-44393110D01*
X209648Y-44407462D01*
X292686Y-44490500D01*
X334457Y-44514617D01*
X406811Y-44556391D01*
X406813Y-44556391D01*
X406814Y-44556392D01*
X507207Y-44583292D01*
X534104Y-44590499D01*
X534105Y-44590500D01*
X534108Y-44590500D01*
X665895Y-44590500D01*
X665895Y-44590499D01*
X793186Y-44556392D01*
X907314Y-44490500D01*
X990352Y-44407462D01*
X1025000Y-44393110D01*
X1059648Y-44407462D01*
X1142686Y-44490500D01*
X1184457Y-44514617D01*
X1256811Y-44556391D01*
X1256813Y-44556391D01*
X1256814Y-44556392D01*
X1357207Y-44583292D01*
X1384104Y-44590499D01*
X1384105Y-44590500D01*
X1384108Y-44590500D01*
X1515895Y-44590500D01*
X1515895Y-44590499D01*
X1643186Y-44556392D01*
X1757314Y-44490500D01*
X1840352Y-44407462D01*
X1875000Y-44393110D01*
X1909648Y-44407462D01*
X1992686Y-44490500D01*
X2034457Y-44514617D01*
X2106811Y-44556391D01*
X2106813Y-44556391D01*
X2106814Y-44556392D01*
X2207207Y-44583292D01*
X2234104Y-44590499D01*
X2234105Y-44590500D01*
X2234108Y-44590500D01*
X2365895Y-44590500D01*
X2365895Y-44590499D01*
X2493186Y-44556392D01*
X2607314Y-44490500D01*
X2690352Y-44407462D01*
X2725000Y-44393110D01*
X2759648Y-44407462D01*
X2842686Y-44490500D01*
X2884457Y-44514617D01*
X2956811Y-44556391D01*
X2956813Y-44556391D01*
X2956814Y-44556392D01*
X3057207Y-44583292D01*
X3084104Y-44590499D01*
X3084105Y-44590500D01*
X3084108Y-44590500D01*
X3215895Y-44590500D01*
X3215895Y-44590499D01*
X3343186Y-44556392D01*
X3457314Y-44490500D01*
X3540352Y-44407462D01*
X3575000Y-44393110D01*
X3609648Y-44407462D01*
X3692686Y-44490500D01*
X3734457Y-44514617D01*
X3806811Y-44556391D01*
X3806813Y-44556391D01*
X3806814Y-44556392D01*
X3907207Y-44583292D01*
X3934104Y-44590499D01*
X3934105Y-44590500D01*
X3934108Y-44590500D01*
X4065895Y-44590500D01*
X4065895Y-44590499D01*
X4193186Y-44556392D01*
X4307314Y-44490500D01*
X4400500Y-44397314D01*
X4466392Y-44283186D01*
X4500499Y-44155895D01*
X4500500Y-44155895D01*
X4500500Y-44024105D01*
X4500499Y-44024104D01*
X4466392Y-43896815D01*
X4466391Y-43896811D01*
X4400499Y-43782685D01*
X4307314Y-43689500D01*
X4193188Y-43623608D01*
X4193184Y-43623607D01*
X4065895Y-43589500D01*
X4065892Y-43589500D01*
X3934108Y-43589500D01*
X3934105Y-43589500D01*
X3806815Y-43623607D01*
X3806811Y-43623608D01*
X3692685Y-43689500D01*
X3692685Y-43689501D01*
X3609648Y-43772538D01*
X3575000Y-43786890D01*
X3540352Y-43772538D01*
X3457314Y-43689500D01*
X3343188Y-43623608D01*
X3343184Y-43623607D01*
X3215895Y-43589500D01*
X3215892Y-43589500D01*
X3084108Y-43589500D01*
X3084105Y-43589500D01*
X2956815Y-43623607D01*
X2956811Y-43623608D01*
X2842685Y-43689500D01*
X2842685Y-43689501D01*
X2759648Y-43772538D01*
X2725000Y-43786890D01*
X2690352Y-43772538D01*
X2607314Y-43689500D01*
X2493188Y-43623608D01*
X2493184Y-43623607D01*
X2365895Y-43589500D01*
X2365892Y-43589500D01*
X2234108Y-43589500D01*
X2234105Y-43589500D01*
X2106815Y-43623607D01*
X2106811Y-43623608D01*
X1992685Y-43689500D01*
X1992685Y-43689501D01*
X1909648Y-43772538D01*
X1875000Y-43786890D01*
X1840352Y-43772538D01*
X1757314Y-43689500D01*
X1643188Y-43623608D01*
X1643184Y-43623607D01*
X1515895Y-43589500D01*
X1515892Y-43589500D01*
X1384108Y-43589500D01*
X1384105Y-43589500D01*
X1256815Y-43623607D01*
X1256811Y-43623608D01*
X1142685Y-43689500D01*
X1142685Y-43689501D01*
X1059648Y-43772538D01*
X1025000Y-43786890D01*
X990352Y-43772538D01*
X907314Y-43689500D01*
X793188Y-43623608D01*
X793184Y-43623607D01*
X665895Y-43589500D01*
X665892Y-43589500D01*
X534108Y-43589500D01*
X534105Y-43589500D01*
X406815Y-43623607D01*
X406811Y-43623608D01*
X292685Y-43689500D01*
X292685Y-43689501D01*
X209648Y-43772538D01*
X175000Y-43786890D01*
X140352Y-43772538D01*
X57314Y-43689500D01*
X-56811Y-43623608D01*
X-56815Y-43623607D01*
X-184105Y-43589500D01*
X-184108Y-43589500D01*
X-315892Y-43589500D01*
X-315895Y-43589500D01*
X-443184Y-43623607D01*
X-443188Y-43623608D01*
X-557314Y-43689500D01*
X-640352Y-43772538D01*
X-675000Y-43786890D01*
X-709648Y-43772538D01*
X-792685Y-43689501D01*
X-792685Y-43689500D01*
X-906811Y-43623608D01*
X-906815Y-43623607D01*
X-1034105Y-43589500D01*
X-1034108Y-43589500D01*
X-1165892Y-43589500D01*
X-1165895Y-43589500D01*
X-1293184Y-43623607D01*
X-1293188Y-43623608D01*
X-1407314Y-43689500D01*
X-1490352Y-43772538D01*
X-1525000Y-43786890D01*
X-1559648Y-43772538D01*
X-1642685Y-43689501D01*
X-1642685Y-43689500D01*
X-1756811Y-43623608D01*
X-1756815Y-43623607D01*
X-1884105Y-43589500D01*
X-1884108Y-43589500D01*
X-2015892Y-43589500D01*
X-2015895Y-43589500D01*
X-2143184Y-43623607D01*
X-2143188Y-43623608D01*
X-2257314Y-43689500D01*
X-2350499Y-43782685D01*
X-2416391Y-43896811D01*
X-2416392Y-43896815D01*
X-2450499Y-44024104D01*
X-2450500Y-44024105D01*
X-2699500Y-44024105D01*
X-2699500Y-42890939D01*
X-2740422Y-42738217D01*
X-2740422Y-42738216D01*
X-2765145Y-42695395D01*
X-2765145Y-42695394D01*
X-2777436Y-42674105D01*
X-2450500Y-42674105D01*
X-2450500Y-42805895D01*
X-2430035Y-42882268D01*
X-2416392Y-42933186D01*
X-2350500Y-43047314D01*
X-2257314Y-43140500D01*
X-2143186Y-43206392D01*
X-2015895Y-43240499D01*
X-2015895Y-43240500D01*
X-2015892Y-43240500D01*
X-1884105Y-43240500D01*
X-1884104Y-43240499D01*
X-1857207Y-43233292D01*
X-1756814Y-43206392D01*
X-1756813Y-43206391D01*
X-1756811Y-43206391D01*
X-1684457Y-43164617D01*
X-1642686Y-43140500D01*
X-1559648Y-43057462D01*
X-1525000Y-43043110D01*
X-1490352Y-43057462D01*
X-1407314Y-43140500D01*
X-1293186Y-43206392D01*
X-1165895Y-43240499D01*
X-1165895Y-43240500D01*
X-1165892Y-43240500D01*
X-1034105Y-43240500D01*
X-1034104Y-43240499D01*
X-1007207Y-43233292D01*
X-906814Y-43206392D01*
X-906813Y-43206391D01*
X-906811Y-43206391D01*
X-834457Y-43164617D01*
X-792686Y-43140500D01*
X-709648Y-43057462D01*
X-675000Y-43043110D01*
X-640352Y-43057462D01*
X-557314Y-43140500D01*
X-443186Y-43206392D01*
X-315895Y-43240499D01*
X-315895Y-43240500D01*
X-315892Y-43240500D01*
X-184105Y-43240500D01*
X-184104Y-43240499D01*
X-157207Y-43233292D01*
X-56814Y-43206392D01*
X-56813Y-43206391D01*
X-56811Y-43206391D01*
X-8575Y-43178541D01*
X57314Y-43140500D01*
X140352Y-43057462D01*
X175000Y-43043110D01*
X209648Y-43057462D01*
X292686Y-43140500D01*
X334457Y-43164617D01*
X406811Y-43206391D01*
X406813Y-43206391D01*
X406814Y-43206392D01*
X507207Y-43233292D01*
X534104Y-43240499D01*
X534105Y-43240500D01*
X534108Y-43240500D01*
X665895Y-43240500D01*
X665895Y-43240499D01*
X793186Y-43206392D01*
X907314Y-43140500D01*
X990352Y-43057462D01*
X1025000Y-43043110D01*
X1059648Y-43057462D01*
X1142686Y-43140500D01*
X1184457Y-43164617D01*
X1256811Y-43206391D01*
X1256813Y-43206391D01*
X1256814Y-43206392D01*
X1357207Y-43233292D01*
X1384104Y-43240499D01*
X1384105Y-43240500D01*
X1384108Y-43240500D01*
X1515895Y-43240500D01*
X1515895Y-43240499D01*
X1643186Y-43206392D01*
X1757314Y-43140500D01*
X1840352Y-43057462D01*
X1875000Y-43043110D01*
X1909648Y-43057462D01*
X1992686Y-43140500D01*
X2034457Y-43164617D01*
X2106811Y-43206391D01*
X2106813Y-43206391D01*
X2106814Y-43206392D01*
X2207207Y-43233292D01*
X2234104Y-43240499D01*
X2234105Y-43240500D01*
X2234108Y-43240500D01*
X2365895Y-43240500D01*
X2365895Y-43240499D01*
X2493186Y-43206392D01*
X2607314Y-43140500D01*
X2690352Y-43057462D01*
X2725000Y-43043110D01*
X2759648Y-43057462D01*
X2842686Y-43140500D01*
X2884457Y-43164617D01*
X2956811Y-43206391D01*
X2956813Y-43206391D01*
X2956814Y-43206392D01*
X3057207Y-43233292D01*
X3084104Y-43240499D01*
X3084105Y-43240500D01*
X3084108Y-43240500D01*
X3215895Y-43240500D01*
X3215895Y-43240499D01*
X3343186Y-43206392D01*
X3457314Y-43140500D01*
X3540352Y-43057462D01*
X3575000Y-43043110D01*
X3609648Y-43057462D01*
X3692686Y-43140500D01*
X3734457Y-43164617D01*
X3806811Y-43206391D01*
X3806813Y-43206391D01*
X3806814Y-43206392D01*
X3907207Y-43233292D01*
X3934104Y-43240499D01*
X3934105Y-43240500D01*
X3934108Y-43240500D01*
X4065895Y-43240500D01*
X4065895Y-43240499D01*
X4193186Y-43206392D01*
X4307314Y-43140500D01*
X4400500Y-43047314D01*
X4466392Y-42933186D01*
X4477712Y-42890939D01*
X4749500Y-42890939D01*
X4749500Y-44549060D01*
X4790422Y-44701782D01*
X4790423Y-44701786D01*
X4869475Y-44838709D01*
X4869478Y-44838713D01*
X4869480Y-44838716D01*
X4981284Y-44950520D01*
X4981287Y-44950521D01*
X4981290Y-44950524D01*
X5118213Y-45029576D01*
X5118215Y-45029576D01*
X5118216Y-45029577D01*
X5270943Y-45070500D01*
X5291618Y-45070500D01*
X5429060Y-45070500D01*
X5429060Y-45070499D01*
X5581784Y-45029577D01*
X5587781Y-45026115D01*
X5718709Y-44950524D01*
X5718708Y-44950524D01*
X5718716Y-44950520D01*
X5830520Y-44838716D01*
X5909577Y-44701784D01*
X5950499Y-44549060D01*
X5950500Y-44549060D01*
X5950500Y-42890940D01*
X5950499Y-42890939D01*
X5909577Y-42738217D01*
X5909576Y-42738213D01*
X5830524Y-42601290D01*
X5830521Y-42601287D01*
X5830520Y-42601284D01*
X5718716Y-42489480D01*
X5718713Y-42489478D01*
X5718709Y-42489475D01*
X5581786Y-42410423D01*
X5581782Y-42410422D01*
X5429060Y-42369500D01*
X5429057Y-42369500D01*
X5270943Y-42369500D01*
X5270940Y-42369500D01*
X5118217Y-42410422D01*
X5118213Y-42410423D01*
X4981290Y-42489475D01*
X4981281Y-42489482D01*
X4869482Y-42601281D01*
X4869475Y-42601290D01*
X4790423Y-42738213D01*
X4790422Y-42738217D01*
X4749500Y-42890939D01*
X4477712Y-42890939D01*
X4500499Y-42805895D01*
X4500500Y-42805895D01*
X4500500Y-42674105D01*
X4500499Y-42674104D01*
X4480890Y-42600921D01*
X4466392Y-42546814D01*
X4466391Y-42546813D01*
X4466391Y-42546811D01*
X4400499Y-42432685D01*
X4307314Y-42339500D01*
X4193188Y-42273608D01*
X4193184Y-42273607D01*
X4065895Y-42239500D01*
X4065892Y-42239500D01*
X3934108Y-42239500D01*
X3934105Y-42239500D01*
X3806815Y-42273607D01*
X3806811Y-42273608D01*
X3692685Y-42339500D01*
X3692685Y-42339501D01*
X3609648Y-42422538D01*
X3575000Y-42436890D01*
X3540352Y-42422538D01*
X3457314Y-42339500D01*
X3343188Y-42273608D01*
X3343184Y-42273607D01*
X3215895Y-42239500D01*
X3215892Y-42239500D01*
X3084108Y-42239500D01*
X3084105Y-42239500D01*
X2956815Y-42273607D01*
X2956811Y-42273608D01*
X2842685Y-42339500D01*
X2842685Y-42339501D01*
X2759648Y-42422538D01*
X2725000Y-42436890D01*
X2690352Y-42422538D01*
X2607314Y-42339500D01*
X2493188Y-42273608D01*
X2493184Y-42273607D01*
X2365895Y-42239500D01*
X2365892Y-42239500D01*
X2234108Y-42239500D01*
X2234105Y-42239500D01*
X2106815Y-42273607D01*
X2106811Y-42273608D01*
X1992685Y-42339500D01*
X1992685Y-42339501D01*
X1909648Y-42422538D01*
X1875000Y-42436890D01*
X1840352Y-42422538D01*
X1757314Y-42339500D01*
X1643188Y-42273608D01*
X1643184Y-42273607D01*
X1515895Y-42239500D01*
X1515892Y-42239500D01*
X1384108Y-42239500D01*
X1384105Y-42239500D01*
X1256815Y-42273607D01*
X1256811Y-42273608D01*
X1142685Y-42339500D01*
X1142685Y-42339501D01*
X1059648Y-42422538D01*
X1025000Y-42436890D01*
X990352Y-42422538D01*
X907314Y-42339500D01*
X793188Y-42273608D01*
X793184Y-42273607D01*
X665895Y-42239500D01*
X665892Y-42239500D01*
X534108Y-42239500D01*
X534105Y-42239500D01*
X406815Y-42273607D01*
X406811Y-42273608D01*
X292685Y-42339500D01*
X292685Y-42339501D01*
X209648Y-42422538D01*
X175000Y-42436890D01*
X140352Y-42422538D01*
X57314Y-42339500D01*
X-56811Y-42273608D01*
X-56815Y-42273607D01*
X-184105Y-42239500D01*
X-184108Y-42239500D01*
X-315892Y-42239500D01*
X-315895Y-42239500D01*
X-443184Y-42273607D01*
X-443188Y-42273608D01*
X-557314Y-42339500D01*
X-640352Y-42422538D01*
X-675000Y-42436890D01*
X-709648Y-42422538D01*
X-792685Y-42339501D01*
X-792685Y-42339500D01*
X-906811Y-42273608D01*
X-906815Y-42273607D01*
X-1034105Y-42239500D01*
X-1034108Y-42239500D01*
X-1165892Y-42239500D01*
X-1165895Y-42239500D01*
X-1293184Y-42273607D01*
X-1293188Y-42273608D01*
X-1407314Y-42339500D01*
X-1490352Y-42422538D01*
X-1525000Y-42436890D01*
X-1559648Y-42422538D01*
X-1642685Y-42339501D01*
X-1642685Y-42339500D01*
X-1756811Y-42273608D01*
X-1756815Y-42273607D01*
X-1884105Y-42239500D01*
X-1884108Y-42239500D01*
X-2015892Y-42239500D01*
X-2015895Y-42239500D01*
X-2143184Y-42273607D01*
X-2143188Y-42273608D01*
X-2257314Y-42339500D01*
X-2350499Y-42432685D01*
X-2416391Y-42546811D01*
X-2416391Y-42546813D01*
X-2416392Y-42546814D01*
X-2430890Y-42600921D01*
X-2450499Y-42674104D01*
X-2450500Y-42674105D01*
X-2777436Y-42674105D01*
X-2819475Y-42601290D01*
X-2819482Y-42601281D01*
X-2931281Y-42489482D01*
X-2931290Y-42489475D01*
X-3068213Y-42410423D01*
X-3068217Y-42410422D01*
X-3220940Y-42369500D01*
X-3220943Y-42369500D01*
X-3379057Y-42369500D01*
X-3379060Y-42369500D01*
X-3531782Y-42410422D01*
X-3531786Y-42410423D01*
X-3668709Y-42489475D01*
X-3668713Y-42489478D01*
X-3668716Y-42489480D01*
X-3780520Y-42601284D01*
X-3780521Y-42601287D01*
X-3780524Y-42601290D01*
X-3859576Y-42738213D01*
X-3859577Y-42738217D01*
X-3900499Y-42890939D01*
X-3900500Y-42890940D01*
X-19699500Y-42890940D01*
X-19699500Y-41446938D01*
X-50500Y-41446938D01*
X-50500Y-41565561D01*
X-44827Y-41586731D01*
X-19799Y-41680136D01*
X39511Y-41782863D01*
X123387Y-41866739D01*
X226114Y-41926049D01*
X254758Y-41933724D01*
X340688Y-41956750D01*
X340691Y-41956750D01*
X459311Y-41956750D01*
X516597Y-41941399D01*
X573886Y-41926049D01*
X676613Y-41866739D01*
X760489Y-41782863D01*
X819799Y-41680136D01*
X844827Y-41586731D01*
X850500Y-41565561D01*
X850500Y-41446938D01*
X1149500Y-41446938D01*
X1149500Y-41565561D01*
X1180200Y-41680134D01*
X1180201Y-41680137D01*
X1204635Y-41722457D01*
X1239511Y-41782863D01*
X1323387Y-41866739D01*
X1426114Y-41926049D01*
X1454758Y-41933724D01*
X1540688Y-41956750D01*
X1540691Y-41956750D01*
X1659311Y-41956750D01*
X1716597Y-41941399D01*
X1773886Y-41926049D01*
X1876613Y-41866739D01*
X1876807Y-41866545D01*
X10819200Y-41866545D01*
X10819200Y-42013455D01*
X10847860Y-42157542D01*
X10847860Y-42157543D01*
X10895936Y-42273608D01*
X10904080Y-42293269D01*
X10934971Y-42339500D01*
X10985696Y-42415417D01*
X11089582Y-42519303D01*
X11130751Y-42546811D01*
X11211731Y-42600920D01*
X11347458Y-42657140D01*
X11491545Y-42685800D01*
X11491548Y-42685800D01*
X11638452Y-42685800D01*
X11638455Y-42685800D01*
X11782542Y-42657140D01*
X11918269Y-42600920D01*
X12040420Y-42519301D01*
X12144301Y-42415420D01*
X12225920Y-42293269D01*
X12282140Y-42157542D01*
X12310800Y-42013455D01*
X12310800Y-41866545D01*
X12282140Y-41722458D01*
X12225920Y-41586731D01*
X12176772Y-41513176D01*
X12144303Y-41464582D01*
X12040417Y-41360696D01*
X11967525Y-41311991D01*
X11918269Y-41279080D01*
X11918266Y-41279078D01*
X11918265Y-41279078D01*
X11782542Y-41222860D01*
X11767148Y-41219798D01*
X11638455Y-41194200D01*
X11491545Y-41194200D01*
X11383479Y-41215695D01*
X11347457Y-41222860D01*
X11347456Y-41222860D01*
X11211734Y-41279078D01*
X11089582Y-41360696D01*
X10985696Y-41464582D01*
X10904078Y-41586734D01*
X10847860Y-41722456D01*
X10847860Y-41722457D01*
X10847860Y-41722458D01*
X10819200Y-41866545D01*
X1876807Y-41866545D01*
X1960489Y-41782863D01*
X2019799Y-41680136D01*
X2044827Y-41586731D01*
X2050500Y-41565561D01*
X2050500Y-41446938D01*
X2019799Y-41332365D01*
X2019798Y-41332362D01*
X1960488Y-41229636D01*
X1876613Y-41145761D01*
X1773887Y-41086451D01*
X1773884Y-41086450D01*
X1659312Y-41055750D01*
X1659309Y-41055750D01*
X1540691Y-41055750D01*
X1540688Y-41055750D01*
X1426115Y-41086450D01*
X1426112Y-41086451D01*
X1323386Y-41145761D01*
X1323386Y-41145762D01*
X1239512Y-41229636D01*
X1239511Y-41229636D01*
X1180201Y-41332362D01*
X1180200Y-41332365D01*
X1149500Y-41446938D01*
X850500Y-41446938D01*
X819799Y-41332365D01*
X819798Y-41332362D01*
X760488Y-41229636D01*
X676613Y-41145761D01*
X573887Y-41086451D01*
X573884Y-41086450D01*
X459312Y-41055750D01*
X459309Y-41055750D01*
X340691Y-41055750D01*
X340688Y-41055750D01*
X226115Y-41086450D01*
X226112Y-41086451D01*
X123386Y-41145761D01*
X123386Y-41145762D01*
X39512Y-41229636D01*
X39511Y-41229636D01*
X-19798Y-41332362D01*
X-19799Y-41332365D01*
X-50500Y-41446938D01*
X-19699500Y-41446938D01*
X-19699500Y-39509454D01*
X-15750500Y-39509454D01*
X-15750500Y-39690546D01*
X-15722171Y-39869409D01*
X-15666211Y-40041639D01*
X-15583996Y-40202994D01*
X-15492107Y-40329468D01*
X-15477554Y-40349500D01*
X-15477548Y-40349507D01*
X-15349507Y-40477548D01*
X-15349504Y-40477549D01*
X-15349501Y-40477553D01*
X-15202994Y-40583996D01*
X-15041639Y-40666211D01*
X-14869409Y-40722171D01*
X-14690546Y-40750500D01*
X-14690545Y-40750500D01*
X-14509455Y-40750500D01*
X-14509454Y-40750500D01*
X-14447503Y-40740688D01*
X15749500Y-40740688D01*
X15749500Y-40859311D01*
X15780200Y-40973884D01*
X15780201Y-40973887D01*
X15827466Y-41055750D01*
X15839511Y-41076613D01*
X15923387Y-41160489D01*
X16026114Y-41219799D01*
X16037538Y-41222860D01*
X16140688Y-41250500D01*
X16140691Y-41250500D01*
X16259311Y-41250500D01*
X16337170Y-41229637D01*
X16373886Y-41219799D01*
X16476613Y-41160489D01*
X16560489Y-41076613D01*
X16619799Y-40973886D01*
X16635149Y-40916597D01*
X16650500Y-40859311D01*
X16650500Y-40740688D01*
X16619799Y-40626115D01*
X16619798Y-40626112D01*
X16560488Y-40523386D01*
X16476613Y-40439511D01*
X16373887Y-40380201D01*
X16373884Y-40380200D01*
X16259312Y-40349500D01*
X16259309Y-40349500D01*
X16140691Y-40349500D01*
X16140688Y-40349500D01*
X16026115Y-40380200D01*
X16026112Y-40380201D01*
X15923386Y-40439511D01*
X15923386Y-40439512D01*
X15839512Y-40523386D01*
X15839511Y-40523386D01*
X15780201Y-40626112D01*
X15780200Y-40626115D01*
X15749500Y-40740688D01*
X-14447503Y-40740688D01*
X-14330591Y-40722171D01*
X-14158361Y-40666211D01*
X-13997006Y-40583996D01*
X-13850499Y-40477553D01*
X-13850497Y-40477551D01*
X-13850493Y-40477548D01*
X-13722452Y-40349507D01*
X-13722446Y-40349500D01*
X-13616002Y-40202991D01*
X-13584257Y-40140688D01*
X7349500Y-40140688D01*
X7349500Y-40259311D01*
X7380200Y-40373884D01*
X7380201Y-40373887D01*
X7439511Y-40476613D01*
X7523387Y-40560489D01*
X7626114Y-40619799D01*
X7654758Y-40627474D01*
X7740688Y-40650500D01*
X7740691Y-40650500D01*
X7859311Y-40650500D01*
X7916597Y-40635149D01*
X7973886Y-40619799D01*
X8076613Y-40560489D01*
X8160489Y-40476613D01*
X8219799Y-40373886D01*
X8235149Y-40316597D01*
X8250500Y-40259311D01*
X8250500Y-40140688D01*
X8219799Y-40026115D01*
X8219798Y-40026112D01*
X8160488Y-39923386D01*
X8076613Y-39839511D01*
X7973887Y-39780201D01*
X7973884Y-39780200D01*
X7859312Y-39749500D01*
X7859309Y-39749500D01*
X7740691Y-39749500D01*
X7740688Y-39749500D01*
X7626115Y-39780200D01*
X7626112Y-39780201D01*
X7523386Y-39839511D01*
X7523386Y-39839512D01*
X7439512Y-39923386D01*
X7439511Y-39923386D01*
X7380201Y-40026112D01*
X7380200Y-40026115D01*
X7349500Y-40140688D01*
X-13584257Y-40140688D01*
X-13571288Y-40115234D01*
X-13533789Y-40041639D01*
X-13528744Y-40026114D01*
X-13477829Y-39869409D01*
X-13477828Y-39869406D01*
X-13449500Y-39690545D01*
X-13449500Y-39509454D01*
X-13475524Y-39345144D01*
X-13476230Y-39340688D01*
X12949500Y-39340688D01*
X12949500Y-39459311D01*
X12980200Y-39573884D01*
X12980201Y-39573887D01*
X13039511Y-39676613D01*
X13123387Y-39760489D01*
X13226114Y-39819799D01*
X13254758Y-39827474D01*
X13340688Y-39850500D01*
X13340691Y-39850500D01*
X13459311Y-39850500D01*
X13516597Y-39835149D01*
X13573886Y-39819799D01*
X13676613Y-39760489D01*
X13760489Y-39676613D01*
X13819799Y-39573886D01*
X13837064Y-39509454D01*
X13850500Y-39459311D01*
X13850500Y-39340688D01*
X13819799Y-39226115D01*
X13819798Y-39226112D01*
X13760488Y-39123386D01*
X13676613Y-39039511D01*
X13573887Y-38980201D01*
X13573884Y-38980200D01*
X13459312Y-38949500D01*
X13459309Y-38949500D01*
X13340691Y-38949500D01*
X13340688Y-38949500D01*
X13226115Y-38980200D01*
X13226112Y-38980201D01*
X13123386Y-39039511D01*
X13123386Y-39039512D01*
X13039512Y-39123386D01*
X13039511Y-39123386D01*
X12980201Y-39226112D01*
X12980200Y-39226115D01*
X12949500Y-39340688D01*
X-13476230Y-39340688D01*
X-13477828Y-39330593D01*
X-13477829Y-39330590D01*
X-13533788Y-39158362D01*
X-13616004Y-38997006D01*
X-13722448Y-38850497D01*
X-13850497Y-38722448D01*
X-13997006Y-38616004D01*
X-14158362Y-38533788D01*
X-14330590Y-38477829D01*
X-14330593Y-38477828D01*
X-14475794Y-38454831D01*
X-14509454Y-38449500D01*
X-14690546Y-38449500D01*
X-14732007Y-38456066D01*
X-14869406Y-38477828D01*
X-14869409Y-38477829D01*
X-15041637Y-38533788D01*
X-15041638Y-38533788D01*
X-15041639Y-38533789D01*
X-15202994Y-38616004D01*
X-15349501Y-38722447D01*
X-15349502Y-38722448D01*
X-15349507Y-38722452D01*
X-15477548Y-38850493D01*
X-15477551Y-38850497D01*
X-15477553Y-38850499D01*
X-15583996Y-38997006D01*
X-15666211Y-39158361D01*
X-15722171Y-39330591D01*
X-15750500Y-39509454D01*
X-19699500Y-39509454D01*
X-19699500Y-37309454D01*
X-12550500Y-37309454D01*
X-12550500Y-37490546D01*
X-12522171Y-37669409D01*
X-12466211Y-37841639D01*
X-12383996Y-38002994D01*
X-12277553Y-38149501D01*
X-12277549Y-38149504D01*
X-12277548Y-38149507D01*
X-12149507Y-38277548D01*
X-12149504Y-38277549D01*
X-12149501Y-38277553D01*
X-12002994Y-38383996D01*
X-11841639Y-38466211D01*
X-11669409Y-38522171D01*
X-11490546Y-38550500D01*
X-11490545Y-38550500D01*
X-11309455Y-38550500D01*
X-11309454Y-38550500D01*
X-11130591Y-38522171D01*
X-10958361Y-38466211D01*
X-10797006Y-38383996D01*
X-10737397Y-38340688D01*
X-6650500Y-38340688D01*
X-6650500Y-38459311D01*
X-6648651Y-38466211D01*
X-6619799Y-38573886D01*
X-6560489Y-38676613D01*
X-6476613Y-38760489D01*
X-6373886Y-38819799D01*
X-6316597Y-38835149D01*
X-6259311Y-38850500D01*
X-6259309Y-38850500D01*
X-6140688Y-38850500D01*
X-6054758Y-38827474D01*
X-6026114Y-38819799D01*
X-5923387Y-38760489D01*
X-5839511Y-38676613D01*
X-5804518Y-38616004D01*
X-5780201Y-38573887D01*
X-5780200Y-38573884D01*
X-5749500Y-38459311D01*
X-5749500Y-38340688D01*
X-5749499Y-38340688D01*
X-5780200Y-38226115D01*
X-5780201Y-38226112D01*
X-5839511Y-38123386D01*
X-5923386Y-38039512D01*
X-5923386Y-38039511D01*
X-6026112Y-37980201D01*
X-6026115Y-37980200D01*
X-6140688Y-37949500D01*
X-6140691Y-37949500D01*
X-6259309Y-37949500D01*
X-6259312Y-37949500D01*
X-6373884Y-37980200D01*
X-6373887Y-37980201D01*
X-6476613Y-38039511D01*
X-6560489Y-38123387D01*
X-6603905Y-38198585D01*
X-6619798Y-38226112D01*
X-6619799Y-38226115D01*
X-6650500Y-38340688D01*
X-10737397Y-38340688D01*
X-10650499Y-38277553D01*
X-10650497Y-38277551D01*
X-10650493Y-38277548D01*
X-10522452Y-38149507D01*
X-10522448Y-38149502D01*
X-10522447Y-38149501D01*
X-10416004Y-38002994D01*
X-10333789Y-37841639D01*
X-10289243Y-37704540D01*
X-10277829Y-37669409D01*
X-10277828Y-37669406D01*
X-10249500Y-37490545D01*
X-10249500Y-37309454D01*
X-10277828Y-37130593D01*
X-10277829Y-37130590D01*
X-10333788Y-36958362D01*
X-10416004Y-36797006D01*
X-10522448Y-36650497D01*
X-10650497Y-36522448D01*
X-10797006Y-36416004D01*
X-10958362Y-36333788D01*
X-11130590Y-36277829D01*
X-11130593Y-36277828D01*
X-11275794Y-36254831D01*
X-11309454Y-36249500D01*
X-11490546Y-36249500D01*
X-11532007Y-36256066D01*
X-11669406Y-36277828D01*
X-11669409Y-36277829D01*
X-11841637Y-36333788D01*
X-11841638Y-36333788D01*
X-11841639Y-36333789D01*
X-12002994Y-36416004D01*
X-12149501Y-36522447D01*
X-12149502Y-36522448D01*
X-12149507Y-36522452D01*
X-12277548Y-36650493D01*
X-12277551Y-36650497D01*
X-12277553Y-36650499D01*
X-12383996Y-36797006D01*
X-12466211Y-36958361D01*
X-12522171Y-37130591D01*
X-12550500Y-37309454D01*
X-19699500Y-37309454D01*
X-19699500Y-35909454D01*
X-15750500Y-35909454D01*
X-15750500Y-36090546D01*
X-15722171Y-36269409D01*
X-15666211Y-36441639D01*
X-15583996Y-36602994D01*
X-15477553Y-36749501D01*
X-15477549Y-36749504D01*
X-15477548Y-36749507D01*
X-15349507Y-36877548D01*
X-15349504Y-36877549D01*
X-15349501Y-36877553D01*
X-15202994Y-36983996D01*
X-15041639Y-37066211D01*
X-14869409Y-37122171D01*
X-14690546Y-37150500D01*
X-14690545Y-37150500D01*
X-14509455Y-37150500D01*
X-14509454Y-37150500D01*
X-14330591Y-37122171D01*
X-14158361Y-37066211D01*
X-13997006Y-36983996D01*
X-13850499Y-36877553D01*
X-13850497Y-36877551D01*
X-13850493Y-36877548D01*
X-13722452Y-36749507D01*
X-13722448Y-36749502D01*
X-13722447Y-36749501D01*
X-13616004Y-36602994D01*
X-13533789Y-36441639D01*
X-13515249Y-36384580D01*
X-13477829Y-36269409D01*
X-13477828Y-36269406D01*
X-13457441Y-36140688D01*
X-6250500Y-36140688D01*
X-6250500Y-36259311D01*
X-6244769Y-36280699D01*
X-6219799Y-36373886D01*
X-6160489Y-36476613D01*
X-6076613Y-36560489D01*
X-6076600Y-36560496D01*
X-6075787Y-36561121D01*
X-6075521Y-36561580D01*
X-6074342Y-36562760D01*
X-6074657Y-36563075D01*
X-6057031Y-36593597D01*
X-6066732Y-36629824D01*
X-6075787Y-36638879D01*
X-6076605Y-36639506D01*
X-6076613Y-36639511D01*
X-6160489Y-36723387D01*
X-6219799Y-36826114D01*
X-6227474Y-36854758D01*
X-6250500Y-36940688D01*
X-6250500Y-37059311D01*
X-6236689Y-37110853D01*
X-6219799Y-37173886D01*
X-6160489Y-37276613D01*
X-6076613Y-37360489D01*
X-5973886Y-37419799D01*
X-5916597Y-37435149D01*
X-5859311Y-37450500D01*
X-5859309Y-37450500D01*
X-5740688Y-37450500D01*
X-5654758Y-37427474D01*
X-5626114Y-37419799D01*
X-5523387Y-37360489D01*
X-5439511Y-37276613D01*
X-5409961Y-37225432D01*
X-5380201Y-37173887D01*
X-5380200Y-37173884D01*
X-5349500Y-37059311D01*
X-5349500Y-36940688D01*
X-5349499Y-36940688D01*
X-5380200Y-36826115D01*
X-5380201Y-36826112D01*
X-5439511Y-36723386D01*
X-5523387Y-36639510D01*
X-5524222Y-36638870D01*
X-5524486Y-36638411D01*
X-5525658Y-36637240D01*
X-5525344Y-36636926D01*
X-5542969Y-36606389D01*
X-5533257Y-36570165D01*
X-5524222Y-36561130D01*
X-5523387Y-36560489D01*
X-5439511Y-36476613D01*
X-5380201Y-36373887D01*
X-5380200Y-36373884D01*
X-5349500Y-36259311D01*
X-5349500Y-36140688D01*
X-5349499Y-36140688D01*
X-5380200Y-36026115D01*
X-5380201Y-36026112D01*
X-5439511Y-35923386D01*
X-5523386Y-35839512D01*
X-5523386Y-35839511D01*
X-5626112Y-35780201D01*
X-5626115Y-35780200D01*
X-5740688Y-35749500D01*
X-5740691Y-35749500D01*
X-5859309Y-35749500D01*
X-5859312Y-35749500D01*
X-5973884Y-35780200D01*
X-5973887Y-35780201D01*
X-6076613Y-35839511D01*
X-6160488Y-35923386D01*
X-6219798Y-36026112D01*
X-6219799Y-36026115D01*
X-6250500Y-36140688D01*
X-13457441Y-36140688D01*
X-13455719Y-36129814D01*
X-13449500Y-36090545D01*
X-13449500Y-35909454D01*
X-13477828Y-35730593D01*
X-13477829Y-35730590D01*
X-13533788Y-35558362D01*
X-13616004Y-35397006D01*
X-13722448Y-35250497D01*
X-13850497Y-35122448D01*
X-13997006Y-35016004D01*
X-14158362Y-34933788D01*
X-14330590Y-34877829D01*
X-14330593Y-34877828D01*
X-14503147Y-34850499D01*
X-14509454Y-34849500D01*
X-14690546Y-34849500D01*
X-14696853Y-34850499D01*
X-14869406Y-34877828D01*
X-14869409Y-34877829D01*
X-15041637Y-34933788D01*
X-15041638Y-34933788D01*
X-15041639Y-34933789D01*
X-15202994Y-35016004D01*
X-15349501Y-35122447D01*
X-15349502Y-35122448D01*
X-15349507Y-35122452D01*
X-15477548Y-35250493D01*
X-15477551Y-35250497D01*
X-15477553Y-35250499D01*
X-15583996Y-35397006D01*
X-15666211Y-35558361D01*
X-15722171Y-35730591D01*
X-15750500Y-35909454D01*
X-19699500Y-35909454D01*
X-19699500Y-33709454D01*
X-12550500Y-33709454D01*
X-12550500Y-33890546D01*
X-12522171Y-34069409D01*
X-12466211Y-34241639D01*
X-12383996Y-34402994D01*
X-12277553Y-34549501D01*
X-12277549Y-34549504D01*
X-12277548Y-34549507D01*
X-12149507Y-34677548D01*
X-12149504Y-34677549D01*
X-12149501Y-34677553D01*
X-12002994Y-34783996D01*
X-11841639Y-34866211D01*
X-11669409Y-34922171D01*
X-11490546Y-34950500D01*
X-11490545Y-34950500D01*
X-11309455Y-34950500D01*
X-11309454Y-34950500D01*
X-11130591Y-34922171D01*
X-10958361Y-34866211D01*
X-10797006Y-34783996D01*
X-10650499Y-34677553D01*
X-10650497Y-34677551D01*
X-10650493Y-34677548D01*
X-10522452Y-34549507D01*
X-10522448Y-34549502D01*
X-10470374Y-34477828D01*
X-10416004Y-34402994D01*
X-10333789Y-34241639D01*
X-10277829Y-34069409D01*
X-10277828Y-34069406D01*
X-10249500Y-33890545D01*
X-10249500Y-33709454D01*
X-10277828Y-33530593D01*
X-10277829Y-33530590D01*
X-10333788Y-33358362D01*
X-10416004Y-33197006D01*
X-10522448Y-33050497D01*
X-10650497Y-32922448D01*
X-10797006Y-32816004D01*
X-10958362Y-32733788D01*
X-11130590Y-32677829D01*
X-11130593Y-32677828D01*
X-11287400Y-32652993D01*
X-11309454Y-32649500D01*
X-11490546Y-32649500D01*
X-11512600Y-32652993D01*
X-11669406Y-32677828D01*
X-11669409Y-32677829D01*
X-11841637Y-32733788D01*
X-11841638Y-32733788D01*
X-11841639Y-32733789D01*
X-12002994Y-32816004D01*
X-12149501Y-32922447D01*
X-12149502Y-32922448D01*
X-12149507Y-32922452D01*
X-12277548Y-33050493D01*
X-12277551Y-33050497D01*
X-12277553Y-33050499D01*
X-12383996Y-33197006D01*
X-12466211Y-33358361D01*
X-12522171Y-33530591D01*
X-12550500Y-33709454D01*
X-19699500Y-33709454D01*
X-19699500Y-32309454D01*
X-15750500Y-32309454D01*
X-15750500Y-32490546D01*
X-15722171Y-32669409D01*
X-15666211Y-32841639D01*
X-15583996Y-33002994D01*
X-15477553Y-33149501D01*
X-15477549Y-33149504D01*
X-15477548Y-33149507D01*
X-15349507Y-33277548D01*
X-15349504Y-33277549D01*
X-15349501Y-33277553D01*
X-15202994Y-33383996D01*
X-15041639Y-33466211D01*
X-14869409Y-33522171D01*
X-14690546Y-33550500D01*
X-14690545Y-33550500D01*
X-14509455Y-33550500D01*
X-14509454Y-33550500D01*
X-14330591Y-33522171D01*
X-14158361Y-33466211D01*
X-13997006Y-33383996D01*
X-13850499Y-33277553D01*
X-13850497Y-33277551D01*
X-13850493Y-33277548D01*
X-13722452Y-33149507D01*
X-13722448Y-33149502D01*
X-13698261Y-33116211D01*
X-13616004Y-33002994D01*
X-13533789Y-32841639D01*
X-13520099Y-32799507D01*
X-13477829Y-32669409D01*
X-13477828Y-32669406D01*
X-13449500Y-32490545D01*
X-13449500Y-32309454D01*
X-13477828Y-32130593D01*
X-13477829Y-32130590D01*
X-13533788Y-31958362D01*
X-13616004Y-31797006D01*
X-13722448Y-31650497D01*
X-13850497Y-31522448D01*
X-13997006Y-31416004D01*
X-14158362Y-31333788D01*
X-14330590Y-31277829D01*
X-14330593Y-31277828D01*
X-14475794Y-31254831D01*
X-14509454Y-31249500D01*
X-14690546Y-31249500D01*
X-14732007Y-31256066D01*
X-14869406Y-31277828D01*
X-14869409Y-31277829D01*
X-15041637Y-31333788D01*
X-15041638Y-31333788D01*
X-15041639Y-31333789D01*
X-15202994Y-31416004D01*
X-15349501Y-31522447D01*
X-15349502Y-31522448D01*
X-15349507Y-31522452D01*
X-15477548Y-31650493D01*
X-15477551Y-31650497D01*
X-15477553Y-31650499D01*
X-15583996Y-31797006D01*
X-15666211Y-31958361D01*
X-15722171Y-32130591D01*
X-15750500Y-32309454D01*
X-19699500Y-32309454D01*
X-19699500Y-29940688D01*
X-6250500Y-29940688D01*
X-6250500Y-30059311D01*
X-6235149Y-30116597D01*
X-6219799Y-30173886D01*
X-6160489Y-30276613D01*
X-6076613Y-30360489D01*
X-5973886Y-30419799D01*
X-5916597Y-30435149D01*
X-5859311Y-30450500D01*
X-5859309Y-30450500D01*
X-5740688Y-30450500D01*
X-5654758Y-30427474D01*
X-5626114Y-30419799D01*
X-5523387Y-30360489D01*
X-5439511Y-30276613D01*
X-5380201Y-30173887D01*
X-5380200Y-30173884D01*
X-5349500Y-30059311D01*
X-5349500Y-29940688D01*
X-5349499Y-29940688D01*
X-5380200Y-29826115D01*
X-5380201Y-29826112D01*
X-5439511Y-29723386D01*
X-5523386Y-29639512D01*
X-5523386Y-29639511D01*
X-5626112Y-29580201D01*
X-5626115Y-29580200D01*
X-5740688Y-29549500D01*
X-5740691Y-29549500D01*
X-5859309Y-29549500D01*
X-5859312Y-29549500D01*
X-5973884Y-29580200D01*
X-5973887Y-29580201D01*
X-6076613Y-29639511D01*
X-6160488Y-29723386D01*
X-6219798Y-29826112D01*
X-6219799Y-29826115D01*
X-6250500Y-29940688D01*
X-19699500Y-29940688D01*
X-19699500Y-27140688D01*
X-10850500Y-27140688D01*
X-10850500Y-27259311D01*
X-10845863Y-27276614D01*
X-10819799Y-27373886D01*
X-10760489Y-27476613D01*
X-10676613Y-27560489D01*
X-10573886Y-27619799D01*
X-10516597Y-27635149D01*
X-10459311Y-27650500D01*
X-10459309Y-27650500D01*
X-10340688Y-27650500D01*
X-10254758Y-27627474D01*
X-10226114Y-27619799D01*
X-10123387Y-27560489D01*
X-10039511Y-27476613D01*
X-9980201Y-27373887D01*
X-9980200Y-27373884D01*
X-9949500Y-27259311D01*
X-9949500Y-27140688D01*
X-9949499Y-27140688D01*
X-9980200Y-27026115D01*
X-9980201Y-27026112D01*
X-10039511Y-26923386D01*
X-10090771Y-26872127D01*
X-10122210Y-26840688D01*
X-7150500Y-26840688D01*
X-7150500Y-26959311D01*
X-7135149Y-27016597D01*
X-7119799Y-27073886D01*
X-7060489Y-27176613D01*
X-6976613Y-27260489D01*
X-6873886Y-27319799D01*
X-6816597Y-27335149D01*
X-6759311Y-27350500D01*
X-6759309Y-27350500D01*
X-6640688Y-27350500D01*
X-6554758Y-27327474D01*
X-6526114Y-27319799D01*
X-6423387Y-27260489D01*
X-6339511Y-27176613D01*
X-6318771Y-27140691D01*
X-6280201Y-27073887D01*
X-6280200Y-27073884D01*
X-6249500Y-26959311D01*
X-6249500Y-26840688D01*
X-6249499Y-26840688D01*
X-6280200Y-26726115D01*
X-6280201Y-26726112D01*
X-6339511Y-26623386D01*
X-6423386Y-26539512D01*
X-6423386Y-26539511D01*
X-6526112Y-26480201D01*
X-6526115Y-26480200D01*
X-6640688Y-26449500D01*
X-6640691Y-26449500D01*
X-6759309Y-26449500D01*
X-6759312Y-26449500D01*
X-6873884Y-26480200D01*
X-6873887Y-26480201D01*
X-6976613Y-26539511D01*
X-7060488Y-26623386D01*
X-7119798Y-26726112D01*
X-7119799Y-26726115D01*
X-7150500Y-26840688D01*
X-10122210Y-26840688D01*
X-10123386Y-26839512D01*
X-10123386Y-26839511D01*
X-10226112Y-26780201D01*
X-10226115Y-26780200D01*
X-10340688Y-26749500D01*
X-10340691Y-26749500D01*
X-10459309Y-26749500D01*
X-10459312Y-26749500D01*
X-10573884Y-26780200D01*
X-10573887Y-26780201D01*
X-10653409Y-26826114D01*
X-10676613Y-26839511D01*
X-10760489Y-26923387D01*
X-10781229Y-26959309D01*
X-10819798Y-27026112D01*
X-10819799Y-27026115D01*
X-10850500Y-27140688D01*
X-19699500Y-27140688D01*
X-19699500Y-20940688D01*
X-3850500Y-20940688D01*
X-3850500Y-21059311D01*
X-3835149Y-21116597D01*
X-3819799Y-21173886D01*
X-3760489Y-21276613D01*
X-3676613Y-21360489D01*
X-3573886Y-21419799D01*
X-3528885Y-21431857D01*
X-3459311Y-21450500D01*
X-3459309Y-21450500D01*
X-3340688Y-21450500D01*
X-3254758Y-21427474D01*
X-3226114Y-21419799D01*
X-3173499Y-21389421D01*
X-3136318Y-21384527D01*
X-3106565Y-21407357D01*
X-3100000Y-21431857D01*
X-3100000Y-22568142D01*
X-3114352Y-22602790D01*
X-3149000Y-22617142D01*
X-3173500Y-22610577D01*
X-3226111Y-22580201D01*
X-3226115Y-22580200D01*
X-3340688Y-22549500D01*
X-3340691Y-22549500D01*
X-3459309Y-22549500D01*
X-3459312Y-22549500D01*
X-3573884Y-22580200D01*
X-3573887Y-22580201D01*
X-3676613Y-22639511D01*
X-3760488Y-22723386D01*
X-3819798Y-22826112D01*
X-3819799Y-22826115D01*
X-3850500Y-22940688D01*
X-3850500Y-23059311D01*
X-3835149Y-23116597D01*
X-3819799Y-23173886D01*
X-3760489Y-23276613D01*
X-3676613Y-23360489D01*
X-3573886Y-23419799D01*
X-3528885Y-23431857D01*
X-3459311Y-23450500D01*
X-3459309Y-23450500D01*
X-3340688Y-23450500D01*
X-3254758Y-23427474D01*
X-3226114Y-23419799D01*
X-3173499Y-23389421D01*
X-3136318Y-23384527D01*
X-3106565Y-23407357D01*
X-3100000Y-23431857D01*
X-3100000Y-25068142D01*
X-3114352Y-25102790D01*
X-3149000Y-25117142D01*
X-3173500Y-25110577D01*
X-3226111Y-25080201D01*
X-3226115Y-25080200D01*
X-3340688Y-25049500D01*
X-3340691Y-25049500D01*
X-3459309Y-25049500D01*
X-3459312Y-25049500D01*
X-3573884Y-25080200D01*
X-3573887Y-25080201D01*
X-3676613Y-25139511D01*
X-3760488Y-25223386D01*
X-3819798Y-25326112D01*
X-3819799Y-25326115D01*
X-3850500Y-25440688D01*
X-3850500Y-25559311D01*
X-3835149Y-25616597D01*
X-3819799Y-25673886D01*
X-3760489Y-25776613D01*
X-3676613Y-25860489D01*
X-3573886Y-25919799D01*
X-3528885Y-25931857D01*
X-3459311Y-25950500D01*
X-3459309Y-25950500D01*
X-3340688Y-25950500D01*
X-3239501Y-25923386D01*
X-3226114Y-25919799D01*
X-3173499Y-25889421D01*
X-3136318Y-25884527D01*
X-3106565Y-25907357D01*
X-3100000Y-25931857D01*
X-3100000Y-27368142D01*
X-3114352Y-27402790D01*
X-3149000Y-27417142D01*
X-3173500Y-27410577D01*
X-3226111Y-27380201D01*
X-3226115Y-27380200D01*
X-3340688Y-27349500D01*
X-3340691Y-27349500D01*
X-3459309Y-27349500D01*
X-3459312Y-27349500D01*
X-3573884Y-27380200D01*
X-3573887Y-27380201D01*
X-3642471Y-27419799D01*
X-3676613Y-27439511D01*
X-3760489Y-27523387D01*
X-3775277Y-27549000D01*
X-3819798Y-27626112D01*
X-3819799Y-27626115D01*
X-3850500Y-27740688D01*
X-3850500Y-27859311D01*
X-3835149Y-27916597D01*
X-3819799Y-27973886D01*
X-3760489Y-28076613D01*
X-3676613Y-28160489D01*
X-3573886Y-28219799D01*
X-3516597Y-28235149D01*
X-3459311Y-28250500D01*
X-3459309Y-28250500D01*
X-3340688Y-28250500D01*
X-3254758Y-28227474D01*
X-3226114Y-28219799D01*
X-3123387Y-28160489D01*
X-3039511Y-28076613D01*
X-2980201Y-27973887D01*
X-2980200Y-27973884D01*
X-2949500Y-27859311D01*
X-2949500Y-27740688D01*
X-2949499Y-27740688D01*
X-2980200Y-27626115D01*
X-2980201Y-27626112D01*
X-3010578Y-27573500D01*
X-3015473Y-27536318D01*
X-2992643Y-27506565D01*
X-2968143Y-27500000D01*
X-831857Y-27500000D01*
X-797209Y-27514352D01*
X-782857Y-27549000D01*
X-789422Y-27573500D01*
X-819798Y-27626112D01*
X-819799Y-27626115D01*
X-850500Y-27740688D01*
X-850500Y-27859311D01*
X-835149Y-27916597D01*
X-819799Y-27973886D01*
X-760489Y-28076613D01*
X-676613Y-28160489D01*
X-573886Y-28219799D01*
X-516597Y-28235149D01*
X-459311Y-28250500D01*
X-459309Y-28250500D01*
X-340688Y-28250500D01*
X-254758Y-28227474D01*
X-226114Y-28219799D01*
X-123387Y-28160489D01*
X-83648Y-28120750D01*
X-49000Y-28106398D01*
X-14352Y-28120750D01*
X0Y-28155398D01*
X0Y-31351000D01*
X-14352Y-31385648D01*
X-49000Y-31400000D01*
X-3400000Y-31400000D01*
X-3400000Y-38300000D01*
X3400000Y-38300000D01*
X3400000Y-37225429D01*
X6549500Y-37225429D01*
X6549500Y-37344052D01*
X6580200Y-37458625D01*
X6580201Y-37458628D01*
X6616166Y-37520920D01*
X6639511Y-37561354D01*
X6723387Y-37645230D01*
X6826114Y-37704540D01*
X6854758Y-37712215D01*
X6940688Y-37735241D01*
X6940691Y-37735241D01*
X7059311Y-37735241D01*
X7116597Y-37719890D01*
X7173886Y-37704540D01*
X7276613Y-37645230D01*
X7360489Y-37561354D01*
X7419799Y-37458627D01*
X7435149Y-37401338D01*
X7450500Y-37344052D01*
X7450500Y-37225429D01*
X7419799Y-37110856D01*
X7419798Y-37110853D01*
X7400566Y-37077542D01*
X7360489Y-37008128D01*
X7276613Y-36924252D01*
X7195729Y-36877553D01*
X7173887Y-36864942D01*
X7173884Y-36864941D01*
X7059312Y-36834241D01*
X7059309Y-36834241D01*
X6940691Y-36834241D01*
X6940688Y-36834241D01*
X6826115Y-36864941D01*
X6826112Y-36864942D01*
X6723386Y-36924252D01*
X6723386Y-36924253D01*
X6639512Y-37008127D01*
X6639511Y-37008127D01*
X6580201Y-37110853D01*
X6580200Y-37110856D01*
X6549500Y-37225429D01*
X3400000Y-37225429D01*
X3400000Y-36786545D01*
X9803200Y-36786545D01*
X9803200Y-36933455D01*
X9818053Y-37008127D01*
X9831860Y-37077542D01*
X9831860Y-37077543D01*
X9853834Y-37130593D01*
X9888080Y-37213269D01*
X9920991Y-37262525D01*
X9969696Y-37335417D01*
X10073582Y-37439303D01*
X10122176Y-37471772D01*
X10195731Y-37520920D01*
X10331458Y-37577140D01*
X10475545Y-37605800D01*
X10475548Y-37605800D01*
X10622452Y-37605800D01*
X10622455Y-37605800D01*
X10766542Y-37577140D01*
X10902269Y-37520920D01*
X11024420Y-37439301D01*
X11128301Y-37335420D01*
X11209920Y-37213269D01*
X11266140Y-37077542D01*
X11294800Y-36933455D01*
X11294800Y-36786545D01*
X11835200Y-36786545D01*
X11835200Y-36933455D01*
X11850053Y-37008127D01*
X11863860Y-37077542D01*
X11863860Y-37077543D01*
X11885834Y-37130593D01*
X11920080Y-37213269D01*
X11952991Y-37262525D01*
X12001696Y-37335417D01*
X12105582Y-37439303D01*
X12154176Y-37471772D01*
X12227731Y-37520920D01*
X12363458Y-37577140D01*
X12507545Y-37605800D01*
X12507548Y-37605800D01*
X12654452Y-37605800D01*
X12654455Y-37605800D01*
X12798542Y-37577140D01*
X12934269Y-37520920D01*
X13056420Y-37439301D01*
X13160301Y-37335420D01*
X13241920Y-37213269D01*
X13298140Y-37077542D01*
X13326800Y-36933455D01*
X13326800Y-36786545D01*
X13298140Y-36642458D01*
X13241920Y-36506731D01*
X13181298Y-36416004D01*
X13160303Y-36384582D01*
X13056417Y-36280696D01*
X12983525Y-36231991D01*
X12934269Y-36199080D01*
X12934266Y-36199078D01*
X12934265Y-36199078D01*
X12798542Y-36142860D01*
X12787622Y-36140688D01*
X12654455Y-36114200D01*
X12507545Y-36114200D01*
X12399479Y-36135695D01*
X12363457Y-36142860D01*
X12363456Y-36142860D01*
X12227734Y-36199078D01*
X12105582Y-36280696D01*
X12001696Y-36384582D01*
X11920078Y-36506734D01*
X11863860Y-36642456D01*
X11863860Y-36642457D01*
X11859135Y-36666211D01*
X11835200Y-36786545D01*
X11294800Y-36786545D01*
X11266140Y-36642458D01*
X11209920Y-36506731D01*
X11149298Y-36416004D01*
X11128303Y-36384582D01*
X11024417Y-36280696D01*
X10951525Y-36231991D01*
X10902269Y-36199080D01*
X10902266Y-36199078D01*
X10902265Y-36199078D01*
X10766542Y-36142860D01*
X10755622Y-36140688D01*
X10622455Y-36114200D01*
X10475545Y-36114200D01*
X10367479Y-36135695D01*
X10331457Y-36142860D01*
X10331456Y-36142860D01*
X10195734Y-36199078D01*
X10073582Y-36280696D01*
X9969696Y-36384582D01*
X9888078Y-36506734D01*
X9831860Y-36642456D01*
X9831860Y-36642457D01*
X9827135Y-36666211D01*
X9803200Y-36786545D01*
X3400000Y-36786545D01*
X3400000Y-35140688D01*
X5349500Y-35140688D01*
X5349500Y-35259311D01*
X5380200Y-35373884D01*
X5380201Y-35373887D01*
X5393549Y-35397006D01*
X5439511Y-35476613D01*
X5523387Y-35560489D01*
X5626114Y-35619799D01*
X5654758Y-35627474D01*
X5740688Y-35650500D01*
X5740691Y-35650500D01*
X5859311Y-35650500D01*
X5916597Y-35635149D01*
X5973886Y-35619799D01*
X6076613Y-35560489D01*
X6127648Y-35509454D01*
X21449500Y-35509454D01*
X21449500Y-35690545D01*
X21477828Y-35869406D01*
X21477829Y-35869409D01*
X21528744Y-36026114D01*
X21533789Y-36041639D01*
X21616004Y-36202994D01*
X21670374Y-36277828D01*
X21722448Y-36349502D01*
X21722452Y-36349507D01*
X21850493Y-36477548D01*
X21850497Y-36477551D01*
X21850499Y-36477553D01*
X21997006Y-36583996D01*
X22158361Y-36666211D01*
X22330591Y-36722171D01*
X22509454Y-36750500D01*
X22509455Y-36750500D01*
X22690545Y-36750500D01*
X22690546Y-36750500D01*
X22869409Y-36722171D01*
X23041639Y-36666211D01*
X23202994Y-36583996D01*
X23349501Y-36477553D01*
X23349504Y-36477549D01*
X23349507Y-36477548D01*
X23477548Y-36349507D01*
X23477549Y-36349504D01*
X23477553Y-36349501D01*
X23583996Y-36202994D01*
X23666211Y-36041639D01*
X23722171Y-35869409D01*
X23750500Y-35690546D01*
X23750500Y-35509454D01*
X23722171Y-35330591D01*
X23666211Y-35158361D01*
X23583996Y-34997006D01*
X23477553Y-34850499D01*
X23477551Y-34850497D01*
X23477548Y-34850493D01*
X23349507Y-34722452D01*
X23349502Y-34722448D01*
X23287709Y-34677553D01*
X23202994Y-34616004D01*
X23041639Y-34533789D01*
X23041638Y-34533788D01*
X23041637Y-34533788D01*
X22869409Y-34477829D01*
X22869406Y-34477828D01*
X22732007Y-34456066D01*
X22690546Y-34449500D01*
X22509454Y-34449500D01*
X22475794Y-34454831D01*
X22330593Y-34477828D01*
X22330590Y-34477829D01*
X22158362Y-34533788D01*
X21997006Y-34616004D01*
X21850497Y-34722448D01*
X21722448Y-34850497D01*
X21616004Y-34997006D01*
X21533788Y-35158362D01*
X21477829Y-35330590D01*
X21477828Y-35330593D01*
X21449500Y-35509454D01*
X6127648Y-35509454D01*
X6160489Y-35476613D01*
X6219799Y-35373886D01*
X6235149Y-35316597D01*
X6250500Y-35259311D01*
X6250500Y-35140688D01*
X6219799Y-35026115D01*
X6219798Y-35026112D01*
X6176143Y-34950500D01*
X6160489Y-34923387D01*
X6076613Y-34839511D01*
X5973887Y-34780201D01*
X5973884Y-34780200D01*
X5859312Y-34749500D01*
X5859309Y-34749500D01*
X5740691Y-34749500D01*
X5740688Y-34749500D01*
X5626115Y-34780200D01*
X5626112Y-34780201D01*
X5523386Y-34839511D01*
X5523386Y-34839512D01*
X5439512Y-34923386D01*
X5439511Y-34923386D01*
X5380201Y-35026112D01*
X5380200Y-35026115D01*
X5349500Y-35140688D01*
X3400000Y-35140688D01*
X3400000Y-32280688D01*
X16049500Y-32280688D01*
X16049500Y-32399311D01*
X16080200Y-32513884D01*
X16080201Y-32513887D01*
X16139511Y-32616613D01*
X16223387Y-32700489D01*
X16326114Y-32759799D01*
X16354758Y-32767474D01*
X16440688Y-32790500D01*
X16440691Y-32790500D01*
X16559311Y-32790500D01*
X16616597Y-32775149D01*
X16673886Y-32759799D01*
X16776613Y-32700489D01*
X16860489Y-32616613D01*
X16919799Y-32513886D01*
X16935149Y-32456597D01*
X16950500Y-32399311D01*
X16950500Y-32280688D01*
X16919799Y-32166115D01*
X16919798Y-32166112D01*
X16860488Y-32063386D01*
X16776613Y-31979511D01*
X16741874Y-31959454D01*
X21449500Y-31959454D01*
X21449500Y-32140545D01*
X21477828Y-32319406D01*
X21477829Y-32319409D01*
X21533433Y-32490545D01*
X21533789Y-32491639D01*
X21616004Y-32652994D01*
X21722447Y-32799501D01*
X21722448Y-32799502D01*
X21722452Y-32799507D01*
X21850493Y-32927548D01*
X21850497Y-32927551D01*
X21850499Y-32927553D01*
X21997006Y-33033996D01*
X22158361Y-33116211D01*
X22330591Y-33172171D01*
X22509454Y-33200500D01*
X22509455Y-33200500D01*
X22690545Y-33200500D01*
X22690546Y-33200500D01*
X22869409Y-33172171D01*
X23041639Y-33116211D01*
X23202994Y-33033996D01*
X23349501Y-32927553D01*
X23349504Y-32927549D01*
X23349507Y-32927548D01*
X23477548Y-32799507D01*
X23477549Y-32799504D01*
X23477553Y-32799501D01*
X23583996Y-32652994D01*
X23666211Y-32491639D01*
X23722171Y-32319409D01*
X23750500Y-32140546D01*
X23750500Y-31959454D01*
X23722171Y-31780591D01*
X23666211Y-31608361D01*
X23583996Y-31447006D01*
X23477553Y-31300499D01*
X23477551Y-31300497D01*
X23477548Y-31300493D01*
X23349507Y-31172452D01*
X23349502Y-31172448D01*
X23349501Y-31172447D01*
X23202994Y-31066004D01*
X23041639Y-30983789D01*
X23041638Y-30983788D01*
X23041637Y-30983788D01*
X22869409Y-30927829D01*
X22869406Y-30927828D01*
X22732007Y-30906066D01*
X22690546Y-30899500D01*
X22509454Y-30899500D01*
X22475794Y-30904831D01*
X22330593Y-30927828D01*
X22330590Y-30927829D01*
X22158362Y-30983788D01*
X21997006Y-31066004D01*
X21850497Y-31172448D01*
X21722448Y-31300497D01*
X21616004Y-31447006D01*
X21533788Y-31608362D01*
X21477829Y-31780590D01*
X21477828Y-31780593D01*
X21449500Y-31959454D01*
X16741874Y-31959454D01*
X16673887Y-31920201D01*
X16673884Y-31920200D01*
X16559312Y-31889500D01*
X16559309Y-31889500D01*
X16440691Y-31889500D01*
X16440688Y-31889500D01*
X16326115Y-31920200D01*
X16326112Y-31920201D01*
X16223386Y-31979511D01*
X16223386Y-31979512D01*
X16139512Y-32063386D01*
X16139511Y-32063386D01*
X16080201Y-32166112D01*
X16080200Y-32166115D01*
X16049500Y-32280688D01*
X3400000Y-32280688D01*
X3400000Y-31400000D01*
X1049000Y-31400000D01*
X1014352Y-31385648D01*
X1000000Y-31351000D01*
X1000000Y-30940688D01*
X15649500Y-30940688D01*
X15649500Y-31059311D01*
X15680200Y-31173884D01*
X15680201Y-31173887D01*
X15723857Y-31249500D01*
X15739511Y-31276613D01*
X15823387Y-31360489D01*
X15926114Y-31419799D01*
X15954758Y-31427474D01*
X16040688Y-31450500D01*
X16040691Y-31450500D01*
X16159311Y-31450500D01*
X16216597Y-31435149D01*
X16273886Y-31419799D01*
X16376613Y-31360489D01*
X16460489Y-31276613D01*
X16519799Y-31173886D01*
X16535149Y-31116597D01*
X16550500Y-31059311D01*
X16550500Y-30940688D01*
X16519799Y-30826115D01*
X16519798Y-30826112D01*
X16460488Y-30723386D01*
X16376613Y-30639511D01*
X16273887Y-30580201D01*
X16273884Y-30580200D01*
X16159312Y-30549500D01*
X16159309Y-30549500D01*
X16040691Y-30549500D01*
X16040688Y-30549500D01*
X15926115Y-30580200D01*
X15926112Y-30580201D01*
X15823386Y-30639511D01*
X15823386Y-30639512D01*
X15739512Y-30723386D01*
X15739511Y-30723386D01*
X15680201Y-30826112D01*
X15680200Y-30826115D01*
X15649500Y-30940688D01*
X1000000Y-30940688D01*
X1000000Y-29940688D01*
X6949500Y-29940688D01*
X6949500Y-30059311D01*
X6980200Y-30173884D01*
X6980201Y-30173887D01*
X7039511Y-30276613D01*
X7123387Y-30360489D01*
X7226114Y-30419799D01*
X7254758Y-30427474D01*
X7340688Y-30450500D01*
X7340691Y-30450500D01*
X7459311Y-30450500D01*
X7516597Y-30435149D01*
X7573886Y-30419799D01*
X7676613Y-30360489D01*
X7760489Y-30276613D01*
X7819799Y-30173886D01*
X7835149Y-30116597D01*
X7850500Y-30059311D01*
X7850500Y-29940688D01*
X7819799Y-29826115D01*
X7819798Y-29826112D01*
X7760488Y-29723386D01*
X7676613Y-29639511D01*
X7573887Y-29580201D01*
X7573884Y-29580200D01*
X7459312Y-29549500D01*
X7459309Y-29549500D01*
X7340691Y-29549500D01*
X7340688Y-29549500D01*
X7226115Y-29580200D01*
X7226112Y-29580201D01*
X7123386Y-29639511D01*
X7123386Y-29639512D01*
X7039512Y-29723386D01*
X7039511Y-29723386D01*
X6980201Y-29826112D01*
X6980200Y-29826115D01*
X6949500Y-29940688D01*
X1000000Y-29940688D01*
X1000000Y-28940688D01*
X13449500Y-28940688D01*
X13449500Y-29059311D01*
X13480200Y-29173884D01*
X13480201Y-29173887D01*
X13539511Y-29276613D01*
X13623387Y-29360489D01*
X13726114Y-29419799D01*
X13754758Y-29427474D01*
X13840688Y-29450500D01*
X13840691Y-29450500D01*
X13959311Y-29450500D01*
X14016597Y-29435149D01*
X14073886Y-29419799D01*
X14176613Y-29360489D01*
X14260489Y-29276613D01*
X14319799Y-29173886D01*
X14335149Y-29116597D01*
X14350500Y-29059311D01*
X14350500Y-28940688D01*
X14319799Y-28826115D01*
X14319798Y-28826112D01*
X14260488Y-28723386D01*
X14176613Y-28639511D01*
X14073887Y-28580201D01*
X14073884Y-28580200D01*
X13959312Y-28549500D01*
X13959309Y-28549500D01*
X13840691Y-28549500D01*
X13840688Y-28549500D01*
X13726115Y-28580200D01*
X13726112Y-28580201D01*
X13623386Y-28639511D01*
X13623386Y-28639512D01*
X13539512Y-28723386D01*
X13539511Y-28723386D01*
X13480201Y-28826112D01*
X13480200Y-28826115D01*
X13449500Y-28940688D01*
X1000000Y-28940688D01*
X1000000Y-28155398D01*
X1014352Y-28120750D01*
X1049000Y-28106398D01*
X1083648Y-28120750D01*
X1123387Y-28160489D01*
X1226114Y-28219799D01*
X1254758Y-28227474D01*
X1340688Y-28250500D01*
X1340691Y-28250500D01*
X1459311Y-28250500D01*
X1516597Y-28235149D01*
X1573886Y-28219799D01*
X1676613Y-28160489D01*
X1760489Y-28076613D01*
X1819799Y-27973886D01*
X1835149Y-27916597D01*
X1850500Y-27859311D01*
X1850500Y-27740688D01*
X1819799Y-27626115D01*
X1819798Y-27626112D01*
X1789422Y-27573500D01*
X1784527Y-27536318D01*
X1807357Y-27506565D01*
X1831857Y-27500000D01*
X4168143Y-27500000D01*
X4202791Y-27514352D01*
X4217143Y-27549000D01*
X4210578Y-27573500D01*
X4180201Y-27626112D01*
X4180200Y-27626115D01*
X4149500Y-27740688D01*
X4149500Y-27859311D01*
X4180200Y-27973884D01*
X4180201Y-27973887D01*
X4239511Y-28076613D01*
X4323387Y-28160489D01*
X4426114Y-28219799D01*
X4454758Y-28227474D01*
X4540688Y-28250500D01*
X4540691Y-28250500D01*
X4659311Y-28250500D01*
X4716597Y-28235149D01*
X4773886Y-28219799D01*
X4876613Y-28160489D01*
X4960489Y-28076613D01*
X5019799Y-27973886D01*
X5035149Y-27916597D01*
X5050500Y-27859311D01*
X5050500Y-27740688D01*
X5019799Y-27626115D01*
X5019798Y-27626112D01*
X4975277Y-27549000D01*
X4960489Y-27523387D01*
X4876613Y-27439511D01*
X4842471Y-27419799D01*
X4773887Y-27380201D01*
X4773884Y-27380200D01*
X4659312Y-27349500D01*
X4659309Y-27349500D01*
X4540691Y-27349500D01*
X4540688Y-27349500D01*
X4426115Y-27380200D01*
X4426111Y-27380201D01*
X4373500Y-27410577D01*
X4336318Y-27415472D01*
X4306565Y-27392642D01*
X4300000Y-27368142D01*
X4300000Y-26940688D01*
X10549500Y-26940688D01*
X10549500Y-27059311D01*
X10580200Y-27173884D01*
X10580201Y-27173887D01*
X10630201Y-27260488D01*
X10639511Y-27276613D01*
X10723387Y-27360489D01*
X10826114Y-27419799D01*
X10854758Y-27427474D01*
X10940688Y-27450500D01*
X10940691Y-27450500D01*
X11059311Y-27450500D01*
X11116597Y-27435149D01*
X11173886Y-27419799D01*
X11276613Y-27360489D01*
X11360489Y-27276613D01*
X11419799Y-27173886D01*
X11446595Y-27073884D01*
X11450500Y-27059311D01*
X11450500Y-26940688D01*
X11419799Y-26826115D01*
X11419798Y-26826112D01*
X11360488Y-26723386D01*
X11276613Y-26639511D01*
X11173887Y-26580201D01*
X11173884Y-26580200D01*
X11059312Y-26549500D01*
X11059309Y-26549500D01*
X10940691Y-26549500D01*
X10940688Y-26549500D01*
X10826115Y-26580200D01*
X10826112Y-26580201D01*
X10723386Y-26639511D01*
X10723386Y-26639512D01*
X10639512Y-26723386D01*
X10639511Y-26723386D01*
X10580201Y-26826112D01*
X10580200Y-26826115D01*
X10549500Y-26940688D01*
X4300000Y-26940688D01*
X4300000Y-26140688D01*
X14149500Y-26140688D01*
X14149500Y-26259311D01*
X14180200Y-26373884D01*
X14180201Y-26373887D01*
X14223857Y-26449500D01*
X14239511Y-26476613D01*
X14323387Y-26560489D01*
X14426114Y-26619799D01*
X14439501Y-26623386D01*
X14540688Y-26650500D01*
X14540691Y-26650500D01*
X14659311Y-26650500D01*
X14716597Y-26635149D01*
X14773886Y-26619799D01*
X14876613Y-26560489D01*
X14960489Y-26476613D01*
X15019799Y-26373886D01*
X15035149Y-26316597D01*
X15050500Y-26259311D01*
X15050500Y-26140688D01*
X15019799Y-26026115D01*
X15019798Y-26026112D01*
X14960488Y-25923386D01*
X14876613Y-25839511D01*
X14773887Y-25780201D01*
X14773884Y-25780200D01*
X14659312Y-25749500D01*
X14659309Y-25749500D01*
X14540691Y-25749500D01*
X14540688Y-25749500D01*
X14426115Y-25780200D01*
X14426112Y-25780201D01*
X14323386Y-25839511D01*
X14323386Y-25839512D01*
X14239512Y-25923386D01*
X14239511Y-25923386D01*
X14180201Y-26026112D01*
X14180200Y-26026115D01*
X14149500Y-26140688D01*
X4300000Y-26140688D01*
X4300000Y-25931857D01*
X4314352Y-25897209D01*
X4349000Y-25882857D01*
X4373499Y-25889421D01*
X4426114Y-25919799D01*
X4439501Y-25923386D01*
X4540688Y-25950500D01*
X4540691Y-25950500D01*
X4659311Y-25950500D01*
X4728885Y-25931857D01*
X4773886Y-25919799D01*
X4876613Y-25860489D01*
X4960489Y-25776613D01*
X5019799Y-25673886D01*
X5035149Y-25616597D01*
X5050500Y-25559311D01*
X5050500Y-25440688D01*
X5019799Y-25326115D01*
X5019798Y-25326112D01*
X4960488Y-25223386D01*
X4876613Y-25139511D01*
X4773887Y-25080201D01*
X4773884Y-25080200D01*
X4659312Y-25049500D01*
X4659309Y-25049500D01*
X4540691Y-25049500D01*
X4540688Y-25049500D01*
X4426115Y-25080200D01*
X4426111Y-25080201D01*
X4373500Y-25110577D01*
X4336318Y-25115472D01*
X4306565Y-25092642D01*
X4300000Y-25068142D01*
X4300000Y-23431857D01*
X4314352Y-23397209D01*
X4349000Y-23382857D01*
X4373499Y-23389421D01*
X4426114Y-23419799D01*
X4454758Y-23427474D01*
X4540688Y-23450500D01*
X4540691Y-23450500D01*
X4659311Y-23450500D01*
X4728885Y-23431857D01*
X4773886Y-23419799D01*
X4876613Y-23360489D01*
X4960489Y-23276613D01*
X5019799Y-23173886D01*
X5035149Y-23116597D01*
X5050500Y-23059311D01*
X5050500Y-22940688D01*
X5019799Y-22826115D01*
X5019798Y-22826112D01*
X4960488Y-22723386D01*
X4876613Y-22639511D01*
X4773887Y-22580201D01*
X4773884Y-22580200D01*
X4659312Y-22549500D01*
X4659309Y-22549500D01*
X4540691Y-22549500D01*
X4540688Y-22549500D01*
X4426115Y-22580200D01*
X4426111Y-22580201D01*
X4373500Y-22610577D01*
X4336318Y-22615472D01*
X4306565Y-22592642D01*
X4300000Y-22568142D01*
X4300000Y-21540688D01*
X15149500Y-21540688D01*
X15149500Y-21659311D01*
X15180200Y-21773884D01*
X15180201Y-21773887D01*
X15239511Y-21876613D01*
X15323387Y-21960489D01*
X15426114Y-22019799D01*
X15454758Y-22027474D01*
X15540688Y-22050500D01*
X15540691Y-22050500D01*
X15659311Y-22050500D01*
X15716597Y-22035149D01*
X15773886Y-22019799D01*
X15876613Y-21960489D01*
X15960489Y-21876613D01*
X16019799Y-21773886D01*
X16050184Y-21660489D01*
X16050500Y-21659311D01*
X16050500Y-21540688D01*
X16019799Y-21426115D01*
X16019798Y-21426112D01*
X15998615Y-21389422D01*
X15960489Y-21323387D01*
X15876613Y-21239511D01*
X15773887Y-21180201D01*
X15773884Y-21180200D01*
X15659312Y-21149500D01*
X15659309Y-21149500D01*
X15540691Y-21149500D01*
X15540688Y-21149500D01*
X15426115Y-21180200D01*
X15426112Y-21180201D01*
X15323386Y-21239511D01*
X15323386Y-21239512D01*
X15239512Y-21323386D01*
X15239511Y-21323386D01*
X15180201Y-21426112D01*
X15180200Y-21426115D01*
X15149500Y-21540688D01*
X4300000Y-21540688D01*
X4300000Y-21431857D01*
X4314352Y-21397209D01*
X4349000Y-21382857D01*
X4373499Y-21389421D01*
X4426114Y-21419799D01*
X4454758Y-21427474D01*
X4540688Y-21450500D01*
X4540691Y-21450500D01*
X4659311Y-21450500D01*
X4728885Y-21431857D01*
X4773886Y-21419799D01*
X4876613Y-21360489D01*
X4960489Y-21276613D01*
X5019799Y-21173886D01*
X5035149Y-21116597D01*
X5050500Y-21059311D01*
X5050500Y-20940688D01*
X5019799Y-20826115D01*
X5019798Y-20826112D01*
X4960488Y-20723386D01*
X4876613Y-20639511D01*
X4773887Y-20580201D01*
X4773884Y-20580200D01*
X4659312Y-20549500D01*
X4659309Y-20549500D01*
X4540691Y-20549500D01*
X4540688Y-20549500D01*
X4426115Y-20580200D01*
X4426112Y-20580201D01*
X4323386Y-20639511D01*
X4323386Y-20639512D01*
X4239512Y-20723386D01*
X4239511Y-20723386D01*
X4180201Y-20826112D01*
X4180200Y-20826115D01*
X4149500Y-20940688D01*
X4149500Y-21059311D01*
X4180200Y-21173884D01*
X4180201Y-21173887D01*
X4210578Y-21226500D01*
X4215473Y-21263682D01*
X4192643Y-21293435D01*
X4168143Y-21300000D01*
X2431857Y-21300000D01*
X2397209Y-21285648D01*
X2382857Y-21251000D01*
X2389422Y-21226500D01*
X2416153Y-21180201D01*
X2419799Y-21173886D01*
X2435149Y-21116597D01*
X2450500Y-21059311D01*
X2450500Y-20940688D01*
X2419799Y-20826115D01*
X2419798Y-20826112D01*
X2360488Y-20723386D01*
X2276613Y-20639511D01*
X2173887Y-20580201D01*
X2173884Y-20580200D01*
X2059312Y-20549500D01*
X2059309Y-20549500D01*
X1940691Y-20549500D01*
X1940688Y-20549500D01*
X1826115Y-20580200D01*
X1826112Y-20580201D01*
X1723386Y-20639511D01*
X1723386Y-20639512D01*
X1639512Y-20723386D01*
X1639511Y-20723386D01*
X1580201Y-20826112D01*
X1580200Y-20826115D01*
X1549500Y-20940688D01*
X1549500Y-21059311D01*
X1580200Y-21173884D01*
X1580201Y-21173887D01*
X1610578Y-21226500D01*
X1615473Y-21263682D01*
X1592643Y-21293435D01*
X1568143Y-21300000D01*
X-568143Y-21300000D01*
X-602791Y-21285648D01*
X-617143Y-21251000D01*
X-610578Y-21226500D01*
X-580201Y-21173887D01*
X-580200Y-21173884D01*
X-549500Y-21059311D01*
X-549500Y-20940688D01*
X-549499Y-20940688D01*
X-580200Y-20826115D01*
X-580201Y-20826112D01*
X-639511Y-20723386D01*
X-723386Y-20639512D01*
X-723386Y-20639511D01*
X-826112Y-20580201D01*
X-826115Y-20580200D01*
X-940688Y-20549500D01*
X-940691Y-20549500D01*
X-1059309Y-20549500D01*
X-1059312Y-20549500D01*
X-1173884Y-20580200D01*
X-1173887Y-20580201D01*
X-1276613Y-20639511D01*
X-1360488Y-20723386D01*
X-1419798Y-20826112D01*
X-1419799Y-20826115D01*
X-1450500Y-20940688D01*
X-1450500Y-21059311D01*
X-1435149Y-21116597D01*
X-1419799Y-21173886D01*
X-1416153Y-21180201D01*
X-1389422Y-21226500D01*
X-1384527Y-21263682D01*
X-1407357Y-21293435D01*
X-1431857Y-21300000D01*
X-2968143Y-21300000D01*
X-3002791Y-21285648D01*
X-3017143Y-21251000D01*
X-3010578Y-21226500D01*
X-2980201Y-21173887D01*
X-2980200Y-21173884D01*
X-2949500Y-21059311D01*
X-2949500Y-20940688D01*
X-2949499Y-20940688D01*
X-2980200Y-20826115D01*
X-2980201Y-20826112D01*
X-3039511Y-20723386D01*
X-3123386Y-20639512D01*
X-3123386Y-20639511D01*
X-3226112Y-20580201D01*
X-3226115Y-20580200D01*
X-3340688Y-20549500D01*
X-3340691Y-20549500D01*
X-3459309Y-20549500D01*
X-3459312Y-20549500D01*
X-3573884Y-20580200D01*
X-3573887Y-20580201D01*
X-3676613Y-20639511D01*
X-3760488Y-20723386D01*
X-3819798Y-20826112D01*
X-3819799Y-20826115D01*
X-3850500Y-20940688D01*
X-19699500Y-20940688D01*
X-19699500Y-20340688D01*
X-7050500Y-20340688D01*
X-7050500Y-20459311D01*
X-7046595Y-20473884D01*
X-7019799Y-20573886D01*
X-6960489Y-20676613D01*
X-6876613Y-20760489D01*
X-6773886Y-20819799D01*
X-6720738Y-20834040D01*
X-6659311Y-20850500D01*
X-6659309Y-20850500D01*
X-6540688Y-20850500D01*
X-6454758Y-20827474D01*
X-6426114Y-20819799D01*
X-6323387Y-20760489D01*
X-6239511Y-20676613D01*
X-6230201Y-20660488D01*
X-6180201Y-20573887D01*
X-6180200Y-20573884D01*
X-6149500Y-20459311D01*
X-6149500Y-20340687D01*
X-6173757Y-20250161D01*
X-6176295Y-20240688D01*
X22749500Y-20240688D01*
X22749500Y-20359311D01*
X22780200Y-20473884D01*
X22780201Y-20473887D01*
X22823857Y-20549500D01*
X22839511Y-20576613D01*
X22923387Y-20660489D01*
X22998585Y-20703905D01*
X23026112Y-20719798D01*
X23026114Y-20719799D01*
X23113182Y-20743129D01*
X23123329Y-20750915D01*
X23135148Y-20755811D01*
X23137681Y-20761928D01*
X23142935Y-20765959D01*
X23149500Y-20790459D01*
X23149500Y-20809540D01*
X23135148Y-20844188D01*
X23113183Y-20856870D01*
X23026113Y-20880201D01*
X23026112Y-20880201D01*
X22923386Y-20939511D01*
X22923386Y-20939512D01*
X22839512Y-21023386D01*
X22839511Y-21023386D01*
X22780201Y-21126112D01*
X22780200Y-21126115D01*
X22749500Y-21240688D01*
X22749500Y-21359311D01*
X22780200Y-21473884D01*
X22780201Y-21473887D01*
X22818771Y-21540691D01*
X22839511Y-21576613D01*
X22923387Y-21660489D01*
X22998585Y-21703905D01*
X23026112Y-21719798D01*
X23026114Y-21719799D01*
X23113182Y-21743129D01*
X23142935Y-21765959D01*
X23149500Y-21790459D01*
X23149500Y-21859311D01*
X23180200Y-21973884D01*
X23180201Y-21973887D01*
X23239511Y-22076613D01*
X23323387Y-22160489D01*
X23426114Y-22219799D01*
X23454758Y-22227474D01*
X23540688Y-22250500D01*
X23540691Y-22250500D01*
X23659311Y-22250500D01*
X23716597Y-22235149D01*
X23773886Y-22219799D01*
X23876613Y-22160489D01*
X23960489Y-22076613D01*
X24019799Y-21973886D01*
X24045863Y-21876614D01*
X24050500Y-21859311D01*
X24050500Y-21790459D01*
X24064852Y-21755811D01*
X24086818Y-21743129D01*
X24102495Y-21738928D01*
X24173886Y-21719799D01*
X24276613Y-21660489D01*
X24360489Y-21576613D01*
X24419799Y-21473886D01*
X24435149Y-21416597D01*
X24450500Y-21359311D01*
X24450500Y-21240688D01*
X24419799Y-21126115D01*
X24419798Y-21126112D01*
X24360488Y-21023386D01*
X24276613Y-20939511D01*
X24173887Y-20880201D01*
X24086817Y-20856870D01*
X24076667Y-20849082D01*
X24064852Y-20844188D01*
X24062318Y-20838071D01*
X24057064Y-20834040D01*
X24050500Y-20809540D01*
X24050500Y-20790459D01*
X24064852Y-20755811D01*
X24086818Y-20743129D01*
X24160495Y-20723387D01*
X24173886Y-20719799D01*
X24276613Y-20660489D01*
X24360489Y-20576613D01*
X24419799Y-20473886D01*
X24435149Y-20416597D01*
X24450500Y-20359311D01*
X24450500Y-20240688D01*
X24419799Y-20126115D01*
X24419798Y-20126112D01*
X24400000Y-20091821D01*
X24360489Y-20023387D01*
X24276613Y-19939511D01*
X24173887Y-19880201D01*
X24173884Y-19880200D01*
X24059312Y-19849500D01*
X24059309Y-19849500D01*
X23940691Y-19849500D01*
X23940688Y-19849500D01*
X23826115Y-19880200D01*
X23826112Y-19880201D01*
X23723386Y-19939511D01*
X23723386Y-19939512D01*
X23639510Y-20023387D01*
X23638870Y-20024222D01*
X23638411Y-20024486D01*
X23637240Y-20025658D01*
X23636926Y-20025344D01*
X23606389Y-20042969D01*
X23570165Y-20033257D01*
X23561130Y-20024222D01*
X23560489Y-20023387D01*
X23476613Y-19939511D01*
X23373887Y-19880201D01*
X23373884Y-19880200D01*
X23259312Y-19849500D01*
X23259309Y-19849500D01*
X23140691Y-19849500D01*
X23140688Y-19849500D01*
X23026115Y-19880200D01*
X23026112Y-19880201D01*
X22923386Y-19939511D01*
X22923386Y-19939512D01*
X22839512Y-20023386D01*
X22839511Y-20023386D01*
X22780201Y-20126112D01*
X22780200Y-20126115D01*
X22749500Y-20240688D01*
X-6176295Y-20240688D01*
X-6180201Y-20226113D01*
X-6180201Y-20226112D01*
X-6239511Y-20123386D01*
X-6323386Y-20039512D01*
X-6323386Y-20039511D01*
X-6426112Y-19980201D01*
X-6426115Y-19980200D01*
X-6540688Y-19949500D01*
X-6540691Y-19949500D01*
X-6659309Y-19949500D01*
X-6659312Y-19949500D01*
X-6773884Y-19980200D01*
X-6773887Y-19980201D01*
X-6876613Y-20039511D01*
X-6960488Y-20123386D01*
X-7019798Y-20226112D01*
X-7019799Y-20226115D01*
X-7050500Y-20340688D01*
X-19699500Y-20340688D01*
X-19699500Y-18340688D01*
X4549500Y-18340688D01*
X4549500Y-18459311D01*
X4580200Y-18573884D01*
X4580201Y-18573887D01*
X4639511Y-18676613D01*
X4723387Y-18760489D01*
X4826114Y-18819799D01*
X4854758Y-18827474D01*
X4940688Y-18850500D01*
X4940691Y-18850500D01*
X5059311Y-18850500D01*
X5116597Y-18835149D01*
X5173886Y-18819799D01*
X5276613Y-18760489D01*
X5360489Y-18676613D01*
X5419799Y-18573886D01*
X5435149Y-18516597D01*
X5450500Y-18459311D01*
X5450500Y-18340688D01*
X7549500Y-18340688D01*
X7549500Y-18459311D01*
X7580200Y-18573884D01*
X7580201Y-18573887D01*
X7639511Y-18676613D01*
X7723387Y-18760489D01*
X7826114Y-18819799D01*
X7854758Y-18827474D01*
X7940688Y-18850500D01*
X7940691Y-18850500D01*
X8059311Y-18850500D01*
X8116597Y-18835149D01*
X8173886Y-18819799D01*
X8276613Y-18760489D01*
X8360489Y-18676613D01*
X8419799Y-18573886D01*
X8435149Y-18516597D01*
X8450500Y-18459311D01*
X8450500Y-18340688D01*
X8419799Y-18226115D01*
X8419798Y-18226112D01*
X8360488Y-18123386D01*
X8276613Y-18039511D01*
X8173887Y-17980201D01*
X8173884Y-17980200D01*
X8059312Y-17949500D01*
X8059309Y-17949500D01*
X7940691Y-17949500D01*
X7940688Y-17949500D01*
X7826115Y-17980200D01*
X7826112Y-17980201D01*
X7723386Y-18039511D01*
X7723386Y-18039512D01*
X7639512Y-18123386D01*
X7639511Y-18123386D01*
X7580201Y-18226112D01*
X7580200Y-18226115D01*
X7549500Y-18340688D01*
X5450500Y-18340688D01*
X5419799Y-18226115D01*
X5419798Y-18226112D01*
X5360488Y-18123386D01*
X5276613Y-18039511D01*
X5173887Y-17980201D01*
X5173884Y-17980200D01*
X5059312Y-17949500D01*
X5059309Y-17949500D01*
X4940691Y-17949500D01*
X4940688Y-17949500D01*
X4826115Y-17980200D01*
X4826112Y-17980201D01*
X4723386Y-18039511D01*
X4723386Y-18039512D01*
X4639512Y-18123386D01*
X4639511Y-18123386D01*
X4580201Y-18226112D01*
X4580200Y-18226115D01*
X4549500Y-18340688D01*
X-19699500Y-18340688D01*
X-19699500Y-12221174D01*
X-13075500Y-12221174D01*
X-13075500Y-12478826D01*
X-13041869Y-12734273D01*
X-12975184Y-12983145D01*
X-12876585Y-13221184D01*
X-12747760Y-13444316D01*
X-12590912Y-13648725D01*
X-12408725Y-13830912D01*
X-12204316Y-13987760D01*
X-11981184Y-14116585D01*
X-11743145Y-14215184D01*
X-11494273Y-14281869D01*
X-11238826Y-14315500D01*
X-11238823Y-14315500D01*
X-10981177Y-14315500D01*
X-10981174Y-14315500D01*
X-10725727Y-14281869D01*
X-10725716Y-14281866D01*
X-10725715Y-14281866D01*
X-10476859Y-14215185D01*
X-10476858Y-14215185D01*
X-10476856Y-14215184D01*
X-10476855Y-14215184D01*
X-10238816Y-14116585D01*
X-10015684Y-13987760D01*
X-10015680Y-13987757D01*
X-10015671Y-13987751D01*
X-9811280Y-13830916D01*
X-9811268Y-13830906D01*
X-9629093Y-13648731D01*
X-9629083Y-13648719D01*
X-9472248Y-13444328D01*
X-9472238Y-13444313D01*
X-9367194Y-13262371D01*
X-9343415Y-13221184D01*
X-9244816Y-12983145D01*
X-9244814Y-12983141D01*
X-9244814Y-12983140D01*
X-9178133Y-12734284D01*
X-9178132Y-12734277D01*
X-9178131Y-12734273D01*
X-9144500Y-12478826D01*
X-9144500Y-12239778D01*
X-5600500Y-12239778D01*
X-5600500Y-12460222D01*
X-5566015Y-12677951D01*
X-5497895Y-12887606D01*
X-5397815Y-13084022D01*
X-5268242Y-13262365D01*
X-5268238Y-13262368D01*
X-5268237Y-13262371D01*
X-5112371Y-13418237D01*
X-5112368Y-13418238D01*
X-5112365Y-13418242D01*
X-4934022Y-13547815D01*
X-4737606Y-13647895D01*
X-4527951Y-13716015D01*
X-4310222Y-13750500D01*
X-4310221Y-13750500D01*
X-4089779Y-13750500D01*
X-4089778Y-13750500D01*
X-3872049Y-13716015D01*
X-3662394Y-13647895D01*
X-3465978Y-13547815D01*
X-3287635Y-13418242D01*
X-3287633Y-13418240D01*
X-3287629Y-13418237D01*
X-3131763Y-13262371D01*
X-3131759Y-13262366D01*
X-3101841Y-13221187D01*
X-3002185Y-13084022D01*
X-2902105Y-12887606D01*
X-2833985Y-12677951D01*
X-2833984Y-12677948D01*
X-2799500Y-12460221D01*
X-2799500Y-12239778D01*
X-1400500Y-12239778D01*
X-1400500Y-12460222D01*
X-1366015Y-12677951D01*
X-1297895Y-12887606D01*
X-1197815Y-13084022D01*
X-1068242Y-13262365D01*
X-1068238Y-13262368D01*
X-1068237Y-13262371D01*
X-912371Y-13418237D01*
X-912368Y-13418238D01*
X-912365Y-13418242D01*
X-734022Y-13547815D01*
X-537606Y-13647895D01*
X-327951Y-13716015D01*
X-110222Y-13750500D01*
X-110221Y-13750500D01*
X110221Y-13750500D01*
X110222Y-13750500D01*
X327951Y-13716015D01*
X537606Y-13647895D01*
X734022Y-13547815D01*
X912365Y-13418242D01*
X912368Y-13418238D01*
X912371Y-13418237D01*
X1068237Y-13262371D01*
X1068238Y-13262368D01*
X1068242Y-13262365D01*
X1197815Y-13084022D01*
X1297895Y-12887606D01*
X1366015Y-12677951D01*
X1400500Y-12460222D01*
X1400500Y-12239778D01*
X2799500Y-12239778D01*
X2799500Y-12460221D01*
X2833984Y-12677948D01*
X2833985Y-12677951D01*
X2902105Y-12887606D01*
X3002185Y-13084022D01*
X3101841Y-13221187D01*
X3131759Y-13262366D01*
X3131763Y-13262371D01*
X3287629Y-13418237D01*
X3287633Y-13418240D01*
X3287635Y-13418242D01*
X3465978Y-13547815D01*
X3662394Y-13647895D01*
X3872049Y-13716015D01*
X4089778Y-13750500D01*
X4089779Y-13750500D01*
X4310221Y-13750500D01*
X4310222Y-13750500D01*
X4527951Y-13716015D01*
X4737606Y-13647895D01*
X4934022Y-13547815D01*
X5112365Y-13418242D01*
X5112368Y-13418238D01*
X5112371Y-13418237D01*
X5268237Y-13262371D01*
X5268238Y-13262368D01*
X5268242Y-13262365D01*
X5397815Y-13084022D01*
X5497895Y-12887606D01*
X5566015Y-12677951D01*
X5600500Y-12460222D01*
X5600500Y-12239778D01*
X5597553Y-12221174D01*
X9144500Y-12221174D01*
X9144500Y-12478826D01*
X9178131Y-12734273D01*
X9178132Y-12734277D01*
X9178133Y-12734284D01*
X9244814Y-12983140D01*
X9244814Y-12983141D01*
X9244816Y-12983145D01*
X9343415Y-13221184D01*
X9367194Y-13262371D01*
X9472238Y-13444313D01*
X9472248Y-13444328D01*
X9629083Y-13648719D01*
X9629093Y-13648731D01*
X9811268Y-13830906D01*
X9811280Y-13830916D01*
X10015671Y-13987751D01*
X10015680Y-13987757D01*
X10015684Y-13987760D01*
X10238816Y-14116585D01*
X10476855Y-14215184D01*
X10476859Y-14215185D01*
X10725715Y-14281866D01*
X10725716Y-14281866D01*
X10725727Y-14281869D01*
X10981174Y-14315500D01*
X10981177Y-14315500D01*
X11238823Y-14315500D01*
X11238826Y-14315500D01*
X11494273Y-14281869D01*
X11743145Y-14215184D01*
X11981184Y-14116585D01*
X12204316Y-13987760D01*
X12408725Y-13830912D01*
X12590912Y-13648725D01*
X12747760Y-13444316D01*
X12876585Y-13221184D01*
X12975184Y-12983145D01*
X13041869Y-12734273D01*
X13075500Y-12478826D01*
X13075500Y-12221174D01*
X13041869Y-11965727D01*
X12975184Y-11716855D01*
X12876585Y-11478816D01*
X12747760Y-11255684D01*
X12747757Y-11255680D01*
X12747751Y-11255671D01*
X12590916Y-11051280D01*
X12590906Y-11051268D01*
X12408731Y-10869093D01*
X12408719Y-10869083D01*
X12204328Y-10712248D01*
X12204313Y-10712238D01*
X11981187Y-10583417D01*
X11981188Y-10583417D01*
X11981184Y-10583415D01*
X11743145Y-10484816D01*
X11743144Y-10484815D01*
X11743140Y-10484814D01*
X11494284Y-10418133D01*
X11494277Y-10418132D01*
X11494273Y-10418131D01*
X11238826Y-10384500D01*
X10981174Y-10384500D01*
X10725727Y-10418131D01*
X10725723Y-10418131D01*
X10725715Y-10418133D01*
X10476859Y-10484814D01*
X10476858Y-10484814D01*
X10313036Y-10552671D01*
X10238816Y-10583415D01*
X10238813Y-10583416D01*
X10238812Y-10583417D01*
X10015686Y-10712238D01*
X10015671Y-10712248D01*
X9811280Y-10869083D01*
X9811268Y-10869093D01*
X9629093Y-11051268D01*
X9629083Y-11051280D01*
X9472248Y-11255671D01*
X9472238Y-11255686D01*
X9343417Y-11478812D01*
X9244814Y-11716858D01*
X9244814Y-11716859D01*
X9178133Y-11965715D01*
X9178131Y-11965723D01*
X9178131Y-11965727D01*
X9144500Y-12221174D01*
X5597553Y-12221174D01*
X5566015Y-12022049D01*
X5497895Y-11812394D01*
X5397815Y-11615978D01*
X5268242Y-11437635D01*
X5268240Y-11437633D01*
X5268237Y-11437629D01*
X5112371Y-11281763D01*
X5112366Y-11281759D01*
X5112365Y-11281758D01*
X4934022Y-11152185D01*
X4737606Y-11052105D01*
X4737605Y-11052104D01*
X4737604Y-11052104D01*
X4527951Y-10983985D01*
X4527948Y-10983984D01*
X4360694Y-10957494D01*
X4310222Y-10949500D01*
X4089778Y-10949500D01*
X4048804Y-10955989D01*
X3872051Y-10983984D01*
X3872048Y-10983985D01*
X3662395Y-11052104D01*
X3465978Y-11152185D01*
X3287633Y-11281759D01*
X3131759Y-11437633D01*
X3002185Y-11615978D01*
X2902104Y-11812395D01*
X2833985Y-12022048D01*
X2833984Y-12022051D01*
X2799500Y-12239778D01*
X1400500Y-12239778D01*
X1366015Y-12022049D01*
X1297895Y-11812394D01*
X1197815Y-11615978D01*
X1068242Y-11437635D01*
X1068240Y-11437633D01*
X1068237Y-11437629D01*
X912371Y-11281763D01*
X912366Y-11281759D01*
X912365Y-11281758D01*
X734022Y-11152185D01*
X537606Y-11052105D01*
X537605Y-11052104D01*
X537604Y-11052104D01*
X327951Y-10983985D01*
X327948Y-10983984D01*
X160694Y-10957494D01*
X110222Y-10949500D01*
X-110222Y-10949500D01*
X-160694Y-10957494D01*
X-327948Y-10983984D01*
X-327951Y-10983985D01*
X-537604Y-11052104D01*
X-537605Y-11052104D01*
X-537606Y-11052105D01*
X-734022Y-11152185D01*
X-912365Y-11281758D01*
X-912366Y-11281759D01*
X-912371Y-11281763D01*
X-1068237Y-11437629D01*
X-1068240Y-11437633D01*
X-1068242Y-11437635D01*
X-1197815Y-11615978D01*
X-1297895Y-11812394D01*
X-1366015Y-12022049D01*
X-1400500Y-12239778D01*
X-2799500Y-12239778D01*
X-2833984Y-12022051D01*
X-2833985Y-12022048D01*
X-2902104Y-11812395D01*
X-3002185Y-11615978D01*
X-3131759Y-11437633D01*
X-3287633Y-11281759D01*
X-3465978Y-11152185D01*
X-3662395Y-11052104D01*
X-3872048Y-10983985D01*
X-3872051Y-10983984D01*
X-4048804Y-10955989D01*
X-4089778Y-10949500D01*
X-4310222Y-10949500D01*
X-4360694Y-10957494D01*
X-4527948Y-10983984D01*
X-4527951Y-10983985D01*
X-4737604Y-11052104D01*
X-4737605Y-11052104D01*
X-4737606Y-11052105D01*
X-4934022Y-11152185D01*
X-5112365Y-11281758D01*
X-5112366Y-11281759D01*
X-5112371Y-11281763D01*
X-5268237Y-11437629D01*
X-5268240Y-11437633D01*
X-5268242Y-11437635D01*
X-5397815Y-11615978D01*
X-5497895Y-11812394D01*
X-5566015Y-12022049D01*
X-5600500Y-12239778D01*
X-9144500Y-12239778D01*
X-9144500Y-12221174D01*
X-9178131Y-11965727D01*
X-9178131Y-11965723D01*
X-9178133Y-11965715D01*
X-9244814Y-11716859D01*
X-9244814Y-11716858D01*
X-9343417Y-11478812D01*
X-9472238Y-11255686D01*
X-9472248Y-11255671D01*
X-9629083Y-11051280D01*
X-9629093Y-11051268D01*
X-9811268Y-10869093D01*
X-9811280Y-10869083D01*
X-10015671Y-10712248D01*
X-10015686Y-10712238D01*
X-10238812Y-10583417D01*
X-10238813Y-10583416D01*
X-10238816Y-10583415D01*
X-10357835Y-10534115D01*
X-10476859Y-10484814D01*
X-10725715Y-10418133D01*
X-10725723Y-10418131D01*
X-10725727Y-10418131D01*
X-10981174Y-10384500D01*
X-11238826Y-10384500D01*
X-11494273Y-10418131D01*
X-11494277Y-10418132D01*
X-11494284Y-10418133D01*
X-11743140Y-10484814D01*
X-11743141Y-10484814D01*
X-11817365Y-10515559D01*
X-11981184Y-10583415D01*
X-11981187Y-10583417D01*
X-12204313Y-10712238D01*
X-12204328Y-10712248D01*
X-12408719Y-10869083D01*
X-12408731Y-10869093D01*
X-12590906Y-11051268D01*
X-12590916Y-11051280D01*
X-12747751Y-11255671D01*
X-12747757Y-11255680D01*
X-12747760Y-11255684D01*
X-12876585Y-11478816D01*
X-12975184Y-11716855D01*
X-13041869Y-11965727D01*
X-13075500Y-12221174D01*
X-19699500Y-12221174D01*
X-19699500Y-7940688D01*
X-5450500Y-7940688D01*
X-5450500Y-8059311D01*
X-5435149Y-8116597D01*
X-5419799Y-8173886D01*
X-5360489Y-8276613D01*
X-5276613Y-8360489D01*
X-5173886Y-8419799D01*
X-5116597Y-8435149D01*
X-5059311Y-8450500D01*
X-5059309Y-8450500D01*
X-4940688Y-8450500D01*
X-4854758Y-8427474D01*
X-4826114Y-8419799D01*
X-4723387Y-8360489D01*
X-4639511Y-8276613D01*
X-4580201Y-8173887D01*
X-4580200Y-8173884D01*
X-4549500Y-8059311D01*
X-4549500Y-7940688D01*
X-4549499Y-7940688D01*
X-3950500Y-7940688D01*
X-3950500Y-8059311D01*
X-3935149Y-8116597D01*
X-3919799Y-8173886D01*
X-3860489Y-8276613D01*
X-3776613Y-8360489D01*
X-3673886Y-8419799D01*
X-3616597Y-8435149D01*
X-3559311Y-8450500D01*
X-3559309Y-8450500D01*
X-3440688Y-8450500D01*
X-3354758Y-8427474D01*
X-3326114Y-8419799D01*
X-3223387Y-8360489D01*
X-3139511Y-8276613D01*
X-3080201Y-8173887D01*
X-3080200Y-8173884D01*
X-3049500Y-8059311D01*
X-3049500Y-7940688D01*
X-3049499Y-7940688D01*
X-950500Y-7940688D01*
X-950500Y-8059311D01*
X-935149Y-8116597D01*
X-919799Y-8173886D01*
X-860489Y-8276613D01*
X-776613Y-8360489D01*
X-673886Y-8419799D01*
X-616597Y-8435149D01*
X-559311Y-8450500D01*
X-559309Y-8450500D01*
X-440688Y-8450500D01*
X-354758Y-8427474D01*
X-326114Y-8419799D01*
X-223387Y-8360489D01*
X-139511Y-8276613D01*
X-80201Y-8173887D01*
X-80200Y-8173884D01*
X-49500Y-8059311D01*
X-49500Y-7940688D01*
X-49499Y-7940688D01*
X549500Y-7940688D01*
X549500Y-8059311D01*
X580200Y-8173884D01*
X580201Y-8173887D01*
X639511Y-8276613D01*
X723387Y-8360489D01*
X826114Y-8419799D01*
X854758Y-8427474D01*
X940688Y-8450500D01*
X940691Y-8450500D01*
X1059311Y-8450500D01*
X1116597Y-8435149D01*
X1173886Y-8419799D01*
X1276613Y-8360489D01*
X1360489Y-8276613D01*
X1419799Y-8173886D01*
X1435149Y-8116597D01*
X1450500Y-8059311D01*
X1450500Y-7940688D01*
X1419799Y-7826115D01*
X1419798Y-7826112D01*
X1360488Y-7723386D01*
X1276613Y-7639511D01*
X1173887Y-7580201D01*
X1173884Y-7580200D01*
X1059312Y-7549500D01*
X1059309Y-7549500D01*
X940691Y-7549500D01*
X940688Y-7549500D01*
X826115Y-7580200D01*
X826112Y-7580201D01*
X723386Y-7639511D01*
X723386Y-7639512D01*
X639512Y-7723386D01*
X639511Y-7723386D01*
X580201Y-7826112D01*
X580200Y-7826115D01*
X549500Y-7940688D01*
X-49499Y-7940688D01*
X-80200Y-7826115D01*
X-80201Y-7826112D01*
X-139511Y-7723386D01*
X-223386Y-7639512D01*
X-223386Y-7639511D01*
X-326112Y-7580201D01*
X-326115Y-7580200D01*
X-440688Y-7549500D01*
X-440691Y-7549500D01*
X-559309Y-7549500D01*
X-559312Y-7549500D01*
X-673884Y-7580200D01*
X-673887Y-7580201D01*
X-776613Y-7639511D01*
X-860488Y-7723386D01*
X-919798Y-7826112D01*
X-919799Y-7826115D01*
X-950500Y-7940688D01*
X-3049499Y-7940688D01*
X-3080200Y-7826115D01*
X-3080201Y-7826112D01*
X-3139511Y-7723386D01*
X-3223386Y-7639512D01*
X-3223386Y-7639511D01*
X-3326112Y-7580201D01*
X-3326115Y-7580200D01*
X-3440688Y-7549500D01*
X-3440691Y-7549500D01*
X-3559309Y-7549500D01*
X-3559312Y-7549500D01*
X-3673884Y-7580200D01*
X-3673887Y-7580201D01*
X-3776613Y-7639511D01*
X-3860488Y-7723386D01*
X-3919798Y-7826112D01*
X-3919799Y-7826115D01*
X-3950500Y-7940688D01*
X-4549499Y-7940688D01*
X-4580200Y-7826115D01*
X-4580201Y-7826112D01*
X-4639511Y-7723386D01*
X-4723386Y-7639512D01*
X-4723386Y-7639511D01*
X-4826112Y-7580201D01*
X-4826115Y-7580200D01*
X-4940688Y-7549500D01*
X-4940691Y-7549500D01*
X-5059309Y-7549500D01*
X-5059312Y-7549500D01*
X-5173884Y-7580200D01*
X-5173887Y-7580201D01*
X-5276613Y-7639511D01*
X-5360488Y-7723386D01*
X-5419798Y-7826112D01*
X-5419799Y-7826115D01*
X-5450500Y-7940688D01*
X-19699500Y-7940688D01*
X-19699500Y-5889778D01*
X-5600500Y-5889778D01*
X-5600500Y-6110222D01*
X-5566015Y-6327951D01*
X-5497895Y-6537606D01*
X-5397815Y-6734022D01*
X-5268242Y-6912365D01*
X-5268238Y-6912368D01*
X-5268237Y-6912371D01*
X-5112371Y-7068237D01*
X-5112368Y-7068238D01*
X-5112365Y-7068242D01*
X-4934022Y-7197815D01*
X-4737606Y-7297895D01*
X-4527951Y-7366015D01*
X-4310222Y-7400500D01*
X-4310221Y-7400500D01*
X-4089779Y-7400500D01*
X-4089778Y-7400500D01*
X-3872049Y-7366015D01*
X-3662394Y-7297895D01*
X-3465978Y-7197815D01*
X-3287635Y-7068242D01*
X-3287633Y-7068240D01*
X-3287629Y-7068237D01*
X-3131763Y-6912371D01*
X-3131759Y-6912366D01*
X-3131758Y-6912365D01*
X-3002185Y-6734022D01*
X-2902105Y-6537606D01*
X-2833985Y-6327951D01*
X-2833984Y-6327948D01*
X-2799500Y-6110221D01*
X-2799500Y-5889778D01*
X-1400500Y-5889778D01*
X-1400500Y-6110222D01*
X-1366015Y-6327951D01*
X-1297895Y-6537606D01*
X-1197815Y-6734022D01*
X-1068242Y-6912365D01*
X-1068238Y-6912368D01*
X-1068237Y-6912371D01*
X-912371Y-7068237D01*
X-912368Y-7068238D01*
X-912365Y-7068242D01*
X-734022Y-7197815D01*
X-537606Y-7297895D01*
X-327951Y-7366015D01*
X-110222Y-7400500D01*
X-110221Y-7400500D01*
X110221Y-7400500D01*
X110222Y-7400500D01*
X327951Y-7366015D01*
X537606Y-7297895D01*
X734022Y-7197815D01*
X912365Y-7068242D01*
X912368Y-7068238D01*
X912371Y-7068237D01*
X1068237Y-6912371D01*
X1068238Y-6912368D01*
X1068242Y-6912365D01*
X1197815Y-6734022D01*
X1297895Y-6537606D01*
X1366015Y-6327951D01*
X1400500Y-6110222D01*
X1400500Y-5889778D01*
X2799500Y-5889778D01*
X2799500Y-6110221D01*
X2833984Y-6327948D01*
X2833985Y-6327951D01*
X2902105Y-6537606D01*
X3002185Y-6734022D01*
X3131758Y-6912365D01*
X3131759Y-6912366D01*
X3131763Y-6912371D01*
X3287629Y-7068237D01*
X3287633Y-7068240D01*
X3287635Y-7068242D01*
X3465978Y-7197815D01*
X3662394Y-7297895D01*
X3872049Y-7366015D01*
X4089778Y-7400500D01*
X4089779Y-7400500D01*
X4310221Y-7400500D01*
X4310222Y-7400500D01*
X4527951Y-7366015D01*
X4737606Y-7297895D01*
X4934022Y-7197815D01*
X5112365Y-7068242D01*
X5112368Y-7068238D01*
X5112371Y-7068237D01*
X5268237Y-6912371D01*
X5268238Y-6912368D01*
X5268242Y-6912365D01*
X5397815Y-6734022D01*
X5497895Y-6537606D01*
X5566015Y-6327951D01*
X5600500Y-6110222D01*
X5600500Y-5889778D01*
X5566015Y-5672049D01*
X5497895Y-5462394D01*
X5397815Y-5265978D01*
X5268242Y-5087635D01*
X5268240Y-5087633D01*
X5268237Y-5087629D01*
X5112371Y-4931763D01*
X5112366Y-4931759D01*
X5112365Y-4931758D01*
X4934022Y-4802185D01*
X4813329Y-4740688D01*
X16349500Y-4740688D01*
X16349500Y-4859311D01*
X16380200Y-4973884D01*
X16380201Y-4973887D01*
X16439511Y-5076613D01*
X16523387Y-5160489D01*
X16626114Y-5219799D01*
X16654758Y-5227474D01*
X16740688Y-5250500D01*
X16740691Y-5250500D01*
X16859311Y-5250500D01*
X16916597Y-5235149D01*
X16973886Y-5219799D01*
X17076613Y-5160489D01*
X17160489Y-5076613D01*
X17219799Y-4973886D01*
X17235149Y-4916597D01*
X17250500Y-4859311D01*
X17250500Y-4740688D01*
X17349500Y-4740688D01*
X17349500Y-4859311D01*
X17380200Y-4973884D01*
X17380201Y-4973887D01*
X17439511Y-5076613D01*
X17523387Y-5160489D01*
X17626114Y-5219799D01*
X17654758Y-5227474D01*
X17740688Y-5250500D01*
X17740691Y-5250500D01*
X17859311Y-5250500D01*
X17916597Y-5235149D01*
X17973886Y-5219799D01*
X18076613Y-5160489D01*
X18160489Y-5076613D01*
X18219799Y-4973886D01*
X18235149Y-4916597D01*
X18250500Y-4859311D01*
X18250500Y-4740688D01*
X18219799Y-4626115D01*
X18219798Y-4626112D01*
X18160488Y-4523386D01*
X18076613Y-4439511D01*
X17973887Y-4380201D01*
X17973884Y-4380200D01*
X17859312Y-4349500D01*
X17859309Y-4349500D01*
X17740691Y-4349500D01*
X17740688Y-4349500D01*
X17626115Y-4380200D01*
X17626112Y-4380201D01*
X17523386Y-4439511D01*
X17523386Y-4439512D01*
X17439512Y-4523386D01*
X17439511Y-4523386D01*
X17380201Y-4626112D01*
X17380200Y-4626115D01*
X17349500Y-4740688D01*
X17250500Y-4740688D01*
X17219799Y-4626115D01*
X17219798Y-4626112D01*
X17160488Y-4523386D01*
X17076613Y-4439511D01*
X16973887Y-4380201D01*
X16973884Y-4380200D01*
X16859312Y-4349500D01*
X16859309Y-4349500D01*
X16740691Y-4349500D01*
X16740688Y-4349500D01*
X16626115Y-4380200D01*
X16626112Y-4380201D01*
X16523386Y-4439511D01*
X16523386Y-4439512D01*
X16439512Y-4523386D01*
X16439511Y-4523386D01*
X16380201Y-4626112D01*
X16380200Y-4626115D01*
X16349500Y-4740688D01*
X4813329Y-4740688D01*
X4737606Y-4702105D01*
X4737605Y-4702104D01*
X4737604Y-4702104D01*
X4527951Y-4633985D01*
X4527948Y-4633984D01*
X4360694Y-4607494D01*
X4310222Y-4599500D01*
X4089778Y-4599500D01*
X4048804Y-4605989D01*
X3872051Y-4633984D01*
X3872048Y-4633985D01*
X3662395Y-4702104D01*
X3465978Y-4802185D01*
X3287633Y-4931759D01*
X3131759Y-5087633D01*
X3002185Y-5265978D01*
X2902104Y-5462395D01*
X2833985Y-5672048D01*
X2833984Y-5672051D01*
X2799500Y-5889778D01*
X1400500Y-5889778D01*
X1366015Y-5672049D01*
X1297895Y-5462394D01*
X1197815Y-5265978D01*
X1068242Y-5087635D01*
X1068240Y-5087633D01*
X1068237Y-5087629D01*
X912371Y-4931763D01*
X912366Y-4931759D01*
X912365Y-4931758D01*
X734022Y-4802185D01*
X537606Y-4702105D01*
X537605Y-4702104D01*
X537604Y-4702104D01*
X327951Y-4633985D01*
X327948Y-4633984D01*
X160694Y-4607494D01*
X110222Y-4599500D01*
X-110222Y-4599500D01*
X-160694Y-4607494D01*
X-327948Y-4633984D01*
X-327951Y-4633985D01*
X-537604Y-4702104D01*
X-537605Y-4702104D01*
X-537606Y-4702105D01*
X-734022Y-4802185D01*
X-912365Y-4931758D01*
X-912366Y-4931759D01*
X-912371Y-4931763D01*
X-1068237Y-5087629D01*
X-1068240Y-5087633D01*
X-1068242Y-5087635D01*
X-1197815Y-5265978D01*
X-1297895Y-5462394D01*
X-1366015Y-5672049D01*
X-1400500Y-5889778D01*
X-2799500Y-5889778D01*
X-2833984Y-5672051D01*
X-2833985Y-5672048D01*
X-2902104Y-5462395D01*
X-3002185Y-5265978D01*
X-3131759Y-5087633D01*
X-3287633Y-4931759D01*
X-3465978Y-4802185D01*
X-3662395Y-4702104D01*
X-3872048Y-4633985D01*
X-3872051Y-4633984D01*
X-4048804Y-4605989D01*
X-4089778Y-4599500D01*
X-4310222Y-4599500D01*
X-4360694Y-4607494D01*
X-4527948Y-4633984D01*
X-4527951Y-4633985D01*
X-4737604Y-4702104D01*
X-4737605Y-4702104D01*
X-4737606Y-4702105D01*
X-4934022Y-4802185D01*
X-5112365Y-4931758D01*
X-5112366Y-4931759D01*
X-5112371Y-4931763D01*
X-5268237Y-5087629D01*
X-5268240Y-5087633D01*
X-5268242Y-5087635D01*
X-5397815Y-5265978D01*
X-5497895Y-5462394D01*
X-5566015Y-5672049D01*
X-5600500Y-5889778D01*
X-19699500Y-5889778D01*
X-19699500Y-3940688D01*
X-5450500Y-3940688D01*
X-5450500Y-4059311D01*
X-5435149Y-4116597D01*
X-5419799Y-4173886D01*
X-5360489Y-4276613D01*
X-5276613Y-4360489D01*
X-5173886Y-4419799D01*
X-5116597Y-4435149D01*
X-5059311Y-4450500D01*
X-5059309Y-4450500D01*
X-4940688Y-4450500D01*
X-4854758Y-4427474D01*
X-4826114Y-4419799D01*
X-4723387Y-4360489D01*
X-4639511Y-4276613D01*
X-4580201Y-4173887D01*
X-4580200Y-4173884D01*
X-4549500Y-4059311D01*
X-4549500Y-3940688D01*
X-4549499Y-3940688D01*
X-3950500Y-3940688D01*
X-3950500Y-4059311D01*
X-3935149Y-4116597D01*
X-3919799Y-4173886D01*
X-3860489Y-4276613D01*
X-3776613Y-4360489D01*
X-3673886Y-4419799D01*
X-3616597Y-4435149D01*
X-3559311Y-4450500D01*
X-3559309Y-4450500D01*
X-3440688Y-4450500D01*
X-3354758Y-4427474D01*
X-3326114Y-4419799D01*
X-3223387Y-4360489D01*
X-3139511Y-4276613D01*
X-3080201Y-4173887D01*
X-3080200Y-4173884D01*
X-3049500Y-4059311D01*
X-3049500Y-3940688D01*
X-3049499Y-3940688D01*
X-950500Y-3940688D01*
X-950500Y-4059311D01*
X-935149Y-4116597D01*
X-919799Y-4173886D01*
X-860489Y-4276613D01*
X-776613Y-4360489D01*
X-673886Y-4419799D01*
X-616597Y-4435149D01*
X-559311Y-4450500D01*
X-559309Y-4450500D01*
X-440688Y-4450500D01*
X-354758Y-4427474D01*
X-326114Y-4419799D01*
X-223387Y-4360489D01*
X-139511Y-4276613D01*
X-80201Y-4173887D01*
X-80200Y-4173884D01*
X-49500Y-4059311D01*
X-49500Y-3940688D01*
X-49499Y-3940688D01*
X549500Y-3940688D01*
X549500Y-4059311D01*
X580200Y-4173884D01*
X580201Y-4173887D01*
X639511Y-4276613D01*
X723387Y-4360489D01*
X826114Y-4419799D01*
X854758Y-4427474D01*
X940688Y-4450500D01*
X940691Y-4450500D01*
X1059311Y-4450500D01*
X1116597Y-4435149D01*
X1173886Y-4419799D01*
X1276613Y-4360489D01*
X1360489Y-4276613D01*
X1419799Y-4173886D01*
X1435149Y-4116597D01*
X1450500Y-4059311D01*
X1450500Y-3940688D01*
X1419799Y-3826115D01*
X1419798Y-3826112D01*
X1360488Y-3723386D01*
X1276613Y-3639511D01*
X1173887Y-3580201D01*
X1173884Y-3580200D01*
X1059312Y-3549500D01*
X1059309Y-3549500D01*
X940691Y-3549500D01*
X940688Y-3549500D01*
X826115Y-3580200D01*
X826112Y-3580201D01*
X723386Y-3639511D01*
X723386Y-3639512D01*
X639512Y-3723386D01*
X639511Y-3723386D01*
X580201Y-3826112D01*
X580200Y-3826115D01*
X549500Y-3940688D01*
X-49499Y-3940688D01*
X-80200Y-3826115D01*
X-80201Y-3826112D01*
X-139511Y-3723386D01*
X-223386Y-3639512D01*
X-223386Y-3639511D01*
X-326112Y-3580201D01*
X-326115Y-3580200D01*
X-440688Y-3549500D01*
X-440691Y-3549500D01*
X-559309Y-3549500D01*
X-559312Y-3549500D01*
X-673884Y-3580200D01*
X-673887Y-3580201D01*
X-776613Y-3639511D01*
X-860488Y-3723386D01*
X-919798Y-3826112D01*
X-919799Y-3826115D01*
X-950500Y-3940688D01*
X-3049499Y-3940688D01*
X-3080200Y-3826115D01*
X-3080201Y-3826112D01*
X-3139511Y-3723386D01*
X-3223386Y-3639512D01*
X-3223386Y-3639511D01*
X-3326112Y-3580201D01*
X-3326115Y-3580200D01*
X-3440688Y-3549500D01*
X-3440691Y-3549500D01*
X-3559309Y-3549500D01*
X-3559312Y-3549500D01*
X-3673884Y-3580200D01*
X-3673887Y-3580201D01*
X-3776613Y-3639511D01*
X-3860488Y-3723386D01*
X-3919798Y-3826112D01*
X-3919799Y-3826115D01*
X-3950500Y-3940688D01*
X-4549499Y-3940688D01*
X-4580200Y-3826115D01*
X-4580201Y-3826112D01*
X-4639511Y-3723386D01*
X-4723386Y-3639512D01*
X-4723386Y-3639511D01*
X-4826112Y-3580201D01*
X-4826115Y-3580200D01*
X-4940688Y-3549500D01*
X-4940691Y-3549500D01*
X-5059309Y-3549500D01*
X-5059312Y-3549500D01*
X-5173884Y-3580200D01*
X-5173887Y-3580201D01*
X-5276613Y-3639511D01*
X-5360488Y-3723386D01*
X-5419798Y-3826112D01*
X-5419799Y-3826115D01*
X-5450500Y-3940688D01*
X-19699500Y-3940688D01*
X-19699500Y128826D01*
X-1965500Y128826D01*
X-1965500Y-128826D01*
X-1931869Y-384273D01*
X-1865184Y-633145D01*
X-1766585Y-871184D01*
X-1637760Y-1094316D01*
X-1480912Y-1298725D01*
X-1298725Y-1480912D01*
X-1094316Y-1637760D01*
X-871184Y-1766585D01*
X-633145Y-1865184D01*
X-384273Y-1931869D01*
X-128826Y-1965500D01*
X-128823Y-1965500D01*
X128823Y-1965500D01*
X128826Y-1965500D01*
X384273Y-1931869D01*
X633145Y-1865184D01*
X871184Y-1766585D01*
X1094316Y-1637760D01*
X1298725Y-1480912D01*
X1480912Y-1298725D01*
X1637760Y-1094316D01*
X1766585Y-871184D01*
X1865184Y-633145D01*
X1931869Y-384273D01*
X1965500Y-128826D01*
X1965500Y128826D01*
X1931869Y384273D01*
X1865184Y633145D01*
X1766585Y871184D01*
X1637760Y1094316D01*
X1480912Y1298725D01*
X1298725Y1480912D01*
X1109496Y1626112D01*
X1094328Y1637751D01*
X1094325Y1637752D01*
X1094316Y1637760D01*
X916039Y1740688D01*
X14149499Y1740688D01*
X14180200Y1626115D01*
X14180201Y1626112D01*
X14239511Y1523386D01*
X14323386Y1439512D01*
X14323386Y1439511D01*
X14426112Y1380201D01*
X14426115Y1380200D01*
X14540688Y1349500D01*
X14540691Y1349500D01*
X14659312Y1349500D01*
X14773884Y1380200D01*
X14773887Y1380201D01*
X14876613Y1439511D01*
X14960488Y1523386D01*
X15019798Y1626112D01*
X15019799Y1626115D01*
X15022920Y1637760D01*
X15027474Y1654758D01*
X15050500Y1740688D01*
X15050500Y1859311D01*
X15028694Y1940688D01*
X24549499Y1940688D01*
X24580200Y1826115D01*
X24580201Y1826112D01*
X24639511Y1723386D01*
X24723386Y1639512D01*
X24723386Y1639511D01*
X24826112Y1580201D01*
X24826115Y1580200D01*
X24940688Y1549500D01*
X24940691Y1549500D01*
X25059312Y1549500D01*
X25173884Y1580200D01*
X25173887Y1580201D01*
X25276613Y1639511D01*
X25360488Y1723386D01*
X25370480Y1740691D01*
X25419799Y1826114D01*
X25430268Y1865185D01*
X25450500Y1940688D01*
X25450500Y2059311D01*
X25423389Y2160488D01*
X25419799Y2173886D01*
X25360489Y2276613D01*
X25276613Y2360489D01*
X25173886Y2419799D01*
X25128055Y2432079D01*
X25059312Y2450500D01*
X25059309Y2450500D01*
X24940691Y2450500D01*
X24940688Y2450500D01*
X24854758Y2427474D01*
X24826114Y2419799D01*
X24723387Y2360489D01*
X24723386Y2360488D01*
X24639511Y2276613D01*
X24580201Y2173887D01*
X24580200Y2173884D01*
X24549500Y2059311D01*
X24549500Y1940688D01*
X24549499Y1940688D01*
X15028694Y1940688D01*
X15019799Y1973886D01*
X14960489Y2076613D01*
X14876613Y2160489D01*
X14773886Y2219799D01*
X14728055Y2232079D01*
X14659312Y2250500D01*
X14659309Y2250500D01*
X14540691Y2250500D01*
X14540688Y2250500D01*
X14454758Y2227474D01*
X14426114Y2219799D01*
X14323387Y2160489D01*
X14323386Y2160488D01*
X14239511Y2076613D01*
X14180201Y1973887D01*
X14180200Y1973884D01*
X14149500Y1859311D01*
X14149500Y1740688D01*
X14149499Y1740688D01*
X916039Y1740688D01*
X871184Y1766585D01*
X633145Y1865184D01*
X384273Y1931869D01*
X128826Y1965500D01*
X-128826Y1965500D01*
X-384273Y1931869D01*
X-633145Y1865184D01*
X-871184Y1766585D01*
X-1094316Y1637760D01*
X-1094325Y1637752D01*
X-1094328Y1637751D01*
X-1109496Y1626112D01*
X-1298725Y1480912D01*
X-1480912Y1298725D01*
X-1637760Y1094316D01*
X-1766585Y871184D01*
X-1865184Y633145D01*
X-1931869Y384273D01*
X-1965500Y128826D01*
X-19699500Y128826D01*
X-19699500Y4340688D01*
X24549499Y4340688D01*
X24580200Y4226115D01*
X24580201Y4226112D01*
X24639511Y4123386D01*
X24723386Y4039512D01*
X24723386Y4039511D01*
X24826112Y3980201D01*
X24826115Y3980200D01*
X24940688Y3949500D01*
X24940691Y3949500D01*
X25059312Y3949500D01*
X25173884Y3980200D01*
X25173887Y3980201D01*
X25276613Y4039511D01*
X25360488Y4123386D01*
X25419798Y4226112D01*
X25419799Y4226115D01*
X25450500Y4340688D01*
X25450500Y4459311D01*
X25435149Y4516597D01*
X25419799Y4573886D01*
X25360489Y4676613D01*
X25276613Y4760489D01*
X25173886Y4819799D01*
X25128055Y4832079D01*
X25059312Y4850500D01*
X25059309Y4850500D01*
X24940691Y4850500D01*
X24940688Y4850500D01*
X24854758Y4827474D01*
X24826114Y4819799D01*
X24723387Y4760489D01*
X24723386Y4760488D01*
X24639511Y4676613D01*
X24580201Y4573887D01*
X24580200Y4573884D01*
X24549500Y4459311D01*
X24549500Y4340688D01*
X24549499Y4340688D01*
X-19699500Y4340688D01*
X-19699500Y6650500D01*
X-19685148Y6685148D01*
X-19650500Y6699500D01*
X25650500Y6699500D01*
X25685148Y6685148D01*
G37*
G04 #@! TD.AperFunction*
M02*
