%TF.GenerationSoftware,KiCad,Pcbnew,9.0.3*%
%TF.CreationDate,2025-08-22T23:36:46-04:00*%
%TF.ProjectId,LINBoard-HW,4c494e42-6f61-4726-942d-48572e6b6963,rev?*%
%TF.SameCoordinates,Original*%
%TF.FileFunction,Drillmap*%
%TF.FilePolarity,Positive*%
%FSLAX45Y45*%
G04 Gerber Fmt 4.5, Leading zero omitted, Abs format (unit mm)*
G04 Created by KiCad (PCBNEW 9.0.3) date 2025-08-22 23:36:46*
%MOMM*%
%LPD*%
G01*
G04 APERTURE LIST*
%ADD10C,0.050000*%
%ADD11C,0.200000*%
%ADD12C,0.100000*%
%ADD13C,0.120000*%
G04 APERTURE END LIST*
D10*
X-2000000Y700000D02*
X2600000Y700000D01*
X2600000Y-4900000D01*
X-2000000Y-4900000D01*
X-2000000Y700000D01*
D11*
D12*
X-1777500Y-3702500D02*
X-1742500Y-3737500D01*
X-1742500Y-3702500D02*
X-1777500Y-3737500D01*
X-1417500Y-2702500D02*
X-1382500Y-2737500D01*
X-1382500Y-2702500D02*
X-1417500Y-2737500D01*
X-1167500Y-4492500D02*
X-1132500Y-4527500D01*
X-1132500Y-4492500D02*
X-1167500Y-4527500D01*
X-1057500Y-2702500D02*
X-1022500Y-2737500D01*
X-1022500Y-2702500D02*
X-1057500Y-2737500D01*
X-767500Y-4492500D02*
X-732500Y-4527500D01*
X-732500Y-4492500D02*
X-767500Y-4527500D01*
X-687500Y-2672500D02*
X-652500Y-2707500D01*
X-652500Y-2672500D02*
X-687500Y-2707500D01*
X-677500Y-2022500D02*
X-642500Y-2057500D01*
X-642500Y-2022500D02*
X-677500Y-2057500D01*
X-677500Y-2552500D02*
X-642500Y-2587500D01*
X-642500Y-2552500D02*
X-677500Y-2587500D01*
X-637500Y-3822500D02*
X-602500Y-3857500D01*
X-602500Y-3822500D02*
X-637500Y-3857500D01*
X-597500Y-2982500D02*
X-562500Y-3017500D01*
X-562500Y-2982500D02*
X-597500Y-3017500D01*
X-597500Y-3602500D02*
X-562500Y-3637500D01*
X-562500Y-3602500D02*
X-597500Y-3637500D01*
X-597500Y-3682500D02*
X-562500Y-3717500D01*
X-562500Y-3682500D02*
X-597500Y-3717500D01*
X-357500Y-2082500D02*
X-322500Y-2117500D01*
X-322500Y-2082500D02*
X-357500Y-2117500D01*
X-357500Y-2282500D02*
X-322500Y-2317500D01*
X-322500Y-2282500D02*
X-357500Y-2317500D01*
X-357500Y-2532500D02*
X-322500Y-2567500D01*
X-322500Y-2532500D02*
X-357500Y-2567500D01*
X-357500Y-2762500D02*
X-322500Y-2797500D01*
X-322500Y-2762500D02*
X-357500Y-2797500D01*
X-337500Y-4042500D02*
X-302500Y-4077500D01*
X-302500Y-4042500D02*
X-337500Y-4077500D01*
X-277500Y-3682500D02*
X-242500Y-3717500D01*
X-242500Y-3682500D02*
X-277500Y-3717500D01*
X-217500Y-4502500D02*
X-182500Y-4537500D01*
X-182500Y-4502500D02*
X-217500Y-4537500D01*
X-217500Y-4582500D02*
X-182500Y-4617500D01*
X-182500Y-4582500D02*
X-217500Y-4617500D01*
X-217500Y-4662500D02*
X-182500Y-4697500D01*
X-182500Y-4662500D02*
X-217500Y-4697500D01*
X-117500Y-2082500D02*
X-82500Y-2117500D01*
X-82500Y-2082500D02*
X-117500Y-2117500D01*
X-97500Y-3182500D02*
X-62500Y-3217500D01*
X-62500Y-3182500D02*
X-97500Y-3217500D01*
X-67500Y-382500D02*
X-32500Y-417500D01*
X-32500Y-382500D02*
X-67500Y-417500D01*
X-67500Y-782500D02*
X-32500Y-817500D01*
X-32500Y-782500D02*
X-67500Y-817500D01*
X-57500Y-2762500D02*
X-22500Y-2797500D01*
X-22500Y-2762500D02*
X-57500Y-2797500D01*
X-22506Y-3183451D02*
X12494Y-3218451D01*
X12494Y-3183451D02*
X-22506Y-3218451D01*
X22500Y-4133125D02*
X57500Y-4168125D01*
X57500Y-4133125D02*
X22500Y-4168125D01*
X82500Y-382500D02*
X117500Y-417500D01*
X117500Y-382500D02*
X82500Y-417500D01*
X82500Y-782500D02*
X117500Y-817500D01*
X117500Y-782500D02*
X82500Y-817500D01*
X122500Y-2762500D02*
X157500Y-2797500D01*
X157500Y-2762500D02*
X122500Y-2797500D01*
X142500Y-4133125D02*
X177500Y-4168125D01*
X177500Y-4133125D02*
X142500Y-4168125D01*
X182500Y-2082500D02*
X217500Y-2117500D01*
X217500Y-2082500D02*
X182500Y-2117500D01*
X202500Y-3742500D02*
X237500Y-3777500D01*
X237500Y-3742500D02*
X202500Y-3777500D01*
X242500Y-3242500D02*
X277500Y-3277500D01*
X277500Y-3242500D02*
X242500Y-3277500D01*
X302500Y-4022500D02*
X337500Y-4057500D01*
X337500Y-4022500D02*
X302500Y-4057500D01*
X437500Y-4542500D02*
X472500Y-4577500D01*
X472500Y-4542500D02*
X437500Y-4577500D01*
X442500Y-2082500D02*
X477500Y-2117500D01*
X477500Y-2082500D02*
X442500Y-2117500D01*
X442500Y-2282500D02*
X477500Y-2317500D01*
X477500Y-2282500D02*
X442500Y-2317500D01*
X442500Y-2532500D02*
X477500Y-2567500D01*
X477500Y-2532500D02*
X442500Y-2567500D01*
X442500Y-2762500D02*
X477500Y-2797500D01*
X477500Y-2762500D02*
X442500Y-2797500D01*
X482500Y-1822500D02*
X517500Y-1857500D01*
X517500Y-1822500D02*
X482500Y-1857500D01*
X497500Y-4542500D02*
X532500Y-4577500D01*
X532500Y-4542500D02*
X497500Y-4577500D01*
X557500Y-4542500D02*
X592500Y-4577500D01*
X592500Y-4542500D02*
X557500Y-4577500D01*
X562500Y-2865000D02*
X597500Y-2900000D01*
X597500Y-2865000D02*
X562500Y-2900000D01*
X562500Y-3502500D02*
X597500Y-3537500D01*
X597500Y-3502500D02*
X562500Y-3537500D01*
X682500Y-3710974D02*
X717500Y-3745974D01*
X717500Y-3710974D02*
X682500Y-3745974D01*
X722500Y-2982500D02*
X757500Y-3017500D01*
X757500Y-2982500D02*
X722500Y-3017500D01*
X762500Y-4002500D02*
X797500Y-4037500D01*
X797500Y-4002500D02*
X762500Y-4037500D01*
X782500Y-1822500D02*
X817500Y-1857500D01*
X817500Y-1822500D02*
X782500Y-1857500D01*
X1042500Y-2262500D02*
X1077500Y-2297500D01*
X1077500Y-2262500D02*
X1042500Y-2297500D01*
X1082500Y-2682500D02*
X1117500Y-2717500D01*
X1117500Y-2682500D02*
X1082500Y-2717500D01*
X1260000Y-4192396D02*
X1295000Y-4227396D01*
X1295000Y-4192396D02*
X1260000Y-4227396D01*
X1322500Y-3442500D02*
X1357500Y-3477500D01*
X1357500Y-3442500D02*
X1322500Y-3477500D01*
X1322500Y-3922500D02*
X1357500Y-3957500D01*
X1357500Y-3922500D02*
X1322500Y-3957500D01*
X1372500Y-2882500D02*
X1407500Y-2917500D01*
X1407500Y-2882500D02*
X1372500Y-2917500D01*
X1442500Y197500D02*
X1477500Y162500D01*
X1477500Y197500D02*
X1442500Y162500D01*
X1442500Y-2602500D02*
X1477500Y-2637500D01*
X1477500Y-2602500D02*
X1442500Y-2637500D01*
X1542500Y-2142500D02*
X1577500Y-2177500D01*
X1577500Y-2142500D02*
X1542500Y-2177500D01*
X1592500Y-3082500D02*
X1627500Y-3117500D01*
X1627500Y-3082500D02*
X1592500Y-3117500D01*
X1602500Y-4062500D02*
X1637500Y-4097500D01*
X1637500Y-4062500D02*
X1602500Y-4097500D01*
X1632500Y-3216500D02*
X1667500Y-3251500D01*
X1667500Y-3216500D02*
X1632500Y-3251500D01*
X1642500Y-2602500D02*
X1677500Y-2637500D01*
X1677500Y-2602500D02*
X1642500Y-2637500D01*
X1662500Y-462500D02*
X1697500Y-497500D01*
X1697500Y-462500D02*
X1662500Y-497500D01*
X1695000Y-4062500D02*
X1730000Y-4097500D01*
X1730000Y-4062500D02*
X1695000Y-4097500D01*
X1762500Y-462500D02*
X1797500Y-497500D01*
X1797500Y-462500D02*
X1762500Y-497500D01*
X2072500Y-2012500D02*
X2107500Y-2047500D01*
X2107500Y-2012500D02*
X2072500Y-2047500D01*
X2072500Y-2112500D02*
X2107500Y-2147500D01*
X2107500Y-2112500D02*
X2072500Y-2147500D01*
X2112500Y-2062500D02*
X2147500Y-2097500D01*
X2147500Y-2062500D02*
X2112500Y-2097500D01*
X2112500Y-2162500D02*
X2147500Y-2197500D01*
X2147500Y-2162500D02*
X2112500Y-2197500D01*
X2152500Y-2012500D02*
X2187500Y-2047500D01*
X2187500Y-2012500D02*
X2152500Y-2047500D01*
X2152500Y-2112500D02*
X2187500Y-2147500D01*
X2187500Y-2112500D02*
X2152500Y-2147500D01*
X2302500Y-2012500D02*
X2337500Y-2047500D01*
X2337500Y-2012500D02*
X2302500Y-2047500D01*
X2302500Y-2112500D02*
X2337500Y-2147500D01*
X2337500Y-2112500D02*
X2302500Y-2147500D01*
X2342500Y-2062500D02*
X2377500Y-2097500D01*
X2377500Y-2062500D02*
X2342500Y-2097500D01*
X2342500Y-2162500D02*
X2377500Y-2197500D01*
X2377500Y-2162500D02*
X2342500Y-2197500D01*
X2382500Y-2012500D02*
X2417500Y-2047500D01*
X2417500Y-2012500D02*
X2382500Y-2047500D01*
X2382500Y-2112500D02*
X2417500Y-2147500D01*
X2417500Y-2112500D02*
X2382500Y-2147500D01*
X2482500Y457500D02*
X2517500Y422500D01*
X2517500Y457500D02*
X2482500Y422500D01*
X2482500Y217500D02*
X2517500Y182500D01*
X2517500Y217500D02*
X2482500Y182500D01*
X-175000Y-4274000D02*
G75*
G02*
X-215000Y-4274000I-20000J0D01*
G01*
X-215000Y-4274000D02*
G75*
G02*
X-175000Y-4274000I20000J0D01*
G01*
X-175000Y-4409000D02*
G75*
G02*
X-215000Y-4409000I-20000J0D01*
G01*
X-215000Y-4409000D02*
G75*
G02*
X-175000Y-4409000I20000J0D01*
G01*
X-90000Y-4274000D02*
G75*
G02*
X-130000Y-4274000I-20000J0D01*
G01*
X-130000Y-4274000D02*
G75*
G02*
X-90000Y-4274000I20000J0D01*
G01*
X-90000Y-4409000D02*
G75*
G02*
X-130000Y-4409000I-20000J0D01*
G01*
X-130000Y-4409000D02*
G75*
G02*
X-90000Y-4409000I20000J0D01*
G01*
X-5000Y-4274000D02*
G75*
G02*
X-45000Y-4274000I-20000J0D01*
G01*
X-45000Y-4274000D02*
G75*
G02*
X-5000Y-4274000I20000J0D01*
G01*
X-5000Y-4409000D02*
G75*
G02*
X-45000Y-4409000I-20000J0D01*
G01*
X-45000Y-4409000D02*
G75*
G02*
X-5000Y-4409000I20000J0D01*
G01*
X80000Y-4274000D02*
G75*
G02*
X40000Y-4274000I-20000J0D01*
G01*
X40000Y-4274000D02*
G75*
G02*
X80000Y-4274000I20000J0D01*
G01*
X80000Y-4409000D02*
G75*
G02*
X40000Y-4409000I-20000J0D01*
G01*
X40000Y-4409000D02*
G75*
G02*
X80000Y-4409000I20000J0D01*
G01*
X165000Y-4274000D02*
G75*
G02*
X125000Y-4274000I-20000J0D01*
G01*
X125000Y-4274000D02*
G75*
G02*
X165000Y-4274000I20000J0D01*
G01*
X165000Y-4409000D02*
G75*
G02*
X125000Y-4409000I-20000J0D01*
G01*
X125000Y-4409000D02*
G75*
G02*
X165000Y-4409000I20000J0D01*
G01*
X250000Y-4274000D02*
G75*
G02*
X210000Y-4274000I-20000J0D01*
G01*
X210000Y-4274000D02*
G75*
G02*
X250000Y-4274000I20000J0D01*
G01*
X250000Y-4409000D02*
G75*
G02*
X210000Y-4409000I-20000J0D01*
G01*
X210000Y-4409000D02*
G75*
G02*
X250000Y-4409000I20000J0D01*
G01*
X335000Y-4274000D02*
G75*
G02*
X295000Y-4274000I-20000J0D01*
G01*
X295000Y-4274000D02*
G75*
G02*
X335000Y-4274000I20000J0D01*
G01*
X335000Y-4409000D02*
G75*
G02*
X295000Y-4409000I-20000J0D01*
G01*
X295000Y-4409000D02*
G75*
G02*
X335000Y-4409000I20000J0D01*
G01*
X420000Y-4274000D02*
G75*
G02*
X380000Y-4274000I-20000J0D01*
G01*
X380000Y-4274000D02*
G75*
G02*
X420000Y-4274000I20000J0D01*
G01*
X420000Y-4409000D02*
G75*
G02*
X380000Y-4409000I-20000J0D01*
G01*
X380000Y-4409000D02*
G75*
G02*
X420000Y-4409000I20000J0D01*
G01*
X-330000Y-4342000D02*
X-330000Y-4402000D01*
X-360000Y-4372000D02*
X-300000Y-4372000D01*
X-360000Y-4297000D02*
X-360000Y-4447000D01*
X-300000Y-4447000D02*
G75*
G02*
X-360000Y-4447000I-30000J0D01*
G01*
X-300000Y-4447000D02*
X-300000Y-4297000D01*
X-300000Y-4297000D02*
G75*
G03*
X-360000Y-4297000I-30000J0D01*
G01*
X-330000Y-4680000D02*
X-330000Y-4740000D01*
X-360000Y-4710000D02*
X-300000Y-4710000D01*
X-360000Y-4670000D02*
X-360000Y-4750000D01*
X-300000Y-4750000D02*
G75*
G02*
X-360000Y-4750000I-30000J0D01*
G01*
X-300000Y-4750000D02*
X-300000Y-4670000D01*
X-300000Y-4670000D02*
G75*
G03*
X-360000Y-4670000I-30000J0D01*
G01*
X535000Y-4342000D02*
X535000Y-4402000D01*
X505000Y-4372000D02*
X565000Y-4372000D01*
X505000Y-4297000D02*
X505000Y-4447000D01*
X565000Y-4447000D02*
G75*
G02*
X505000Y-4447000I-30000J0D01*
G01*
X565000Y-4447000D02*
X565000Y-4297000D01*
X565000Y-4297000D02*
G75*
G03*
X505000Y-4297000I-30000J0D01*
G01*
X535000Y-4680000D02*
X535000Y-4740000D01*
X505000Y-4710000D02*
X565000Y-4710000D01*
X505000Y-4670000D02*
X505000Y-4750000D01*
X565000Y-4750000D02*
G75*
G02*
X505000Y-4750000I-30000J0D01*
G01*
X565000Y-4750000D02*
X565000Y-4670000D01*
X565000Y-4670000D02*
G75*
G03*
X505000Y-4670000I-30000J0D01*
G01*
X-1424644Y-3275356D02*
X-1424644Y-3204644D01*
X-1495356Y-3204644D01*
X-1495356Y-3275356D01*
X-1424644Y-3275356D01*
X-1424644Y-3635356D02*
X-1424644Y-3564644D01*
X-1495356Y-3564644D01*
X-1495356Y-3635356D01*
X-1424644Y-3635356D01*
X-1424644Y-3995356D02*
X-1424644Y-3924644D01*
X-1495356Y-3924644D01*
X-1495356Y-3995356D01*
X-1424644Y-3995356D01*
X-1104644Y-3415356D02*
X-1104644Y-3344644D01*
X-1175356Y-3344644D01*
X-1175356Y-3415356D01*
X-1104644Y-3415356D01*
X-1104644Y-3775356D02*
X-1104644Y-3704644D01*
X-1175356Y-3704644D01*
X-1175356Y-3775356D01*
X-1104644Y-3775356D01*
X2295356Y-3240356D02*
X2295356Y-3169644D01*
X2224644Y-3169644D01*
X2224644Y-3240356D01*
X2295356Y-3240356D01*
X2295356Y-3595356D02*
X2295356Y-3524644D01*
X2224644Y-3524644D01*
X2224644Y-3595356D01*
X2295356Y-3595356D01*
D13*
X-420000Y-660000D02*
X-360000Y-600000D01*
X-420000Y-540000D01*
X-480000Y-600000D01*
X-420000Y-660000D01*
X-420000Y-1295000D02*
X-360000Y-1235000D01*
X-420000Y-1175000D01*
X-480000Y-1235000D01*
X-420000Y-1295000D01*
X0Y-660000D02*
X60000Y-600000D01*
X0Y-540000D01*
X-60000Y-600000D01*
X0Y-660000D01*
X0Y-1295000D02*
X60000Y-1235000D01*
X0Y-1175000D01*
X-60000Y-1235000D01*
X0Y-1295000D01*
X420000Y-660000D02*
X480000Y-600000D01*
X420000Y-540000D01*
X360000Y-600000D01*
X420000Y-660000D01*
X420000Y-1295000D02*
X480000Y-1235000D01*
X420000Y-1175000D01*
X360000Y-1235000D01*
X420000Y-1295000D01*
D11*
X-1741723Y-5213984D02*
X-1741723Y-5013984D01*
X-1741723Y-5013984D02*
X-1694104Y-5013984D01*
X-1694104Y-5013984D02*
X-1665533Y-5023508D01*
X-1665533Y-5023508D02*
X-1646485Y-5042555D01*
X-1646485Y-5042555D02*
X-1636961Y-5061603D01*
X-1636961Y-5061603D02*
X-1627437Y-5099698D01*
X-1627437Y-5099698D02*
X-1627437Y-5128270D01*
X-1627437Y-5128270D02*
X-1636961Y-5166365D01*
X-1636961Y-5166365D02*
X-1646485Y-5185412D01*
X-1646485Y-5185412D02*
X-1665533Y-5204460D01*
X-1665533Y-5204460D02*
X-1694104Y-5213984D01*
X-1694104Y-5213984D02*
X-1741723Y-5213984D01*
X-1541723Y-5213984D02*
X-1541723Y-5080650D01*
X-1541723Y-5118746D02*
X-1532199Y-5099698D01*
X-1532199Y-5099698D02*
X-1522675Y-5090174D01*
X-1522675Y-5090174D02*
X-1503628Y-5080650D01*
X-1503628Y-5080650D02*
X-1484580Y-5080650D01*
X-1417914Y-5213984D02*
X-1417914Y-5080650D01*
X-1417914Y-5013984D02*
X-1427437Y-5023508D01*
X-1427437Y-5023508D02*
X-1417914Y-5033031D01*
X-1417914Y-5033031D02*
X-1408390Y-5023508D01*
X-1408390Y-5023508D02*
X-1417914Y-5013984D01*
X-1417914Y-5013984D02*
X-1417914Y-5033031D01*
X-1294104Y-5213984D02*
X-1313152Y-5204460D01*
X-1313152Y-5204460D02*
X-1322676Y-5185412D01*
X-1322676Y-5185412D02*
X-1322676Y-5013984D01*
X-1189342Y-5213984D02*
X-1208390Y-5204460D01*
X-1208390Y-5204460D02*
X-1217914Y-5185412D01*
X-1217914Y-5185412D02*
X-1217914Y-5013984D01*
X-960771Y-5213984D02*
X-960771Y-5013984D01*
X-960771Y-5013984D02*
X-894104Y-5156841D01*
X-894104Y-5156841D02*
X-827437Y-5013984D01*
X-827437Y-5013984D02*
X-827437Y-5213984D01*
X-646485Y-5213984D02*
X-646485Y-5109222D01*
X-646485Y-5109222D02*
X-656009Y-5090174D01*
X-656009Y-5090174D02*
X-675056Y-5080650D01*
X-675056Y-5080650D02*
X-713152Y-5080650D01*
X-713152Y-5080650D02*
X-732199Y-5090174D01*
X-646485Y-5204460D02*
X-665533Y-5213984D01*
X-665533Y-5213984D02*
X-713152Y-5213984D01*
X-713152Y-5213984D02*
X-732199Y-5204460D01*
X-732199Y-5204460D02*
X-741723Y-5185412D01*
X-741723Y-5185412D02*
X-741723Y-5166365D01*
X-741723Y-5166365D02*
X-732199Y-5147317D01*
X-732199Y-5147317D02*
X-713152Y-5137793D01*
X-713152Y-5137793D02*
X-665533Y-5137793D01*
X-665533Y-5137793D02*
X-646485Y-5128270D01*
X-551247Y-5080650D02*
X-551247Y-5280650D01*
X-551247Y-5090174D02*
X-532199Y-5080650D01*
X-532199Y-5080650D02*
X-494104Y-5080650D01*
X-494104Y-5080650D02*
X-475056Y-5090174D01*
X-475056Y-5090174D02*
X-465533Y-5099698D01*
X-465533Y-5099698D02*
X-456009Y-5118746D01*
X-456009Y-5118746D02*
X-456009Y-5175889D01*
X-456009Y-5175889D02*
X-465533Y-5194936D01*
X-465533Y-5194936D02*
X-475056Y-5204460D01*
X-475056Y-5204460D02*
X-494104Y-5213984D01*
X-494104Y-5213984D02*
X-532199Y-5213984D01*
X-532199Y-5213984D02*
X-551247Y-5204460D01*
X-370294Y-5194936D02*
X-360771Y-5204460D01*
X-360771Y-5204460D02*
X-370294Y-5213984D01*
X-370294Y-5213984D02*
X-379818Y-5204460D01*
X-379818Y-5204460D02*
X-370294Y-5194936D01*
X-370294Y-5194936D02*
X-370294Y-5213984D01*
X-370294Y-5090174D02*
X-360771Y-5099698D01*
X-360771Y-5099698D02*
X-370294Y-5109222D01*
X-370294Y-5109222D02*
X-379818Y-5099698D01*
X-379818Y-5099698D02*
X-370294Y-5090174D01*
X-370294Y-5090174D02*
X-370294Y-5109222D01*
D12*
X-2037500Y-5525000D02*
X-2002500Y-5560000D01*
X-2002500Y-5525000D02*
X-2037500Y-5560000D01*
D11*
X-1703628Y-5433984D02*
X-1684580Y-5433984D01*
X-1684580Y-5433984D02*
X-1665533Y-5443508D01*
X-1665533Y-5443508D02*
X-1656009Y-5453031D01*
X-1656009Y-5453031D02*
X-1646485Y-5472079D01*
X-1646485Y-5472079D02*
X-1636961Y-5510174D01*
X-1636961Y-5510174D02*
X-1636961Y-5557793D01*
X-1636961Y-5557793D02*
X-1646485Y-5595888D01*
X-1646485Y-5595888D02*
X-1656009Y-5614936D01*
X-1656009Y-5614936D02*
X-1665533Y-5624460D01*
X-1665533Y-5624460D02*
X-1684580Y-5633984D01*
X-1684580Y-5633984D02*
X-1703628Y-5633984D01*
X-1703628Y-5633984D02*
X-1722675Y-5624460D01*
X-1722675Y-5624460D02*
X-1732199Y-5614936D01*
X-1732199Y-5614936D02*
X-1741723Y-5595888D01*
X-1741723Y-5595888D02*
X-1751247Y-5557793D01*
X-1751247Y-5557793D02*
X-1751247Y-5510174D01*
X-1751247Y-5510174D02*
X-1741723Y-5472079D01*
X-1741723Y-5472079D02*
X-1732199Y-5453031D01*
X-1732199Y-5453031D02*
X-1722675Y-5443508D01*
X-1722675Y-5443508D02*
X-1703628Y-5433984D01*
X-1551247Y-5614936D02*
X-1541723Y-5624460D01*
X-1541723Y-5624460D02*
X-1551247Y-5633984D01*
X-1551247Y-5633984D02*
X-1560771Y-5624460D01*
X-1560771Y-5624460D02*
X-1551247Y-5614936D01*
X-1551247Y-5614936D02*
X-1551247Y-5633984D01*
X-1475056Y-5433984D02*
X-1351247Y-5433984D01*
X-1351247Y-5433984D02*
X-1417914Y-5510174D01*
X-1417914Y-5510174D02*
X-1389342Y-5510174D01*
X-1389342Y-5510174D02*
X-1370295Y-5519698D01*
X-1370295Y-5519698D02*
X-1360771Y-5529222D01*
X-1360771Y-5529222D02*
X-1351247Y-5548270D01*
X-1351247Y-5548270D02*
X-1351247Y-5595888D01*
X-1351247Y-5595888D02*
X-1360771Y-5614936D01*
X-1360771Y-5614936D02*
X-1370295Y-5624460D01*
X-1370295Y-5624460D02*
X-1389342Y-5633984D01*
X-1389342Y-5633984D02*
X-1446485Y-5633984D01*
X-1446485Y-5633984D02*
X-1465533Y-5624460D01*
X-1465533Y-5624460D02*
X-1475056Y-5614936D01*
X-1170295Y-5433984D02*
X-1265533Y-5433984D01*
X-1265533Y-5433984D02*
X-1275056Y-5529222D01*
X-1275056Y-5529222D02*
X-1265533Y-5519698D01*
X-1265533Y-5519698D02*
X-1246485Y-5510174D01*
X-1246485Y-5510174D02*
X-1198866Y-5510174D01*
X-1198866Y-5510174D02*
X-1179818Y-5519698D01*
X-1179818Y-5519698D02*
X-1170295Y-5529222D01*
X-1170295Y-5529222D02*
X-1160771Y-5548270D01*
X-1160771Y-5548270D02*
X-1160771Y-5595888D01*
X-1160771Y-5595888D02*
X-1170295Y-5614936D01*
X-1170295Y-5614936D02*
X-1179818Y-5624460D01*
X-1179818Y-5624460D02*
X-1198866Y-5633984D01*
X-1198866Y-5633984D02*
X-1246485Y-5633984D01*
X-1246485Y-5633984D02*
X-1265533Y-5624460D01*
X-1265533Y-5624460D02*
X-1275056Y-5614936D01*
X-1036961Y-5433984D02*
X-1017913Y-5433984D01*
X-1017913Y-5433984D02*
X-998866Y-5443508D01*
X-998866Y-5443508D02*
X-989342Y-5453031D01*
X-989342Y-5453031D02*
X-979818Y-5472079D01*
X-979818Y-5472079D02*
X-970294Y-5510174D01*
X-970294Y-5510174D02*
X-970294Y-5557793D01*
X-970294Y-5557793D02*
X-979818Y-5595888D01*
X-979818Y-5595888D02*
X-989342Y-5614936D01*
X-989342Y-5614936D02*
X-998866Y-5624460D01*
X-998866Y-5624460D02*
X-1017913Y-5633984D01*
X-1017913Y-5633984D02*
X-1036961Y-5633984D01*
X-1036961Y-5633984D02*
X-1056009Y-5624460D01*
X-1056009Y-5624460D02*
X-1065533Y-5614936D01*
X-1065533Y-5614936D02*
X-1075056Y-5595888D01*
X-1075056Y-5595888D02*
X-1084580Y-5557793D01*
X-1084580Y-5557793D02*
X-1084580Y-5510174D01*
X-1084580Y-5510174D02*
X-1075056Y-5472079D01*
X-1075056Y-5472079D02*
X-1065533Y-5453031D01*
X-1065533Y-5453031D02*
X-1056009Y-5443508D01*
X-1056009Y-5443508D02*
X-1036961Y-5433984D01*
X-884580Y-5633984D02*
X-884580Y-5500650D01*
X-884580Y-5519698D02*
X-875056Y-5510174D01*
X-875056Y-5510174D02*
X-856009Y-5500650D01*
X-856009Y-5500650D02*
X-827437Y-5500650D01*
X-827437Y-5500650D02*
X-808390Y-5510174D01*
X-808390Y-5510174D02*
X-798866Y-5529222D01*
X-798866Y-5529222D02*
X-798866Y-5633984D01*
X-798866Y-5529222D02*
X-789342Y-5510174D01*
X-789342Y-5510174D02*
X-770294Y-5500650D01*
X-770294Y-5500650D02*
X-741723Y-5500650D01*
X-741723Y-5500650D02*
X-722675Y-5510174D01*
X-722675Y-5510174D02*
X-713152Y-5529222D01*
X-713152Y-5529222D02*
X-713152Y-5633984D01*
X-617914Y-5633984D02*
X-617914Y-5500650D01*
X-617914Y-5519698D02*
X-608390Y-5510174D01*
X-608390Y-5510174D02*
X-589342Y-5500650D01*
X-589342Y-5500650D02*
X-560771Y-5500650D01*
X-560771Y-5500650D02*
X-541723Y-5510174D01*
X-541723Y-5510174D02*
X-532199Y-5529222D01*
X-532199Y-5529222D02*
X-532199Y-5633984D01*
X-532199Y-5529222D02*
X-522675Y-5510174D01*
X-522675Y-5510174D02*
X-503628Y-5500650D01*
X-503628Y-5500650D02*
X-475056Y-5500650D01*
X-475056Y-5500650D02*
X-456009Y-5510174D01*
X-456009Y-5510174D02*
X-446485Y-5529222D01*
X-446485Y-5529222D02*
X-446485Y-5633984D01*
X-56009Y-5424460D02*
X-227437Y-5681603D01*
X201134Y-5433984D02*
X220182Y-5433984D01*
X220182Y-5433984D02*
X239229Y-5443508D01*
X239229Y-5443508D02*
X248753Y-5453031D01*
X248753Y-5453031D02*
X258277Y-5472079D01*
X258277Y-5472079D02*
X267801Y-5510174D01*
X267801Y-5510174D02*
X267801Y-5557793D01*
X267801Y-5557793D02*
X258277Y-5595888D01*
X258277Y-5595888D02*
X248753Y-5614936D01*
X248753Y-5614936D02*
X239229Y-5624460D01*
X239229Y-5624460D02*
X220182Y-5633984D01*
X220182Y-5633984D02*
X201134Y-5633984D01*
X201134Y-5633984D02*
X182086Y-5624460D01*
X182086Y-5624460D02*
X172563Y-5614936D01*
X172563Y-5614936D02*
X163039Y-5595888D01*
X163039Y-5595888D02*
X153515Y-5557793D01*
X153515Y-5557793D02*
X153515Y-5510174D01*
X153515Y-5510174D02*
X163039Y-5472079D01*
X163039Y-5472079D02*
X172563Y-5453031D01*
X172563Y-5453031D02*
X182086Y-5443508D01*
X182086Y-5443508D02*
X201134Y-5433984D01*
X353515Y-5614936D02*
X363039Y-5624460D01*
X363039Y-5624460D02*
X353515Y-5633984D01*
X353515Y-5633984D02*
X343991Y-5624460D01*
X343991Y-5624460D02*
X353515Y-5614936D01*
X353515Y-5614936D02*
X353515Y-5633984D01*
X486848Y-5433984D02*
X505896Y-5433984D01*
X505896Y-5433984D02*
X524944Y-5443508D01*
X524944Y-5443508D02*
X534468Y-5453031D01*
X534468Y-5453031D02*
X543991Y-5472079D01*
X543991Y-5472079D02*
X553515Y-5510174D01*
X553515Y-5510174D02*
X553515Y-5557793D01*
X553515Y-5557793D02*
X543991Y-5595888D01*
X543991Y-5595888D02*
X534468Y-5614936D01*
X534468Y-5614936D02*
X524944Y-5624460D01*
X524944Y-5624460D02*
X505896Y-5633984D01*
X505896Y-5633984D02*
X486848Y-5633984D01*
X486848Y-5633984D02*
X467801Y-5624460D01*
X467801Y-5624460D02*
X458277Y-5614936D01*
X458277Y-5614936D02*
X448753Y-5595888D01*
X448753Y-5595888D02*
X439229Y-5557793D01*
X439229Y-5557793D02*
X439229Y-5510174D01*
X439229Y-5510174D02*
X448753Y-5472079D01*
X448753Y-5472079D02*
X458277Y-5453031D01*
X458277Y-5453031D02*
X467801Y-5443508D01*
X467801Y-5443508D02*
X486848Y-5433984D01*
X743991Y-5633984D02*
X629706Y-5633984D01*
X686848Y-5633984D02*
X686848Y-5433984D01*
X686848Y-5433984D02*
X667801Y-5462555D01*
X667801Y-5462555D02*
X648753Y-5481603D01*
X648753Y-5481603D02*
X629706Y-5491127D01*
X810658Y-5433984D02*
X934467Y-5433984D01*
X934467Y-5433984D02*
X867801Y-5510174D01*
X867801Y-5510174D02*
X896372Y-5510174D01*
X896372Y-5510174D02*
X915420Y-5519698D01*
X915420Y-5519698D02*
X924944Y-5529222D01*
X924944Y-5529222D02*
X934467Y-5548270D01*
X934467Y-5548270D02*
X934467Y-5595888D01*
X934467Y-5595888D02*
X924944Y-5614936D01*
X924944Y-5614936D02*
X915420Y-5624460D01*
X915420Y-5624460D02*
X896372Y-5633984D01*
X896372Y-5633984D02*
X839229Y-5633984D01*
X839229Y-5633984D02*
X820182Y-5624460D01*
X820182Y-5624460D02*
X810658Y-5614936D01*
X1048753Y-5519698D02*
X1029706Y-5510174D01*
X1029706Y-5510174D02*
X1020182Y-5500650D01*
X1020182Y-5500650D02*
X1010658Y-5481603D01*
X1010658Y-5481603D02*
X1010658Y-5472079D01*
X1010658Y-5472079D02*
X1020182Y-5453031D01*
X1020182Y-5453031D02*
X1029706Y-5443508D01*
X1029706Y-5443508D02*
X1048753Y-5433984D01*
X1048753Y-5433984D02*
X1086849Y-5433984D01*
X1086849Y-5433984D02*
X1105896Y-5443508D01*
X1105896Y-5443508D02*
X1115420Y-5453031D01*
X1115420Y-5453031D02*
X1124944Y-5472079D01*
X1124944Y-5472079D02*
X1124944Y-5481603D01*
X1124944Y-5481603D02*
X1115420Y-5500650D01*
X1115420Y-5500650D02*
X1105896Y-5510174D01*
X1105896Y-5510174D02*
X1086849Y-5519698D01*
X1086849Y-5519698D02*
X1048753Y-5519698D01*
X1048753Y-5519698D02*
X1029706Y-5529222D01*
X1029706Y-5529222D02*
X1020182Y-5538746D01*
X1020182Y-5538746D02*
X1010658Y-5557793D01*
X1010658Y-5557793D02*
X1010658Y-5595888D01*
X1010658Y-5595888D02*
X1020182Y-5614936D01*
X1020182Y-5614936D02*
X1029706Y-5624460D01*
X1029706Y-5624460D02*
X1048753Y-5633984D01*
X1048753Y-5633984D02*
X1086849Y-5633984D01*
X1086849Y-5633984D02*
X1105896Y-5624460D01*
X1105896Y-5624460D02*
X1115420Y-5614936D01*
X1115420Y-5614936D02*
X1124944Y-5595888D01*
X1124944Y-5595888D02*
X1124944Y-5557793D01*
X1124944Y-5557793D02*
X1115420Y-5538746D01*
X1115420Y-5538746D02*
X1105896Y-5529222D01*
X1105896Y-5529222D02*
X1086849Y-5519698D01*
X1201134Y-5433984D02*
X1201134Y-5472079D01*
X1277325Y-5433984D02*
X1277325Y-5472079D01*
X1572563Y-5710174D02*
X1563039Y-5700650D01*
X1563039Y-5700650D02*
X1543991Y-5672079D01*
X1543991Y-5672079D02*
X1534468Y-5653031D01*
X1534468Y-5653031D02*
X1524944Y-5624460D01*
X1524944Y-5624460D02*
X1515420Y-5576841D01*
X1515420Y-5576841D02*
X1515420Y-5538746D01*
X1515420Y-5538746D02*
X1524944Y-5491127D01*
X1524944Y-5491127D02*
X1534468Y-5462555D01*
X1534468Y-5462555D02*
X1543991Y-5443508D01*
X1543991Y-5443508D02*
X1563039Y-5414936D01*
X1563039Y-5414936D02*
X1572563Y-5405412D01*
X1677325Y-5519698D02*
X1658277Y-5510174D01*
X1658277Y-5510174D02*
X1648753Y-5500650D01*
X1648753Y-5500650D02*
X1639229Y-5481603D01*
X1639229Y-5481603D02*
X1639229Y-5472079D01*
X1639229Y-5472079D02*
X1648753Y-5453031D01*
X1648753Y-5453031D02*
X1658277Y-5443508D01*
X1658277Y-5443508D02*
X1677325Y-5433984D01*
X1677325Y-5433984D02*
X1715420Y-5433984D01*
X1715420Y-5433984D02*
X1734468Y-5443508D01*
X1734468Y-5443508D02*
X1743991Y-5453031D01*
X1743991Y-5453031D02*
X1753515Y-5472079D01*
X1753515Y-5472079D02*
X1753515Y-5481603D01*
X1753515Y-5481603D02*
X1743991Y-5500650D01*
X1743991Y-5500650D02*
X1734468Y-5510174D01*
X1734468Y-5510174D02*
X1715420Y-5519698D01*
X1715420Y-5519698D02*
X1677325Y-5519698D01*
X1677325Y-5519698D02*
X1658277Y-5529222D01*
X1658277Y-5529222D02*
X1648753Y-5538746D01*
X1648753Y-5538746D02*
X1639229Y-5557793D01*
X1639229Y-5557793D02*
X1639229Y-5595888D01*
X1639229Y-5595888D02*
X1648753Y-5614936D01*
X1648753Y-5614936D02*
X1658277Y-5624460D01*
X1658277Y-5624460D02*
X1677325Y-5633984D01*
X1677325Y-5633984D02*
X1715420Y-5633984D01*
X1715420Y-5633984D02*
X1734468Y-5624460D01*
X1734468Y-5624460D02*
X1743991Y-5614936D01*
X1743991Y-5614936D02*
X1753515Y-5595888D01*
X1753515Y-5595888D02*
X1753515Y-5557793D01*
X1753515Y-5557793D02*
X1743991Y-5538746D01*
X1743991Y-5538746D02*
X1734468Y-5529222D01*
X1734468Y-5529222D02*
X1715420Y-5519698D01*
X1877325Y-5433984D02*
X1896372Y-5433984D01*
X1896372Y-5433984D02*
X1915420Y-5443508D01*
X1915420Y-5443508D02*
X1924944Y-5453031D01*
X1924944Y-5453031D02*
X1934468Y-5472079D01*
X1934468Y-5472079D02*
X1943991Y-5510174D01*
X1943991Y-5510174D02*
X1943991Y-5557793D01*
X1943991Y-5557793D02*
X1934468Y-5595888D01*
X1934468Y-5595888D02*
X1924944Y-5614936D01*
X1924944Y-5614936D02*
X1915420Y-5624460D01*
X1915420Y-5624460D02*
X1896372Y-5633984D01*
X1896372Y-5633984D02*
X1877325Y-5633984D01*
X1877325Y-5633984D02*
X1858277Y-5624460D01*
X1858277Y-5624460D02*
X1848753Y-5614936D01*
X1848753Y-5614936D02*
X1839229Y-5595888D01*
X1839229Y-5595888D02*
X1829706Y-5557793D01*
X1829706Y-5557793D02*
X1829706Y-5510174D01*
X1829706Y-5510174D02*
X1839229Y-5472079D01*
X1839229Y-5472079D02*
X1848753Y-5453031D01*
X1848753Y-5453031D02*
X1858277Y-5443508D01*
X1858277Y-5443508D02*
X1877325Y-5433984D01*
X2182087Y-5633984D02*
X2182087Y-5433984D01*
X2267801Y-5633984D02*
X2267801Y-5529222D01*
X2267801Y-5529222D02*
X2258277Y-5510174D01*
X2258277Y-5510174D02*
X2239230Y-5500650D01*
X2239230Y-5500650D02*
X2210658Y-5500650D01*
X2210658Y-5500650D02*
X2191611Y-5510174D01*
X2191611Y-5510174D02*
X2182087Y-5519698D01*
X2391611Y-5633984D02*
X2372563Y-5624460D01*
X2372563Y-5624460D02*
X2363039Y-5614936D01*
X2363039Y-5614936D02*
X2353515Y-5595888D01*
X2353515Y-5595888D02*
X2353515Y-5538746D01*
X2353515Y-5538746D02*
X2363039Y-5519698D01*
X2363039Y-5519698D02*
X2372563Y-5510174D01*
X2372563Y-5510174D02*
X2391611Y-5500650D01*
X2391611Y-5500650D02*
X2420182Y-5500650D01*
X2420182Y-5500650D02*
X2439230Y-5510174D01*
X2439230Y-5510174D02*
X2448753Y-5519698D01*
X2448753Y-5519698D02*
X2458277Y-5538746D01*
X2458277Y-5538746D02*
X2458277Y-5595888D01*
X2458277Y-5595888D02*
X2448753Y-5614936D01*
X2448753Y-5614936D02*
X2439230Y-5624460D01*
X2439230Y-5624460D02*
X2420182Y-5633984D01*
X2420182Y-5633984D02*
X2391611Y-5633984D01*
X2572563Y-5633984D02*
X2553515Y-5624460D01*
X2553515Y-5624460D02*
X2543992Y-5605412D01*
X2543992Y-5605412D02*
X2543992Y-5433984D01*
X2724944Y-5624460D02*
X2705896Y-5633984D01*
X2705896Y-5633984D02*
X2667801Y-5633984D01*
X2667801Y-5633984D02*
X2648753Y-5624460D01*
X2648753Y-5624460D02*
X2639230Y-5605412D01*
X2639230Y-5605412D02*
X2639230Y-5529222D01*
X2639230Y-5529222D02*
X2648753Y-5510174D01*
X2648753Y-5510174D02*
X2667801Y-5500650D01*
X2667801Y-5500650D02*
X2705896Y-5500650D01*
X2705896Y-5500650D02*
X2724944Y-5510174D01*
X2724944Y-5510174D02*
X2734468Y-5529222D01*
X2734468Y-5529222D02*
X2734468Y-5548270D01*
X2734468Y-5548270D02*
X2639230Y-5567317D01*
X2810658Y-5624460D02*
X2829706Y-5633984D01*
X2829706Y-5633984D02*
X2867801Y-5633984D01*
X2867801Y-5633984D02*
X2886849Y-5624460D01*
X2886849Y-5624460D02*
X2896372Y-5605412D01*
X2896372Y-5605412D02*
X2896372Y-5595888D01*
X2896372Y-5595888D02*
X2886849Y-5576841D01*
X2886849Y-5576841D02*
X2867801Y-5567317D01*
X2867801Y-5567317D02*
X2839230Y-5567317D01*
X2839230Y-5567317D02*
X2820182Y-5557793D01*
X2820182Y-5557793D02*
X2810658Y-5538746D01*
X2810658Y-5538746D02*
X2810658Y-5529222D01*
X2810658Y-5529222D02*
X2820182Y-5510174D01*
X2820182Y-5510174D02*
X2839230Y-5500650D01*
X2839230Y-5500650D02*
X2867801Y-5500650D01*
X2867801Y-5500650D02*
X2886849Y-5510174D01*
X2963039Y-5710174D02*
X2972563Y-5700650D01*
X2972563Y-5700650D02*
X2991611Y-5672079D01*
X2991611Y-5672079D02*
X3001134Y-5653031D01*
X3001134Y-5653031D02*
X3010658Y-5624460D01*
X3010658Y-5624460D02*
X3020182Y-5576841D01*
X3020182Y-5576841D02*
X3020182Y-5538746D01*
X3020182Y-5538746D02*
X3010658Y-5491127D01*
X3010658Y-5491127D02*
X3001134Y-5462555D01*
X3001134Y-5462555D02*
X2991611Y-5443508D01*
X2991611Y-5443508D02*
X2972563Y-5414936D01*
X2972563Y-5414936D02*
X2963039Y-5405412D01*
D12*
X-2002500Y-5806500D02*
G75*
G02*
X-2042500Y-5806500I-20000J0D01*
G01*
X-2042500Y-5806500D02*
G75*
G02*
X-2002500Y-5806500I20000J0D01*
G01*
D11*
X-1703628Y-5697984D02*
X-1684580Y-5697984D01*
X-1684580Y-5697984D02*
X-1665533Y-5707508D01*
X-1665533Y-5707508D02*
X-1656009Y-5717031D01*
X-1656009Y-5717031D02*
X-1646485Y-5736079D01*
X-1646485Y-5736079D02*
X-1636961Y-5774174D01*
X-1636961Y-5774174D02*
X-1636961Y-5821793D01*
X-1636961Y-5821793D02*
X-1646485Y-5859888D01*
X-1646485Y-5859888D02*
X-1656009Y-5878936D01*
X-1656009Y-5878936D02*
X-1665533Y-5888460D01*
X-1665533Y-5888460D02*
X-1684580Y-5897984D01*
X-1684580Y-5897984D02*
X-1703628Y-5897984D01*
X-1703628Y-5897984D02*
X-1722675Y-5888460D01*
X-1722675Y-5888460D02*
X-1732199Y-5878936D01*
X-1732199Y-5878936D02*
X-1741723Y-5859888D01*
X-1741723Y-5859888D02*
X-1751247Y-5821793D01*
X-1751247Y-5821793D02*
X-1751247Y-5774174D01*
X-1751247Y-5774174D02*
X-1741723Y-5736079D01*
X-1741723Y-5736079D02*
X-1732199Y-5717031D01*
X-1732199Y-5717031D02*
X-1722675Y-5707508D01*
X-1722675Y-5707508D02*
X-1703628Y-5697984D01*
X-1551247Y-5878936D02*
X-1541723Y-5888460D01*
X-1541723Y-5888460D02*
X-1551247Y-5897984D01*
X-1551247Y-5897984D02*
X-1560771Y-5888460D01*
X-1560771Y-5888460D02*
X-1551247Y-5878936D01*
X-1551247Y-5878936D02*
X-1551247Y-5897984D01*
X-1370295Y-5764650D02*
X-1370295Y-5897984D01*
X-1417914Y-5688460D02*
X-1465533Y-5831317D01*
X-1465533Y-5831317D02*
X-1341723Y-5831317D01*
X-1227437Y-5697984D02*
X-1208390Y-5697984D01*
X-1208390Y-5697984D02*
X-1189342Y-5707508D01*
X-1189342Y-5707508D02*
X-1179818Y-5717031D01*
X-1179818Y-5717031D02*
X-1170295Y-5736079D01*
X-1170295Y-5736079D02*
X-1160771Y-5774174D01*
X-1160771Y-5774174D02*
X-1160771Y-5821793D01*
X-1160771Y-5821793D02*
X-1170295Y-5859888D01*
X-1170295Y-5859888D02*
X-1179818Y-5878936D01*
X-1179818Y-5878936D02*
X-1189342Y-5888460D01*
X-1189342Y-5888460D02*
X-1208390Y-5897984D01*
X-1208390Y-5897984D02*
X-1227437Y-5897984D01*
X-1227437Y-5897984D02*
X-1246485Y-5888460D01*
X-1246485Y-5888460D02*
X-1256009Y-5878936D01*
X-1256009Y-5878936D02*
X-1265533Y-5859888D01*
X-1265533Y-5859888D02*
X-1275056Y-5821793D01*
X-1275056Y-5821793D02*
X-1275056Y-5774174D01*
X-1275056Y-5774174D02*
X-1265533Y-5736079D01*
X-1265533Y-5736079D02*
X-1256009Y-5717031D01*
X-1256009Y-5717031D02*
X-1246485Y-5707508D01*
X-1246485Y-5707508D02*
X-1227437Y-5697984D01*
X-1036961Y-5697984D02*
X-1017913Y-5697984D01*
X-1017913Y-5697984D02*
X-998866Y-5707508D01*
X-998866Y-5707508D02*
X-989342Y-5717031D01*
X-989342Y-5717031D02*
X-979818Y-5736079D01*
X-979818Y-5736079D02*
X-970294Y-5774174D01*
X-970294Y-5774174D02*
X-970294Y-5821793D01*
X-970294Y-5821793D02*
X-979818Y-5859888D01*
X-979818Y-5859888D02*
X-989342Y-5878936D01*
X-989342Y-5878936D02*
X-998866Y-5888460D01*
X-998866Y-5888460D02*
X-1017913Y-5897984D01*
X-1017913Y-5897984D02*
X-1036961Y-5897984D01*
X-1036961Y-5897984D02*
X-1056009Y-5888460D01*
X-1056009Y-5888460D02*
X-1065533Y-5878936D01*
X-1065533Y-5878936D02*
X-1075056Y-5859888D01*
X-1075056Y-5859888D02*
X-1084580Y-5821793D01*
X-1084580Y-5821793D02*
X-1084580Y-5774174D01*
X-1084580Y-5774174D02*
X-1075056Y-5736079D01*
X-1075056Y-5736079D02*
X-1065533Y-5717031D01*
X-1065533Y-5717031D02*
X-1056009Y-5707508D01*
X-1056009Y-5707508D02*
X-1036961Y-5697984D01*
X-884580Y-5897984D02*
X-884580Y-5764650D01*
X-884580Y-5783698D02*
X-875056Y-5774174D01*
X-875056Y-5774174D02*
X-856009Y-5764650D01*
X-856009Y-5764650D02*
X-827437Y-5764650D01*
X-827437Y-5764650D02*
X-808390Y-5774174D01*
X-808390Y-5774174D02*
X-798866Y-5793222D01*
X-798866Y-5793222D02*
X-798866Y-5897984D01*
X-798866Y-5793222D02*
X-789342Y-5774174D01*
X-789342Y-5774174D02*
X-770294Y-5764650D01*
X-770294Y-5764650D02*
X-741723Y-5764650D01*
X-741723Y-5764650D02*
X-722675Y-5774174D01*
X-722675Y-5774174D02*
X-713152Y-5793222D01*
X-713152Y-5793222D02*
X-713152Y-5897984D01*
X-617914Y-5897984D02*
X-617914Y-5764650D01*
X-617914Y-5783698D02*
X-608390Y-5774174D01*
X-608390Y-5774174D02*
X-589342Y-5764650D01*
X-589342Y-5764650D02*
X-560771Y-5764650D01*
X-560771Y-5764650D02*
X-541723Y-5774174D01*
X-541723Y-5774174D02*
X-532199Y-5793222D01*
X-532199Y-5793222D02*
X-532199Y-5897984D01*
X-532199Y-5793222D02*
X-522675Y-5774174D01*
X-522675Y-5774174D02*
X-503628Y-5764650D01*
X-503628Y-5764650D02*
X-475056Y-5764650D01*
X-475056Y-5764650D02*
X-456009Y-5774174D01*
X-456009Y-5774174D02*
X-446485Y-5793222D01*
X-446485Y-5793222D02*
X-446485Y-5897984D01*
X-56009Y-5688460D02*
X-227437Y-5945603D01*
X201134Y-5697984D02*
X220182Y-5697984D01*
X220182Y-5697984D02*
X239229Y-5707508D01*
X239229Y-5707508D02*
X248753Y-5717031D01*
X248753Y-5717031D02*
X258277Y-5736079D01*
X258277Y-5736079D02*
X267801Y-5774174D01*
X267801Y-5774174D02*
X267801Y-5821793D01*
X267801Y-5821793D02*
X258277Y-5859888D01*
X258277Y-5859888D02*
X248753Y-5878936D01*
X248753Y-5878936D02*
X239229Y-5888460D01*
X239229Y-5888460D02*
X220182Y-5897984D01*
X220182Y-5897984D02*
X201134Y-5897984D01*
X201134Y-5897984D02*
X182086Y-5888460D01*
X182086Y-5888460D02*
X172563Y-5878936D01*
X172563Y-5878936D02*
X163039Y-5859888D01*
X163039Y-5859888D02*
X153515Y-5821793D01*
X153515Y-5821793D02*
X153515Y-5774174D01*
X153515Y-5774174D02*
X163039Y-5736079D01*
X163039Y-5736079D02*
X172563Y-5717031D01*
X172563Y-5717031D02*
X182086Y-5707508D01*
X182086Y-5707508D02*
X201134Y-5697984D01*
X353515Y-5878936D02*
X363039Y-5888460D01*
X363039Y-5888460D02*
X353515Y-5897984D01*
X353515Y-5897984D02*
X343991Y-5888460D01*
X343991Y-5888460D02*
X353515Y-5878936D01*
X353515Y-5878936D02*
X353515Y-5897984D01*
X486848Y-5697984D02*
X505896Y-5697984D01*
X505896Y-5697984D02*
X524944Y-5707508D01*
X524944Y-5707508D02*
X534468Y-5717031D01*
X534468Y-5717031D02*
X543991Y-5736079D01*
X543991Y-5736079D02*
X553515Y-5774174D01*
X553515Y-5774174D02*
X553515Y-5821793D01*
X553515Y-5821793D02*
X543991Y-5859888D01*
X543991Y-5859888D02*
X534468Y-5878936D01*
X534468Y-5878936D02*
X524944Y-5888460D01*
X524944Y-5888460D02*
X505896Y-5897984D01*
X505896Y-5897984D02*
X486848Y-5897984D01*
X486848Y-5897984D02*
X467801Y-5888460D01*
X467801Y-5888460D02*
X458277Y-5878936D01*
X458277Y-5878936D02*
X448753Y-5859888D01*
X448753Y-5859888D02*
X439229Y-5821793D01*
X439229Y-5821793D02*
X439229Y-5774174D01*
X439229Y-5774174D02*
X448753Y-5736079D01*
X448753Y-5736079D02*
X458277Y-5717031D01*
X458277Y-5717031D02*
X467801Y-5707508D01*
X467801Y-5707508D02*
X486848Y-5697984D01*
X743991Y-5897984D02*
X629706Y-5897984D01*
X686848Y-5897984D02*
X686848Y-5697984D01*
X686848Y-5697984D02*
X667801Y-5726555D01*
X667801Y-5726555D02*
X648753Y-5745603D01*
X648753Y-5745603D02*
X629706Y-5755127D01*
X924944Y-5697984D02*
X829706Y-5697984D01*
X829706Y-5697984D02*
X820182Y-5793222D01*
X820182Y-5793222D02*
X829706Y-5783698D01*
X829706Y-5783698D02*
X848753Y-5774174D01*
X848753Y-5774174D02*
X896372Y-5774174D01*
X896372Y-5774174D02*
X915420Y-5783698D01*
X915420Y-5783698D02*
X924944Y-5793222D01*
X924944Y-5793222D02*
X934467Y-5812269D01*
X934467Y-5812269D02*
X934467Y-5859888D01*
X934467Y-5859888D02*
X924944Y-5878936D01*
X924944Y-5878936D02*
X915420Y-5888460D01*
X915420Y-5888460D02*
X896372Y-5897984D01*
X896372Y-5897984D02*
X848753Y-5897984D01*
X848753Y-5897984D02*
X829706Y-5888460D01*
X829706Y-5888460D02*
X820182Y-5878936D01*
X1001134Y-5697984D02*
X1134468Y-5697984D01*
X1134468Y-5697984D02*
X1048753Y-5897984D01*
X1201134Y-5697984D02*
X1201134Y-5736079D01*
X1277325Y-5697984D02*
X1277325Y-5736079D01*
X1572563Y-5974174D02*
X1563039Y-5964650D01*
X1563039Y-5964650D02*
X1543991Y-5936079D01*
X1543991Y-5936079D02*
X1534468Y-5917031D01*
X1534468Y-5917031D02*
X1524944Y-5888460D01*
X1524944Y-5888460D02*
X1515420Y-5840841D01*
X1515420Y-5840841D02*
X1515420Y-5802746D01*
X1515420Y-5802746D02*
X1524944Y-5755127D01*
X1524944Y-5755127D02*
X1534468Y-5726555D01*
X1534468Y-5726555D02*
X1543991Y-5707508D01*
X1543991Y-5707508D02*
X1563039Y-5678936D01*
X1563039Y-5678936D02*
X1572563Y-5669412D01*
X1753515Y-5897984D02*
X1639229Y-5897984D01*
X1696372Y-5897984D02*
X1696372Y-5697984D01*
X1696372Y-5697984D02*
X1677325Y-5726555D01*
X1677325Y-5726555D02*
X1658277Y-5745603D01*
X1658277Y-5745603D02*
X1639229Y-5755127D01*
X1924944Y-5697984D02*
X1886848Y-5697984D01*
X1886848Y-5697984D02*
X1867801Y-5707508D01*
X1867801Y-5707508D02*
X1858277Y-5717031D01*
X1858277Y-5717031D02*
X1839229Y-5745603D01*
X1839229Y-5745603D02*
X1829706Y-5783698D01*
X1829706Y-5783698D02*
X1829706Y-5859888D01*
X1829706Y-5859888D02*
X1839229Y-5878936D01*
X1839229Y-5878936D02*
X1848753Y-5888460D01*
X1848753Y-5888460D02*
X1867801Y-5897984D01*
X1867801Y-5897984D02*
X1905896Y-5897984D01*
X1905896Y-5897984D02*
X1924944Y-5888460D01*
X1924944Y-5888460D02*
X1934468Y-5878936D01*
X1934468Y-5878936D02*
X1943991Y-5859888D01*
X1943991Y-5859888D02*
X1943991Y-5812269D01*
X1943991Y-5812269D02*
X1934468Y-5793222D01*
X1934468Y-5793222D02*
X1924944Y-5783698D01*
X1924944Y-5783698D02*
X1905896Y-5774174D01*
X1905896Y-5774174D02*
X1867801Y-5774174D01*
X1867801Y-5774174D02*
X1848753Y-5783698D01*
X1848753Y-5783698D02*
X1839229Y-5793222D01*
X1839229Y-5793222D02*
X1829706Y-5812269D01*
X2182087Y-5897984D02*
X2182087Y-5697984D01*
X2267801Y-5897984D02*
X2267801Y-5793222D01*
X2267801Y-5793222D02*
X2258277Y-5774174D01*
X2258277Y-5774174D02*
X2239230Y-5764650D01*
X2239230Y-5764650D02*
X2210658Y-5764650D01*
X2210658Y-5764650D02*
X2191611Y-5774174D01*
X2191611Y-5774174D02*
X2182087Y-5783698D01*
X2391611Y-5897984D02*
X2372563Y-5888460D01*
X2372563Y-5888460D02*
X2363039Y-5878936D01*
X2363039Y-5878936D02*
X2353515Y-5859888D01*
X2353515Y-5859888D02*
X2353515Y-5802746D01*
X2353515Y-5802746D02*
X2363039Y-5783698D01*
X2363039Y-5783698D02*
X2372563Y-5774174D01*
X2372563Y-5774174D02*
X2391611Y-5764650D01*
X2391611Y-5764650D02*
X2420182Y-5764650D01*
X2420182Y-5764650D02*
X2439230Y-5774174D01*
X2439230Y-5774174D02*
X2448753Y-5783698D01*
X2448753Y-5783698D02*
X2458277Y-5802746D01*
X2458277Y-5802746D02*
X2458277Y-5859888D01*
X2458277Y-5859888D02*
X2448753Y-5878936D01*
X2448753Y-5878936D02*
X2439230Y-5888460D01*
X2439230Y-5888460D02*
X2420182Y-5897984D01*
X2420182Y-5897984D02*
X2391611Y-5897984D01*
X2572563Y-5897984D02*
X2553515Y-5888460D01*
X2553515Y-5888460D02*
X2543992Y-5869412D01*
X2543992Y-5869412D02*
X2543992Y-5697984D01*
X2724944Y-5888460D02*
X2705896Y-5897984D01*
X2705896Y-5897984D02*
X2667801Y-5897984D01*
X2667801Y-5897984D02*
X2648753Y-5888460D01*
X2648753Y-5888460D02*
X2639230Y-5869412D01*
X2639230Y-5869412D02*
X2639230Y-5793222D01*
X2639230Y-5793222D02*
X2648753Y-5774174D01*
X2648753Y-5774174D02*
X2667801Y-5764650D01*
X2667801Y-5764650D02*
X2705896Y-5764650D01*
X2705896Y-5764650D02*
X2724944Y-5774174D01*
X2724944Y-5774174D02*
X2734468Y-5793222D01*
X2734468Y-5793222D02*
X2734468Y-5812269D01*
X2734468Y-5812269D02*
X2639230Y-5831317D01*
X2810658Y-5888460D02*
X2829706Y-5897984D01*
X2829706Y-5897984D02*
X2867801Y-5897984D01*
X2867801Y-5897984D02*
X2886849Y-5888460D01*
X2886849Y-5888460D02*
X2896372Y-5869412D01*
X2896372Y-5869412D02*
X2896372Y-5859888D01*
X2896372Y-5859888D02*
X2886849Y-5840841D01*
X2886849Y-5840841D02*
X2867801Y-5831317D01*
X2867801Y-5831317D02*
X2839230Y-5831317D01*
X2839230Y-5831317D02*
X2820182Y-5821793D01*
X2820182Y-5821793D02*
X2810658Y-5802746D01*
X2810658Y-5802746D02*
X2810658Y-5793222D01*
X2810658Y-5793222D02*
X2820182Y-5774174D01*
X2820182Y-5774174D02*
X2839230Y-5764650D01*
X2839230Y-5764650D02*
X2867801Y-5764650D01*
X2867801Y-5764650D02*
X2886849Y-5774174D01*
X2963039Y-5974174D02*
X2972563Y-5964650D01*
X2972563Y-5964650D02*
X2991611Y-5936079D01*
X2991611Y-5936079D02*
X3001134Y-5917031D01*
X3001134Y-5917031D02*
X3010658Y-5888460D01*
X3010658Y-5888460D02*
X3020182Y-5840841D01*
X3020182Y-5840841D02*
X3020182Y-5802746D01*
X3020182Y-5802746D02*
X3010658Y-5755127D01*
X3010658Y-5755127D02*
X3001134Y-5726555D01*
X3001134Y-5726555D02*
X2991611Y-5707508D01*
X2991611Y-5707508D02*
X2972563Y-5678936D01*
X2972563Y-5678936D02*
X2963039Y-5669412D01*
D12*
X-2032500Y-6040500D02*
X-2032500Y-6100500D01*
X-2062500Y-6070500D02*
X-2002500Y-6070500D01*
D11*
X-1703628Y-5961984D02*
X-1684580Y-5961984D01*
X-1684580Y-5961984D02*
X-1665533Y-5971508D01*
X-1665533Y-5971508D02*
X-1656009Y-5981031D01*
X-1656009Y-5981031D02*
X-1646485Y-6000079D01*
X-1646485Y-6000079D02*
X-1636961Y-6038174D01*
X-1636961Y-6038174D02*
X-1636961Y-6085793D01*
X-1636961Y-6085793D02*
X-1646485Y-6123888D01*
X-1646485Y-6123888D02*
X-1656009Y-6142936D01*
X-1656009Y-6142936D02*
X-1665533Y-6152460D01*
X-1665533Y-6152460D02*
X-1684580Y-6161984D01*
X-1684580Y-6161984D02*
X-1703628Y-6161984D01*
X-1703628Y-6161984D02*
X-1722675Y-6152460D01*
X-1722675Y-6152460D02*
X-1732199Y-6142936D01*
X-1732199Y-6142936D02*
X-1741723Y-6123888D01*
X-1741723Y-6123888D02*
X-1751247Y-6085793D01*
X-1751247Y-6085793D02*
X-1751247Y-6038174D01*
X-1751247Y-6038174D02*
X-1741723Y-6000079D01*
X-1741723Y-6000079D02*
X-1732199Y-5981031D01*
X-1732199Y-5981031D02*
X-1722675Y-5971508D01*
X-1722675Y-5971508D02*
X-1703628Y-5961984D01*
X-1551247Y-6142936D02*
X-1541723Y-6152460D01*
X-1541723Y-6152460D02*
X-1551247Y-6161984D01*
X-1551247Y-6161984D02*
X-1560771Y-6152460D01*
X-1560771Y-6152460D02*
X-1551247Y-6142936D01*
X-1551247Y-6142936D02*
X-1551247Y-6161984D01*
X-1370295Y-5961984D02*
X-1408390Y-5961984D01*
X-1408390Y-5961984D02*
X-1427437Y-5971508D01*
X-1427437Y-5971508D02*
X-1436961Y-5981031D01*
X-1436961Y-5981031D02*
X-1456009Y-6009603D01*
X-1456009Y-6009603D02*
X-1465533Y-6047698D01*
X-1465533Y-6047698D02*
X-1465533Y-6123888D01*
X-1465533Y-6123888D02*
X-1456009Y-6142936D01*
X-1456009Y-6142936D02*
X-1446485Y-6152460D01*
X-1446485Y-6152460D02*
X-1427437Y-6161984D01*
X-1427437Y-6161984D02*
X-1389342Y-6161984D01*
X-1389342Y-6161984D02*
X-1370295Y-6152460D01*
X-1370295Y-6152460D02*
X-1360771Y-6142936D01*
X-1360771Y-6142936D02*
X-1351247Y-6123888D01*
X-1351247Y-6123888D02*
X-1351247Y-6076269D01*
X-1351247Y-6076269D02*
X-1360771Y-6057222D01*
X-1360771Y-6057222D02*
X-1370295Y-6047698D01*
X-1370295Y-6047698D02*
X-1389342Y-6038174D01*
X-1389342Y-6038174D02*
X-1427437Y-6038174D01*
X-1427437Y-6038174D02*
X-1446485Y-6047698D01*
X-1446485Y-6047698D02*
X-1456009Y-6057222D01*
X-1456009Y-6057222D02*
X-1465533Y-6076269D01*
X-1227437Y-5961984D02*
X-1208390Y-5961984D01*
X-1208390Y-5961984D02*
X-1189342Y-5971508D01*
X-1189342Y-5971508D02*
X-1179818Y-5981031D01*
X-1179818Y-5981031D02*
X-1170295Y-6000079D01*
X-1170295Y-6000079D02*
X-1160771Y-6038174D01*
X-1160771Y-6038174D02*
X-1160771Y-6085793D01*
X-1160771Y-6085793D02*
X-1170295Y-6123888D01*
X-1170295Y-6123888D02*
X-1179818Y-6142936D01*
X-1179818Y-6142936D02*
X-1189342Y-6152460D01*
X-1189342Y-6152460D02*
X-1208390Y-6161984D01*
X-1208390Y-6161984D02*
X-1227437Y-6161984D01*
X-1227437Y-6161984D02*
X-1246485Y-6152460D01*
X-1246485Y-6152460D02*
X-1256009Y-6142936D01*
X-1256009Y-6142936D02*
X-1265533Y-6123888D01*
X-1265533Y-6123888D02*
X-1275056Y-6085793D01*
X-1275056Y-6085793D02*
X-1275056Y-6038174D01*
X-1275056Y-6038174D02*
X-1265533Y-6000079D01*
X-1265533Y-6000079D02*
X-1256009Y-5981031D01*
X-1256009Y-5981031D02*
X-1246485Y-5971508D01*
X-1246485Y-5971508D02*
X-1227437Y-5961984D01*
X-1036961Y-5961984D02*
X-1017913Y-5961984D01*
X-1017913Y-5961984D02*
X-998866Y-5971508D01*
X-998866Y-5971508D02*
X-989342Y-5981031D01*
X-989342Y-5981031D02*
X-979818Y-6000079D01*
X-979818Y-6000079D02*
X-970294Y-6038174D01*
X-970294Y-6038174D02*
X-970294Y-6085793D01*
X-970294Y-6085793D02*
X-979818Y-6123888D01*
X-979818Y-6123888D02*
X-989342Y-6142936D01*
X-989342Y-6142936D02*
X-998866Y-6152460D01*
X-998866Y-6152460D02*
X-1017913Y-6161984D01*
X-1017913Y-6161984D02*
X-1036961Y-6161984D01*
X-1036961Y-6161984D02*
X-1056009Y-6152460D01*
X-1056009Y-6152460D02*
X-1065533Y-6142936D01*
X-1065533Y-6142936D02*
X-1075056Y-6123888D01*
X-1075056Y-6123888D02*
X-1084580Y-6085793D01*
X-1084580Y-6085793D02*
X-1084580Y-6038174D01*
X-1084580Y-6038174D02*
X-1075056Y-6000079D01*
X-1075056Y-6000079D02*
X-1065533Y-5981031D01*
X-1065533Y-5981031D02*
X-1056009Y-5971508D01*
X-1056009Y-5971508D02*
X-1036961Y-5961984D01*
X-884580Y-6161984D02*
X-884580Y-6028650D01*
X-884580Y-6047698D02*
X-875056Y-6038174D01*
X-875056Y-6038174D02*
X-856009Y-6028650D01*
X-856009Y-6028650D02*
X-827437Y-6028650D01*
X-827437Y-6028650D02*
X-808390Y-6038174D01*
X-808390Y-6038174D02*
X-798866Y-6057222D01*
X-798866Y-6057222D02*
X-798866Y-6161984D01*
X-798866Y-6057222D02*
X-789342Y-6038174D01*
X-789342Y-6038174D02*
X-770294Y-6028650D01*
X-770294Y-6028650D02*
X-741723Y-6028650D01*
X-741723Y-6028650D02*
X-722675Y-6038174D01*
X-722675Y-6038174D02*
X-713152Y-6057222D01*
X-713152Y-6057222D02*
X-713152Y-6161984D01*
X-617914Y-6161984D02*
X-617914Y-6028650D01*
X-617914Y-6047698D02*
X-608390Y-6038174D01*
X-608390Y-6038174D02*
X-589342Y-6028650D01*
X-589342Y-6028650D02*
X-560771Y-6028650D01*
X-560771Y-6028650D02*
X-541723Y-6038174D01*
X-541723Y-6038174D02*
X-532199Y-6057222D01*
X-532199Y-6057222D02*
X-532199Y-6161984D01*
X-532199Y-6057222D02*
X-522675Y-6038174D01*
X-522675Y-6038174D02*
X-503628Y-6028650D01*
X-503628Y-6028650D02*
X-475056Y-6028650D01*
X-475056Y-6028650D02*
X-456009Y-6038174D01*
X-456009Y-6038174D02*
X-446485Y-6057222D01*
X-446485Y-6057222D02*
X-446485Y-6161984D01*
X-56009Y-5952460D02*
X-227437Y-6209603D01*
X201134Y-5961984D02*
X220182Y-5961984D01*
X220182Y-5961984D02*
X239229Y-5971508D01*
X239229Y-5971508D02*
X248753Y-5981031D01*
X248753Y-5981031D02*
X258277Y-6000079D01*
X258277Y-6000079D02*
X267801Y-6038174D01*
X267801Y-6038174D02*
X267801Y-6085793D01*
X267801Y-6085793D02*
X258277Y-6123888D01*
X258277Y-6123888D02*
X248753Y-6142936D01*
X248753Y-6142936D02*
X239229Y-6152460D01*
X239229Y-6152460D02*
X220182Y-6161984D01*
X220182Y-6161984D02*
X201134Y-6161984D01*
X201134Y-6161984D02*
X182086Y-6152460D01*
X182086Y-6152460D02*
X172563Y-6142936D01*
X172563Y-6142936D02*
X163039Y-6123888D01*
X163039Y-6123888D02*
X153515Y-6085793D01*
X153515Y-6085793D02*
X153515Y-6038174D01*
X153515Y-6038174D02*
X163039Y-6000079D01*
X163039Y-6000079D02*
X172563Y-5981031D01*
X172563Y-5981031D02*
X182086Y-5971508D01*
X182086Y-5971508D02*
X201134Y-5961984D01*
X353515Y-6142936D02*
X363039Y-6152460D01*
X363039Y-6152460D02*
X353515Y-6161984D01*
X353515Y-6161984D02*
X343991Y-6152460D01*
X343991Y-6152460D02*
X353515Y-6142936D01*
X353515Y-6142936D02*
X353515Y-6161984D01*
X486848Y-5961984D02*
X505896Y-5961984D01*
X505896Y-5961984D02*
X524944Y-5971508D01*
X524944Y-5971508D02*
X534468Y-5981031D01*
X534468Y-5981031D02*
X543991Y-6000079D01*
X543991Y-6000079D02*
X553515Y-6038174D01*
X553515Y-6038174D02*
X553515Y-6085793D01*
X553515Y-6085793D02*
X543991Y-6123888D01*
X543991Y-6123888D02*
X534468Y-6142936D01*
X534468Y-6142936D02*
X524944Y-6152460D01*
X524944Y-6152460D02*
X505896Y-6161984D01*
X505896Y-6161984D02*
X486848Y-6161984D01*
X486848Y-6161984D02*
X467801Y-6152460D01*
X467801Y-6152460D02*
X458277Y-6142936D01*
X458277Y-6142936D02*
X448753Y-6123888D01*
X448753Y-6123888D02*
X439229Y-6085793D01*
X439229Y-6085793D02*
X439229Y-6038174D01*
X439229Y-6038174D02*
X448753Y-6000079D01*
X448753Y-6000079D02*
X458277Y-5981031D01*
X458277Y-5981031D02*
X467801Y-5971508D01*
X467801Y-5971508D02*
X486848Y-5961984D01*
X629706Y-5981031D02*
X639229Y-5971508D01*
X639229Y-5971508D02*
X658277Y-5961984D01*
X658277Y-5961984D02*
X705896Y-5961984D01*
X705896Y-5961984D02*
X724944Y-5971508D01*
X724944Y-5971508D02*
X734467Y-5981031D01*
X734467Y-5981031D02*
X743991Y-6000079D01*
X743991Y-6000079D02*
X743991Y-6019127D01*
X743991Y-6019127D02*
X734467Y-6047698D01*
X734467Y-6047698D02*
X620182Y-6161984D01*
X620182Y-6161984D02*
X743991Y-6161984D01*
X810658Y-5961984D02*
X934467Y-5961984D01*
X934467Y-5961984D02*
X867801Y-6038174D01*
X867801Y-6038174D02*
X896372Y-6038174D01*
X896372Y-6038174D02*
X915420Y-6047698D01*
X915420Y-6047698D02*
X924944Y-6057222D01*
X924944Y-6057222D02*
X934467Y-6076269D01*
X934467Y-6076269D02*
X934467Y-6123888D01*
X934467Y-6123888D02*
X924944Y-6142936D01*
X924944Y-6142936D02*
X915420Y-6152460D01*
X915420Y-6152460D02*
X896372Y-6161984D01*
X896372Y-6161984D02*
X839229Y-6161984D01*
X839229Y-6161984D02*
X820182Y-6152460D01*
X820182Y-6152460D02*
X810658Y-6142936D01*
X1105896Y-5961984D02*
X1067801Y-5961984D01*
X1067801Y-5961984D02*
X1048753Y-5971508D01*
X1048753Y-5971508D02*
X1039229Y-5981031D01*
X1039229Y-5981031D02*
X1020182Y-6009603D01*
X1020182Y-6009603D02*
X1010658Y-6047698D01*
X1010658Y-6047698D02*
X1010658Y-6123888D01*
X1010658Y-6123888D02*
X1020182Y-6142936D01*
X1020182Y-6142936D02*
X1029706Y-6152460D01*
X1029706Y-6152460D02*
X1048753Y-6161984D01*
X1048753Y-6161984D02*
X1086849Y-6161984D01*
X1086849Y-6161984D02*
X1105896Y-6152460D01*
X1105896Y-6152460D02*
X1115420Y-6142936D01*
X1115420Y-6142936D02*
X1124944Y-6123888D01*
X1124944Y-6123888D02*
X1124944Y-6076269D01*
X1124944Y-6076269D02*
X1115420Y-6057222D01*
X1115420Y-6057222D02*
X1105896Y-6047698D01*
X1105896Y-6047698D02*
X1086849Y-6038174D01*
X1086849Y-6038174D02*
X1048753Y-6038174D01*
X1048753Y-6038174D02*
X1029706Y-6047698D01*
X1029706Y-6047698D02*
X1020182Y-6057222D01*
X1020182Y-6057222D02*
X1010658Y-6076269D01*
X1201134Y-5961984D02*
X1201134Y-6000079D01*
X1277325Y-5961984D02*
X1277325Y-6000079D01*
X1572563Y-6238174D02*
X1563039Y-6228650D01*
X1563039Y-6228650D02*
X1543991Y-6200079D01*
X1543991Y-6200079D02*
X1534468Y-6181031D01*
X1534468Y-6181031D02*
X1524944Y-6152460D01*
X1524944Y-6152460D02*
X1515420Y-6104841D01*
X1515420Y-6104841D02*
X1515420Y-6066746D01*
X1515420Y-6066746D02*
X1524944Y-6019127D01*
X1524944Y-6019127D02*
X1534468Y-5990555D01*
X1534468Y-5990555D02*
X1543991Y-5971508D01*
X1543991Y-5971508D02*
X1563039Y-5942936D01*
X1563039Y-5942936D02*
X1572563Y-5933412D01*
X1686848Y-5961984D02*
X1705896Y-5961984D01*
X1705896Y-5961984D02*
X1724944Y-5971508D01*
X1724944Y-5971508D02*
X1734468Y-5981031D01*
X1734468Y-5981031D02*
X1743991Y-6000079D01*
X1743991Y-6000079D02*
X1753515Y-6038174D01*
X1753515Y-6038174D02*
X1753515Y-6085793D01*
X1753515Y-6085793D02*
X1743991Y-6123888D01*
X1743991Y-6123888D02*
X1734468Y-6142936D01*
X1734468Y-6142936D02*
X1724944Y-6152460D01*
X1724944Y-6152460D02*
X1705896Y-6161984D01*
X1705896Y-6161984D02*
X1686848Y-6161984D01*
X1686848Y-6161984D02*
X1667801Y-6152460D01*
X1667801Y-6152460D02*
X1658277Y-6142936D01*
X1658277Y-6142936D02*
X1648753Y-6123888D01*
X1648753Y-6123888D02*
X1639229Y-6085793D01*
X1639229Y-6085793D02*
X1639229Y-6038174D01*
X1639229Y-6038174D02*
X1648753Y-6000079D01*
X1648753Y-6000079D02*
X1658277Y-5981031D01*
X1658277Y-5981031D02*
X1667801Y-5971508D01*
X1667801Y-5971508D02*
X1686848Y-5961984D01*
X1991610Y-6161984D02*
X1991610Y-5961984D01*
X2077325Y-6161984D02*
X2077325Y-6057222D01*
X2077325Y-6057222D02*
X2067801Y-6038174D01*
X2067801Y-6038174D02*
X2048753Y-6028650D01*
X2048753Y-6028650D02*
X2020182Y-6028650D01*
X2020182Y-6028650D02*
X2001134Y-6038174D01*
X2001134Y-6038174D02*
X1991610Y-6047698D01*
X2201134Y-6161984D02*
X2182087Y-6152460D01*
X2182087Y-6152460D02*
X2172563Y-6142936D01*
X2172563Y-6142936D02*
X2163039Y-6123888D01*
X2163039Y-6123888D02*
X2163039Y-6066746D01*
X2163039Y-6066746D02*
X2172563Y-6047698D01*
X2172563Y-6047698D02*
X2182087Y-6038174D01*
X2182087Y-6038174D02*
X2201134Y-6028650D01*
X2201134Y-6028650D02*
X2229706Y-6028650D01*
X2229706Y-6028650D02*
X2248753Y-6038174D01*
X2248753Y-6038174D02*
X2258277Y-6047698D01*
X2258277Y-6047698D02*
X2267801Y-6066746D01*
X2267801Y-6066746D02*
X2267801Y-6123888D01*
X2267801Y-6123888D02*
X2258277Y-6142936D01*
X2258277Y-6142936D02*
X2248753Y-6152460D01*
X2248753Y-6152460D02*
X2229706Y-6161984D01*
X2229706Y-6161984D02*
X2201134Y-6161984D01*
X2382087Y-6161984D02*
X2363039Y-6152460D01*
X2363039Y-6152460D02*
X2353515Y-6133412D01*
X2353515Y-6133412D02*
X2353515Y-5961984D01*
X2534468Y-6152460D02*
X2515420Y-6161984D01*
X2515420Y-6161984D02*
X2477325Y-6161984D01*
X2477325Y-6161984D02*
X2458277Y-6152460D01*
X2458277Y-6152460D02*
X2448753Y-6133412D01*
X2448753Y-6133412D02*
X2448753Y-6057222D01*
X2448753Y-6057222D02*
X2458277Y-6038174D01*
X2458277Y-6038174D02*
X2477325Y-6028650D01*
X2477325Y-6028650D02*
X2515420Y-6028650D01*
X2515420Y-6028650D02*
X2534468Y-6038174D01*
X2534468Y-6038174D02*
X2543992Y-6057222D01*
X2543992Y-6057222D02*
X2543992Y-6076269D01*
X2543992Y-6076269D02*
X2448753Y-6095317D01*
X2620182Y-6152460D02*
X2639230Y-6161984D01*
X2639230Y-6161984D02*
X2677325Y-6161984D01*
X2677325Y-6161984D02*
X2696373Y-6152460D01*
X2696373Y-6152460D02*
X2705896Y-6133412D01*
X2705896Y-6133412D02*
X2705896Y-6123888D01*
X2705896Y-6123888D02*
X2696373Y-6104841D01*
X2696373Y-6104841D02*
X2677325Y-6095317D01*
X2677325Y-6095317D02*
X2648753Y-6095317D01*
X2648753Y-6095317D02*
X2629706Y-6085793D01*
X2629706Y-6085793D02*
X2620182Y-6066746D01*
X2620182Y-6066746D02*
X2620182Y-6057222D01*
X2620182Y-6057222D02*
X2629706Y-6038174D01*
X2629706Y-6038174D02*
X2648753Y-6028650D01*
X2648753Y-6028650D02*
X2677325Y-6028650D01*
X2677325Y-6028650D02*
X2696373Y-6038174D01*
X2943992Y-6085793D02*
X3096373Y-6085793D01*
X3020182Y-6161984D02*
X3020182Y-6009603D01*
X3429706Y-6028650D02*
X3429706Y-6161984D01*
X3382087Y-5952460D02*
X3334468Y-6095317D01*
X3334468Y-6095317D02*
X3458277Y-6095317D01*
X3677325Y-6152460D02*
X3696373Y-6161984D01*
X3696373Y-6161984D02*
X3734468Y-6161984D01*
X3734468Y-6161984D02*
X3753515Y-6152460D01*
X3753515Y-6152460D02*
X3763039Y-6133412D01*
X3763039Y-6133412D02*
X3763039Y-6123888D01*
X3763039Y-6123888D02*
X3753515Y-6104841D01*
X3753515Y-6104841D02*
X3734468Y-6095317D01*
X3734468Y-6095317D02*
X3705896Y-6095317D01*
X3705896Y-6095317D02*
X3686849Y-6085793D01*
X3686849Y-6085793D02*
X3677325Y-6066746D01*
X3677325Y-6066746D02*
X3677325Y-6057222D01*
X3677325Y-6057222D02*
X3686849Y-6038174D01*
X3686849Y-6038174D02*
X3705896Y-6028650D01*
X3705896Y-6028650D02*
X3734468Y-6028650D01*
X3734468Y-6028650D02*
X3753515Y-6038174D01*
X3877325Y-6161984D02*
X3858277Y-6152460D01*
X3858277Y-6152460D02*
X3848754Y-6133412D01*
X3848754Y-6133412D02*
X3848754Y-5961984D01*
X3982087Y-6161984D02*
X3963039Y-6152460D01*
X3963039Y-6152460D02*
X3953515Y-6142936D01*
X3953515Y-6142936D02*
X3943992Y-6123888D01*
X3943992Y-6123888D02*
X3943992Y-6066746D01*
X3943992Y-6066746D02*
X3953515Y-6047698D01*
X3953515Y-6047698D02*
X3963039Y-6038174D01*
X3963039Y-6038174D02*
X3982087Y-6028650D01*
X3982087Y-6028650D02*
X4010658Y-6028650D01*
X4010658Y-6028650D02*
X4029706Y-6038174D01*
X4029706Y-6038174D02*
X4039230Y-6047698D01*
X4039230Y-6047698D02*
X4048754Y-6066746D01*
X4048754Y-6066746D02*
X4048754Y-6123888D01*
X4048754Y-6123888D02*
X4039230Y-6142936D01*
X4039230Y-6142936D02*
X4029706Y-6152460D01*
X4029706Y-6152460D02*
X4010658Y-6161984D01*
X4010658Y-6161984D02*
X3982087Y-6161984D01*
X4105896Y-6028650D02*
X4182087Y-6028650D01*
X4134468Y-5961984D02*
X4134468Y-6133412D01*
X4134468Y-6133412D02*
X4143992Y-6152460D01*
X4143992Y-6152460D02*
X4163039Y-6161984D01*
X4163039Y-6161984D02*
X4182087Y-6161984D01*
X4239230Y-6152460D02*
X4258277Y-6161984D01*
X4258277Y-6161984D02*
X4296373Y-6161984D01*
X4296373Y-6161984D02*
X4315420Y-6152460D01*
X4315420Y-6152460D02*
X4324944Y-6133412D01*
X4324944Y-6133412D02*
X4324944Y-6123888D01*
X4324944Y-6123888D02*
X4315420Y-6104841D01*
X4315420Y-6104841D02*
X4296373Y-6095317D01*
X4296373Y-6095317D02*
X4267801Y-6095317D01*
X4267801Y-6095317D02*
X4248754Y-6085793D01*
X4248754Y-6085793D02*
X4239230Y-6066746D01*
X4239230Y-6066746D02*
X4239230Y-6057222D01*
X4239230Y-6057222D02*
X4248754Y-6038174D01*
X4248754Y-6038174D02*
X4267801Y-6028650D01*
X4267801Y-6028650D02*
X4296373Y-6028650D01*
X4296373Y-6028650D02*
X4315420Y-6038174D01*
X4391611Y-6238174D02*
X4401135Y-6228650D01*
X4401135Y-6228650D02*
X4420182Y-6200079D01*
X4420182Y-6200079D02*
X4429706Y-6181031D01*
X4429706Y-6181031D02*
X4439230Y-6152460D01*
X4439230Y-6152460D02*
X4448754Y-6104841D01*
X4448754Y-6104841D02*
X4448754Y-6066746D01*
X4448754Y-6066746D02*
X4439230Y-6019127D01*
X4439230Y-6019127D02*
X4429706Y-5990555D01*
X4429706Y-5990555D02*
X4420182Y-5971508D01*
X4420182Y-5971508D02*
X4401135Y-5942936D01*
X4401135Y-5942936D02*
X4391611Y-5933412D01*
D12*
X-2017144Y-6369856D02*
X-2017144Y-6299144D01*
X-2087856Y-6299144D01*
X-2087856Y-6369856D01*
X-2017144Y-6369856D01*
D11*
X-1636961Y-6425984D02*
X-1751247Y-6425984D01*
X-1694104Y-6425984D02*
X-1694104Y-6225984D01*
X-1694104Y-6225984D02*
X-1713152Y-6254555D01*
X-1713152Y-6254555D02*
X-1732199Y-6273603D01*
X-1732199Y-6273603D02*
X-1751247Y-6283127D01*
X-1551247Y-6406936D02*
X-1541723Y-6416460D01*
X-1541723Y-6416460D02*
X-1551247Y-6425984D01*
X-1551247Y-6425984D02*
X-1560771Y-6416460D01*
X-1560771Y-6416460D02*
X-1551247Y-6406936D01*
X-1551247Y-6406936D02*
X-1551247Y-6425984D01*
X-1417914Y-6225984D02*
X-1398866Y-6225984D01*
X-1398866Y-6225984D02*
X-1379818Y-6235508D01*
X-1379818Y-6235508D02*
X-1370295Y-6245031D01*
X-1370295Y-6245031D02*
X-1360771Y-6264079D01*
X-1360771Y-6264079D02*
X-1351247Y-6302174D01*
X-1351247Y-6302174D02*
X-1351247Y-6349793D01*
X-1351247Y-6349793D02*
X-1360771Y-6387888D01*
X-1360771Y-6387888D02*
X-1370295Y-6406936D01*
X-1370295Y-6406936D02*
X-1379818Y-6416460D01*
X-1379818Y-6416460D02*
X-1398866Y-6425984D01*
X-1398866Y-6425984D02*
X-1417914Y-6425984D01*
X-1417914Y-6425984D02*
X-1436961Y-6416460D01*
X-1436961Y-6416460D02*
X-1446485Y-6406936D01*
X-1446485Y-6406936D02*
X-1456009Y-6387888D01*
X-1456009Y-6387888D02*
X-1465533Y-6349793D01*
X-1465533Y-6349793D02*
X-1465533Y-6302174D01*
X-1465533Y-6302174D02*
X-1456009Y-6264079D01*
X-1456009Y-6264079D02*
X-1446485Y-6245031D01*
X-1446485Y-6245031D02*
X-1436961Y-6235508D01*
X-1436961Y-6235508D02*
X-1417914Y-6225984D01*
X-1227437Y-6225984D02*
X-1208390Y-6225984D01*
X-1208390Y-6225984D02*
X-1189342Y-6235508D01*
X-1189342Y-6235508D02*
X-1179818Y-6245031D01*
X-1179818Y-6245031D02*
X-1170295Y-6264079D01*
X-1170295Y-6264079D02*
X-1160771Y-6302174D01*
X-1160771Y-6302174D02*
X-1160771Y-6349793D01*
X-1160771Y-6349793D02*
X-1170295Y-6387888D01*
X-1170295Y-6387888D02*
X-1179818Y-6406936D01*
X-1179818Y-6406936D02*
X-1189342Y-6416460D01*
X-1189342Y-6416460D02*
X-1208390Y-6425984D01*
X-1208390Y-6425984D02*
X-1227437Y-6425984D01*
X-1227437Y-6425984D02*
X-1246485Y-6416460D01*
X-1246485Y-6416460D02*
X-1256009Y-6406936D01*
X-1256009Y-6406936D02*
X-1265533Y-6387888D01*
X-1265533Y-6387888D02*
X-1275056Y-6349793D01*
X-1275056Y-6349793D02*
X-1275056Y-6302174D01*
X-1275056Y-6302174D02*
X-1265533Y-6264079D01*
X-1265533Y-6264079D02*
X-1256009Y-6245031D01*
X-1256009Y-6245031D02*
X-1246485Y-6235508D01*
X-1246485Y-6235508D02*
X-1227437Y-6225984D01*
X-1036961Y-6225984D02*
X-1017913Y-6225984D01*
X-1017913Y-6225984D02*
X-998866Y-6235508D01*
X-998866Y-6235508D02*
X-989342Y-6245031D01*
X-989342Y-6245031D02*
X-979818Y-6264079D01*
X-979818Y-6264079D02*
X-970294Y-6302174D01*
X-970294Y-6302174D02*
X-970294Y-6349793D01*
X-970294Y-6349793D02*
X-979818Y-6387888D01*
X-979818Y-6387888D02*
X-989342Y-6406936D01*
X-989342Y-6406936D02*
X-998866Y-6416460D01*
X-998866Y-6416460D02*
X-1017913Y-6425984D01*
X-1017913Y-6425984D02*
X-1036961Y-6425984D01*
X-1036961Y-6425984D02*
X-1056009Y-6416460D01*
X-1056009Y-6416460D02*
X-1065533Y-6406936D01*
X-1065533Y-6406936D02*
X-1075056Y-6387888D01*
X-1075056Y-6387888D02*
X-1084580Y-6349793D01*
X-1084580Y-6349793D02*
X-1084580Y-6302174D01*
X-1084580Y-6302174D02*
X-1075056Y-6264079D01*
X-1075056Y-6264079D02*
X-1065533Y-6245031D01*
X-1065533Y-6245031D02*
X-1056009Y-6235508D01*
X-1056009Y-6235508D02*
X-1036961Y-6225984D01*
X-884580Y-6425984D02*
X-884580Y-6292650D01*
X-884580Y-6311698D02*
X-875056Y-6302174D01*
X-875056Y-6302174D02*
X-856009Y-6292650D01*
X-856009Y-6292650D02*
X-827437Y-6292650D01*
X-827437Y-6292650D02*
X-808390Y-6302174D01*
X-808390Y-6302174D02*
X-798866Y-6321222D01*
X-798866Y-6321222D02*
X-798866Y-6425984D01*
X-798866Y-6321222D02*
X-789342Y-6302174D01*
X-789342Y-6302174D02*
X-770294Y-6292650D01*
X-770294Y-6292650D02*
X-741723Y-6292650D01*
X-741723Y-6292650D02*
X-722675Y-6302174D01*
X-722675Y-6302174D02*
X-713152Y-6321222D01*
X-713152Y-6321222D02*
X-713152Y-6425984D01*
X-617914Y-6425984D02*
X-617914Y-6292650D01*
X-617914Y-6311698D02*
X-608390Y-6302174D01*
X-608390Y-6302174D02*
X-589342Y-6292650D01*
X-589342Y-6292650D02*
X-560771Y-6292650D01*
X-560771Y-6292650D02*
X-541723Y-6302174D01*
X-541723Y-6302174D02*
X-532199Y-6321222D01*
X-532199Y-6321222D02*
X-532199Y-6425984D01*
X-532199Y-6321222D02*
X-522675Y-6302174D01*
X-522675Y-6302174D02*
X-503628Y-6292650D01*
X-503628Y-6292650D02*
X-475056Y-6292650D01*
X-475056Y-6292650D02*
X-456009Y-6302174D01*
X-456009Y-6302174D02*
X-446485Y-6321222D01*
X-446485Y-6321222D02*
X-446485Y-6425984D01*
X-56009Y-6216460D02*
X-227437Y-6473603D01*
X201134Y-6225984D02*
X220182Y-6225984D01*
X220182Y-6225984D02*
X239229Y-6235508D01*
X239229Y-6235508D02*
X248753Y-6245031D01*
X248753Y-6245031D02*
X258277Y-6264079D01*
X258277Y-6264079D02*
X267801Y-6302174D01*
X267801Y-6302174D02*
X267801Y-6349793D01*
X267801Y-6349793D02*
X258277Y-6387888D01*
X258277Y-6387888D02*
X248753Y-6406936D01*
X248753Y-6406936D02*
X239229Y-6416460D01*
X239229Y-6416460D02*
X220182Y-6425984D01*
X220182Y-6425984D02*
X201134Y-6425984D01*
X201134Y-6425984D02*
X182086Y-6416460D01*
X182086Y-6416460D02*
X172563Y-6406936D01*
X172563Y-6406936D02*
X163039Y-6387888D01*
X163039Y-6387888D02*
X153515Y-6349793D01*
X153515Y-6349793D02*
X153515Y-6302174D01*
X153515Y-6302174D02*
X163039Y-6264079D01*
X163039Y-6264079D02*
X172563Y-6245031D01*
X172563Y-6245031D02*
X182086Y-6235508D01*
X182086Y-6235508D02*
X201134Y-6225984D01*
X353515Y-6406936D02*
X363039Y-6416460D01*
X363039Y-6416460D02*
X353515Y-6425984D01*
X353515Y-6425984D02*
X343991Y-6416460D01*
X343991Y-6416460D02*
X353515Y-6406936D01*
X353515Y-6406936D02*
X353515Y-6425984D01*
X486848Y-6225984D02*
X505896Y-6225984D01*
X505896Y-6225984D02*
X524944Y-6235508D01*
X524944Y-6235508D02*
X534468Y-6245031D01*
X534468Y-6245031D02*
X543991Y-6264079D01*
X543991Y-6264079D02*
X553515Y-6302174D01*
X553515Y-6302174D02*
X553515Y-6349793D01*
X553515Y-6349793D02*
X543991Y-6387888D01*
X543991Y-6387888D02*
X534468Y-6406936D01*
X534468Y-6406936D02*
X524944Y-6416460D01*
X524944Y-6416460D02*
X505896Y-6425984D01*
X505896Y-6425984D02*
X486848Y-6425984D01*
X486848Y-6425984D02*
X467801Y-6416460D01*
X467801Y-6416460D02*
X458277Y-6406936D01*
X458277Y-6406936D02*
X448753Y-6387888D01*
X448753Y-6387888D02*
X439229Y-6349793D01*
X439229Y-6349793D02*
X439229Y-6302174D01*
X439229Y-6302174D02*
X448753Y-6264079D01*
X448753Y-6264079D02*
X458277Y-6245031D01*
X458277Y-6245031D02*
X467801Y-6235508D01*
X467801Y-6235508D02*
X486848Y-6225984D01*
X620182Y-6225984D02*
X743991Y-6225984D01*
X743991Y-6225984D02*
X677325Y-6302174D01*
X677325Y-6302174D02*
X705896Y-6302174D01*
X705896Y-6302174D02*
X724944Y-6311698D01*
X724944Y-6311698D02*
X734467Y-6321222D01*
X734467Y-6321222D02*
X743991Y-6340269D01*
X743991Y-6340269D02*
X743991Y-6387888D01*
X743991Y-6387888D02*
X734467Y-6406936D01*
X734467Y-6406936D02*
X724944Y-6416460D01*
X724944Y-6416460D02*
X705896Y-6425984D01*
X705896Y-6425984D02*
X648753Y-6425984D01*
X648753Y-6425984D02*
X629706Y-6416460D01*
X629706Y-6416460D02*
X620182Y-6406936D01*
X839229Y-6425984D02*
X877325Y-6425984D01*
X877325Y-6425984D02*
X896372Y-6416460D01*
X896372Y-6416460D02*
X905896Y-6406936D01*
X905896Y-6406936D02*
X924944Y-6378365D01*
X924944Y-6378365D02*
X934467Y-6340269D01*
X934467Y-6340269D02*
X934467Y-6264079D01*
X934467Y-6264079D02*
X924944Y-6245031D01*
X924944Y-6245031D02*
X915420Y-6235508D01*
X915420Y-6235508D02*
X896372Y-6225984D01*
X896372Y-6225984D02*
X858277Y-6225984D01*
X858277Y-6225984D02*
X839229Y-6235508D01*
X839229Y-6235508D02*
X829706Y-6245031D01*
X829706Y-6245031D02*
X820182Y-6264079D01*
X820182Y-6264079D02*
X820182Y-6311698D01*
X820182Y-6311698D02*
X829706Y-6330746D01*
X829706Y-6330746D02*
X839229Y-6340269D01*
X839229Y-6340269D02*
X858277Y-6349793D01*
X858277Y-6349793D02*
X896372Y-6349793D01*
X896372Y-6349793D02*
X915420Y-6340269D01*
X915420Y-6340269D02*
X924944Y-6330746D01*
X924944Y-6330746D02*
X934467Y-6311698D01*
X1105896Y-6292650D02*
X1105896Y-6425984D01*
X1058277Y-6216460D02*
X1010658Y-6359317D01*
X1010658Y-6359317D02*
X1134468Y-6359317D01*
X1201134Y-6225984D02*
X1201134Y-6264079D01*
X1277325Y-6225984D02*
X1277325Y-6264079D01*
X1572563Y-6502174D02*
X1563039Y-6492650D01*
X1563039Y-6492650D02*
X1543991Y-6464079D01*
X1543991Y-6464079D02*
X1534468Y-6445031D01*
X1534468Y-6445031D02*
X1524944Y-6416460D01*
X1524944Y-6416460D02*
X1515420Y-6368841D01*
X1515420Y-6368841D02*
X1515420Y-6330746D01*
X1515420Y-6330746D02*
X1524944Y-6283127D01*
X1524944Y-6283127D02*
X1534468Y-6254555D01*
X1534468Y-6254555D02*
X1543991Y-6235508D01*
X1543991Y-6235508D02*
X1563039Y-6206936D01*
X1563039Y-6206936D02*
X1572563Y-6197412D01*
X1629706Y-6225984D02*
X1763039Y-6225984D01*
X1763039Y-6225984D02*
X1677325Y-6425984D01*
X1991610Y-6425984D02*
X1991610Y-6225984D01*
X2077325Y-6425984D02*
X2077325Y-6321222D01*
X2077325Y-6321222D02*
X2067801Y-6302174D01*
X2067801Y-6302174D02*
X2048753Y-6292650D01*
X2048753Y-6292650D02*
X2020182Y-6292650D01*
X2020182Y-6292650D02*
X2001134Y-6302174D01*
X2001134Y-6302174D02*
X1991610Y-6311698D01*
X2201134Y-6425984D02*
X2182087Y-6416460D01*
X2182087Y-6416460D02*
X2172563Y-6406936D01*
X2172563Y-6406936D02*
X2163039Y-6387888D01*
X2163039Y-6387888D02*
X2163039Y-6330746D01*
X2163039Y-6330746D02*
X2172563Y-6311698D01*
X2172563Y-6311698D02*
X2182087Y-6302174D01*
X2182087Y-6302174D02*
X2201134Y-6292650D01*
X2201134Y-6292650D02*
X2229706Y-6292650D01*
X2229706Y-6292650D02*
X2248753Y-6302174D01*
X2248753Y-6302174D02*
X2258277Y-6311698D01*
X2258277Y-6311698D02*
X2267801Y-6330746D01*
X2267801Y-6330746D02*
X2267801Y-6387888D01*
X2267801Y-6387888D02*
X2258277Y-6406936D01*
X2258277Y-6406936D02*
X2248753Y-6416460D01*
X2248753Y-6416460D02*
X2229706Y-6425984D01*
X2229706Y-6425984D02*
X2201134Y-6425984D01*
X2382087Y-6425984D02*
X2363039Y-6416460D01*
X2363039Y-6416460D02*
X2353515Y-6397412D01*
X2353515Y-6397412D02*
X2353515Y-6225984D01*
X2534468Y-6416460D02*
X2515420Y-6425984D01*
X2515420Y-6425984D02*
X2477325Y-6425984D01*
X2477325Y-6425984D02*
X2458277Y-6416460D01*
X2458277Y-6416460D02*
X2448753Y-6397412D01*
X2448753Y-6397412D02*
X2448753Y-6321222D01*
X2448753Y-6321222D02*
X2458277Y-6302174D01*
X2458277Y-6302174D02*
X2477325Y-6292650D01*
X2477325Y-6292650D02*
X2515420Y-6292650D01*
X2515420Y-6292650D02*
X2534468Y-6302174D01*
X2534468Y-6302174D02*
X2543992Y-6321222D01*
X2543992Y-6321222D02*
X2543992Y-6340269D01*
X2543992Y-6340269D02*
X2448753Y-6359317D01*
X2620182Y-6416460D02*
X2639230Y-6425984D01*
X2639230Y-6425984D02*
X2677325Y-6425984D01*
X2677325Y-6425984D02*
X2696373Y-6416460D01*
X2696373Y-6416460D02*
X2705896Y-6397412D01*
X2705896Y-6397412D02*
X2705896Y-6387888D01*
X2705896Y-6387888D02*
X2696373Y-6368841D01*
X2696373Y-6368841D02*
X2677325Y-6359317D01*
X2677325Y-6359317D02*
X2648753Y-6359317D01*
X2648753Y-6359317D02*
X2629706Y-6349793D01*
X2629706Y-6349793D02*
X2620182Y-6330746D01*
X2620182Y-6330746D02*
X2620182Y-6321222D01*
X2620182Y-6321222D02*
X2629706Y-6302174D01*
X2629706Y-6302174D02*
X2648753Y-6292650D01*
X2648753Y-6292650D02*
X2677325Y-6292650D01*
X2677325Y-6292650D02*
X2696373Y-6302174D01*
X2772563Y-6502174D02*
X2782087Y-6492650D01*
X2782087Y-6492650D02*
X2801134Y-6464079D01*
X2801134Y-6464079D02*
X2810658Y-6445031D01*
X2810658Y-6445031D02*
X2820182Y-6416460D01*
X2820182Y-6416460D02*
X2829706Y-6368841D01*
X2829706Y-6368841D02*
X2829706Y-6330746D01*
X2829706Y-6330746D02*
X2820182Y-6283127D01*
X2820182Y-6283127D02*
X2810658Y-6254555D01*
X2810658Y-6254555D02*
X2801134Y-6235508D01*
X2801134Y-6235508D02*
X2782087Y-6206936D01*
X2782087Y-6206936D02*
X2772563Y-6197412D01*
D13*
X-2062500Y-6658500D02*
X-2002500Y-6598500D01*
X-2062500Y-6538500D01*
X-2122500Y-6598500D01*
X-2062500Y-6658500D01*
D11*
X-1636961Y-6689984D02*
X-1751247Y-6689984D01*
X-1694104Y-6689984D02*
X-1694104Y-6489984D01*
X-1694104Y-6489984D02*
X-1713152Y-6518555D01*
X-1713152Y-6518555D02*
X-1732199Y-6537603D01*
X-1732199Y-6537603D02*
X-1751247Y-6547127D01*
X-1551247Y-6670936D02*
X-1541723Y-6680460D01*
X-1541723Y-6680460D02*
X-1551247Y-6689984D01*
X-1551247Y-6689984D02*
X-1560771Y-6680460D01*
X-1560771Y-6680460D02*
X-1551247Y-6670936D01*
X-1551247Y-6670936D02*
X-1551247Y-6689984D01*
X-1465533Y-6509031D02*
X-1456009Y-6499508D01*
X-1456009Y-6499508D02*
X-1436961Y-6489984D01*
X-1436961Y-6489984D02*
X-1389342Y-6489984D01*
X-1389342Y-6489984D02*
X-1370295Y-6499508D01*
X-1370295Y-6499508D02*
X-1360771Y-6509031D01*
X-1360771Y-6509031D02*
X-1351247Y-6528079D01*
X-1351247Y-6528079D02*
X-1351247Y-6547127D01*
X-1351247Y-6547127D02*
X-1360771Y-6575698D01*
X-1360771Y-6575698D02*
X-1475056Y-6689984D01*
X-1475056Y-6689984D02*
X-1351247Y-6689984D01*
X-1227437Y-6489984D02*
X-1208390Y-6489984D01*
X-1208390Y-6489984D02*
X-1189342Y-6499508D01*
X-1189342Y-6499508D02*
X-1179818Y-6509031D01*
X-1179818Y-6509031D02*
X-1170295Y-6528079D01*
X-1170295Y-6528079D02*
X-1160771Y-6566174D01*
X-1160771Y-6566174D02*
X-1160771Y-6613793D01*
X-1160771Y-6613793D02*
X-1170295Y-6651888D01*
X-1170295Y-6651888D02*
X-1179818Y-6670936D01*
X-1179818Y-6670936D02*
X-1189342Y-6680460D01*
X-1189342Y-6680460D02*
X-1208390Y-6689984D01*
X-1208390Y-6689984D02*
X-1227437Y-6689984D01*
X-1227437Y-6689984D02*
X-1246485Y-6680460D01*
X-1246485Y-6680460D02*
X-1256009Y-6670936D01*
X-1256009Y-6670936D02*
X-1265533Y-6651888D01*
X-1265533Y-6651888D02*
X-1275056Y-6613793D01*
X-1275056Y-6613793D02*
X-1275056Y-6566174D01*
X-1275056Y-6566174D02*
X-1265533Y-6528079D01*
X-1265533Y-6528079D02*
X-1256009Y-6509031D01*
X-1256009Y-6509031D02*
X-1246485Y-6499508D01*
X-1246485Y-6499508D02*
X-1227437Y-6489984D01*
X-1036961Y-6489984D02*
X-1017913Y-6489984D01*
X-1017913Y-6489984D02*
X-998866Y-6499508D01*
X-998866Y-6499508D02*
X-989342Y-6509031D01*
X-989342Y-6509031D02*
X-979818Y-6528079D01*
X-979818Y-6528079D02*
X-970294Y-6566174D01*
X-970294Y-6566174D02*
X-970294Y-6613793D01*
X-970294Y-6613793D02*
X-979818Y-6651888D01*
X-979818Y-6651888D02*
X-989342Y-6670936D01*
X-989342Y-6670936D02*
X-998866Y-6680460D01*
X-998866Y-6680460D02*
X-1017913Y-6689984D01*
X-1017913Y-6689984D02*
X-1036961Y-6689984D01*
X-1036961Y-6689984D02*
X-1056009Y-6680460D01*
X-1056009Y-6680460D02*
X-1065533Y-6670936D01*
X-1065533Y-6670936D02*
X-1075056Y-6651888D01*
X-1075056Y-6651888D02*
X-1084580Y-6613793D01*
X-1084580Y-6613793D02*
X-1084580Y-6566174D01*
X-1084580Y-6566174D02*
X-1075056Y-6528079D01*
X-1075056Y-6528079D02*
X-1065533Y-6509031D01*
X-1065533Y-6509031D02*
X-1056009Y-6499508D01*
X-1056009Y-6499508D02*
X-1036961Y-6489984D01*
X-884580Y-6689984D02*
X-884580Y-6556650D01*
X-884580Y-6575698D02*
X-875056Y-6566174D01*
X-875056Y-6566174D02*
X-856009Y-6556650D01*
X-856009Y-6556650D02*
X-827437Y-6556650D01*
X-827437Y-6556650D02*
X-808390Y-6566174D01*
X-808390Y-6566174D02*
X-798866Y-6585222D01*
X-798866Y-6585222D02*
X-798866Y-6689984D01*
X-798866Y-6585222D02*
X-789342Y-6566174D01*
X-789342Y-6566174D02*
X-770294Y-6556650D01*
X-770294Y-6556650D02*
X-741723Y-6556650D01*
X-741723Y-6556650D02*
X-722675Y-6566174D01*
X-722675Y-6566174D02*
X-713152Y-6585222D01*
X-713152Y-6585222D02*
X-713152Y-6689984D01*
X-617914Y-6689984D02*
X-617914Y-6556650D01*
X-617914Y-6575698D02*
X-608390Y-6566174D01*
X-608390Y-6566174D02*
X-589342Y-6556650D01*
X-589342Y-6556650D02*
X-560771Y-6556650D01*
X-560771Y-6556650D02*
X-541723Y-6566174D01*
X-541723Y-6566174D02*
X-532199Y-6585222D01*
X-532199Y-6585222D02*
X-532199Y-6689984D01*
X-532199Y-6585222D02*
X-522675Y-6566174D01*
X-522675Y-6566174D02*
X-503628Y-6556650D01*
X-503628Y-6556650D02*
X-475056Y-6556650D01*
X-475056Y-6556650D02*
X-456009Y-6566174D01*
X-456009Y-6566174D02*
X-446485Y-6585222D01*
X-446485Y-6585222D02*
X-446485Y-6689984D01*
X-56009Y-6480460D02*
X-227437Y-6737603D01*
X201134Y-6489984D02*
X220182Y-6489984D01*
X220182Y-6489984D02*
X239229Y-6499508D01*
X239229Y-6499508D02*
X248753Y-6509031D01*
X248753Y-6509031D02*
X258277Y-6528079D01*
X258277Y-6528079D02*
X267801Y-6566174D01*
X267801Y-6566174D02*
X267801Y-6613793D01*
X267801Y-6613793D02*
X258277Y-6651888D01*
X258277Y-6651888D02*
X248753Y-6670936D01*
X248753Y-6670936D02*
X239229Y-6680460D01*
X239229Y-6680460D02*
X220182Y-6689984D01*
X220182Y-6689984D02*
X201134Y-6689984D01*
X201134Y-6689984D02*
X182086Y-6680460D01*
X182086Y-6680460D02*
X172563Y-6670936D01*
X172563Y-6670936D02*
X163039Y-6651888D01*
X163039Y-6651888D02*
X153515Y-6613793D01*
X153515Y-6613793D02*
X153515Y-6566174D01*
X153515Y-6566174D02*
X163039Y-6528079D01*
X163039Y-6528079D02*
X172563Y-6509031D01*
X172563Y-6509031D02*
X182086Y-6499508D01*
X182086Y-6499508D02*
X201134Y-6489984D01*
X353515Y-6670936D02*
X363039Y-6680460D01*
X363039Y-6680460D02*
X353515Y-6689984D01*
X353515Y-6689984D02*
X343991Y-6680460D01*
X343991Y-6680460D02*
X353515Y-6670936D01*
X353515Y-6670936D02*
X353515Y-6689984D01*
X486848Y-6489984D02*
X505896Y-6489984D01*
X505896Y-6489984D02*
X524944Y-6499508D01*
X524944Y-6499508D02*
X534468Y-6509031D01*
X534468Y-6509031D02*
X543991Y-6528079D01*
X543991Y-6528079D02*
X553515Y-6566174D01*
X553515Y-6566174D02*
X553515Y-6613793D01*
X553515Y-6613793D02*
X543991Y-6651888D01*
X543991Y-6651888D02*
X534468Y-6670936D01*
X534468Y-6670936D02*
X524944Y-6680460D01*
X524944Y-6680460D02*
X505896Y-6689984D01*
X505896Y-6689984D02*
X486848Y-6689984D01*
X486848Y-6689984D02*
X467801Y-6680460D01*
X467801Y-6680460D02*
X458277Y-6670936D01*
X458277Y-6670936D02*
X448753Y-6651888D01*
X448753Y-6651888D02*
X439229Y-6613793D01*
X439229Y-6613793D02*
X439229Y-6566174D01*
X439229Y-6566174D02*
X448753Y-6528079D01*
X448753Y-6528079D02*
X458277Y-6509031D01*
X458277Y-6509031D02*
X467801Y-6499508D01*
X467801Y-6499508D02*
X486848Y-6489984D01*
X724944Y-6556650D02*
X724944Y-6689984D01*
X677325Y-6480460D02*
X629706Y-6623317D01*
X629706Y-6623317D02*
X753515Y-6623317D01*
X810658Y-6489984D02*
X943991Y-6489984D01*
X943991Y-6489984D02*
X858277Y-6689984D01*
X1010658Y-6509031D02*
X1020182Y-6499508D01*
X1020182Y-6499508D02*
X1039229Y-6489984D01*
X1039229Y-6489984D02*
X1086849Y-6489984D01*
X1086849Y-6489984D02*
X1105896Y-6499508D01*
X1105896Y-6499508D02*
X1115420Y-6509031D01*
X1115420Y-6509031D02*
X1124944Y-6528079D01*
X1124944Y-6528079D02*
X1124944Y-6547127D01*
X1124944Y-6547127D02*
X1115420Y-6575698D01*
X1115420Y-6575698D02*
X1001134Y-6689984D01*
X1001134Y-6689984D02*
X1124944Y-6689984D01*
X1201134Y-6489984D02*
X1201134Y-6528079D01*
X1277325Y-6489984D02*
X1277325Y-6528079D01*
X1572563Y-6766174D02*
X1563039Y-6756650D01*
X1563039Y-6756650D02*
X1543991Y-6728079D01*
X1543991Y-6728079D02*
X1534468Y-6709031D01*
X1534468Y-6709031D02*
X1524944Y-6680460D01*
X1524944Y-6680460D02*
X1515420Y-6632841D01*
X1515420Y-6632841D02*
X1515420Y-6594746D01*
X1515420Y-6594746D02*
X1524944Y-6547127D01*
X1524944Y-6547127D02*
X1534468Y-6518555D01*
X1534468Y-6518555D02*
X1543991Y-6499508D01*
X1543991Y-6499508D02*
X1563039Y-6470936D01*
X1563039Y-6470936D02*
X1572563Y-6461412D01*
X1734468Y-6489984D02*
X1696372Y-6489984D01*
X1696372Y-6489984D02*
X1677325Y-6499508D01*
X1677325Y-6499508D02*
X1667801Y-6509031D01*
X1667801Y-6509031D02*
X1648753Y-6537603D01*
X1648753Y-6537603D02*
X1639229Y-6575698D01*
X1639229Y-6575698D02*
X1639229Y-6651888D01*
X1639229Y-6651888D02*
X1648753Y-6670936D01*
X1648753Y-6670936D02*
X1658277Y-6680460D01*
X1658277Y-6680460D02*
X1677325Y-6689984D01*
X1677325Y-6689984D02*
X1715420Y-6689984D01*
X1715420Y-6689984D02*
X1734468Y-6680460D01*
X1734468Y-6680460D02*
X1743991Y-6670936D01*
X1743991Y-6670936D02*
X1753515Y-6651888D01*
X1753515Y-6651888D02*
X1753515Y-6604269D01*
X1753515Y-6604269D02*
X1743991Y-6585222D01*
X1743991Y-6585222D02*
X1734468Y-6575698D01*
X1734468Y-6575698D02*
X1715420Y-6566174D01*
X1715420Y-6566174D02*
X1677325Y-6566174D01*
X1677325Y-6566174D02*
X1658277Y-6575698D01*
X1658277Y-6575698D02*
X1648753Y-6585222D01*
X1648753Y-6585222D02*
X1639229Y-6604269D01*
X1991610Y-6689984D02*
X1991610Y-6489984D01*
X2077325Y-6689984D02*
X2077325Y-6585222D01*
X2077325Y-6585222D02*
X2067801Y-6566174D01*
X2067801Y-6566174D02*
X2048753Y-6556650D01*
X2048753Y-6556650D02*
X2020182Y-6556650D01*
X2020182Y-6556650D02*
X2001134Y-6566174D01*
X2001134Y-6566174D02*
X1991610Y-6575698D01*
X2201134Y-6689984D02*
X2182087Y-6680460D01*
X2182087Y-6680460D02*
X2172563Y-6670936D01*
X2172563Y-6670936D02*
X2163039Y-6651888D01*
X2163039Y-6651888D02*
X2163039Y-6594746D01*
X2163039Y-6594746D02*
X2172563Y-6575698D01*
X2172563Y-6575698D02*
X2182087Y-6566174D01*
X2182087Y-6566174D02*
X2201134Y-6556650D01*
X2201134Y-6556650D02*
X2229706Y-6556650D01*
X2229706Y-6556650D02*
X2248753Y-6566174D01*
X2248753Y-6566174D02*
X2258277Y-6575698D01*
X2258277Y-6575698D02*
X2267801Y-6594746D01*
X2267801Y-6594746D02*
X2267801Y-6651888D01*
X2267801Y-6651888D02*
X2258277Y-6670936D01*
X2258277Y-6670936D02*
X2248753Y-6680460D01*
X2248753Y-6680460D02*
X2229706Y-6689984D01*
X2229706Y-6689984D02*
X2201134Y-6689984D01*
X2382087Y-6689984D02*
X2363039Y-6680460D01*
X2363039Y-6680460D02*
X2353515Y-6661412D01*
X2353515Y-6661412D02*
X2353515Y-6489984D01*
X2534468Y-6680460D02*
X2515420Y-6689984D01*
X2515420Y-6689984D02*
X2477325Y-6689984D01*
X2477325Y-6689984D02*
X2458277Y-6680460D01*
X2458277Y-6680460D02*
X2448753Y-6661412D01*
X2448753Y-6661412D02*
X2448753Y-6585222D01*
X2448753Y-6585222D02*
X2458277Y-6566174D01*
X2458277Y-6566174D02*
X2477325Y-6556650D01*
X2477325Y-6556650D02*
X2515420Y-6556650D01*
X2515420Y-6556650D02*
X2534468Y-6566174D01*
X2534468Y-6566174D02*
X2543992Y-6585222D01*
X2543992Y-6585222D02*
X2543992Y-6604269D01*
X2543992Y-6604269D02*
X2448753Y-6623317D01*
X2620182Y-6680460D02*
X2639230Y-6689984D01*
X2639230Y-6689984D02*
X2677325Y-6689984D01*
X2677325Y-6689984D02*
X2696373Y-6680460D01*
X2696373Y-6680460D02*
X2705896Y-6661412D01*
X2705896Y-6661412D02*
X2705896Y-6651888D01*
X2705896Y-6651888D02*
X2696373Y-6632841D01*
X2696373Y-6632841D02*
X2677325Y-6623317D01*
X2677325Y-6623317D02*
X2648753Y-6623317D01*
X2648753Y-6623317D02*
X2629706Y-6613793D01*
X2629706Y-6613793D02*
X2620182Y-6594746D01*
X2620182Y-6594746D02*
X2620182Y-6585222D01*
X2620182Y-6585222D02*
X2629706Y-6566174D01*
X2629706Y-6566174D02*
X2648753Y-6556650D01*
X2648753Y-6556650D02*
X2677325Y-6556650D01*
X2677325Y-6556650D02*
X2696373Y-6566174D01*
X2772563Y-6766174D02*
X2782087Y-6756650D01*
X2782087Y-6756650D02*
X2801134Y-6728079D01*
X2801134Y-6728079D02*
X2810658Y-6709031D01*
X2810658Y-6709031D02*
X2820182Y-6680460D01*
X2820182Y-6680460D02*
X2829706Y-6632841D01*
X2829706Y-6632841D02*
X2829706Y-6594746D01*
X2829706Y-6594746D02*
X2820182Y-6547127D01*
X2820182Y-6547127D02*
X2810658Y-6518555D01*
X2810658Y-6518555D02*
X2801134Y-6499508D01*
X2801134Y-6499508D02*
X2782087Y-6470936D01*
X2782087Y-6470936D02*
X2772563Y-6461412D01*
M02*
