%TF.GenerationSoftware,KiCad,Pcbnew,9.0.3*%
%TF.CreationDate,2025-08-22T23:36:46-04:00*%
%TF.ProjectId,LINBoard-HW,4c494e42-6f61-4726-942d-48572e6b6963,rev?*%
%TF.SameCoordinates,Original*%
%TF.FileFunction,Drillmap*%
%TF.FilePolarity,Positive*%
%FSLAX45Y45*%
G04 Gerber Fmt 4.5, Leading zero omitted, Abs format (unit mm)*
G04 Created by KiCad (PCBNEW 9.0.3) date 2025-08-22 23:36:46*
%MOMM*%
%LPD*%
G01*
G04 APERTURE LIST*
%ADD10C,0.050000*%
%ADD11C,0.200000*%
%ADD12C,0.100000*%
%ADD13C,0.343000*%
G04 APERTURE END LIST*
D10*
X-2000000Y700000D02*
X2600000Y700000D01*
X2600000Y-4900000D01*
X-2000000Y-4900000D01*
X-2000000Y700000D01*
D11*
D12*
X1005370Y-3636470D02*
X1104430Y-3735530D01*
X1104430Y-3636470D02*
X1005370Y-3735530D01*
X1106970Y-4144470D02*
X1206030Y-4243530D01*
X1206030Y-4144470D02*
X1106970Y-4243530D01*
X1208570Y-3636470D02*
X1307630Y-3735530D01*
X1307630Y-3636470D02*
X1208570Y-3735530D01*
D13*
X-939500Y-1235000D02*
G75*
G02*
X-1282500Y-1235000I-171500J0D01*
G01*
X-1282500Y-1235000D02*
G75*
G02*
X-939500Y-1235000I171500J0D01*
G01*
X171500Y0D02*
G75*
G02*
X-171500Y0I-171500J0D01*
G01*
X-171500Y0D02*
G75*
G02*
X171500Y0I171500J0D01*
G01*
X1282500Y-1235000D02*
G75*
G02*
X939500Y-1235000I-171500J0D01*
G01*
X939500Y-1235000D02*
G75*
G02*
X1282500Y-1235000I171500J0D01*
G01*
D11*
X-1741723Y-5213984D02*
X-1741723Y-5013984D01*
X-1741723Y-5013984D02*
X-1694104Y-5013984D01*
X-1694104Y-5013984D02*
X-1665533Y-5023508D01*
X-1665533Y-5023508D02*
X-1646485Y-5042555D01*
X-1646485Y-5042555D02*
X-1636961Y-5061603D01*
X-1636961Y-5061603D02*
X-1627437Y-5099698D01*
X-1627437Y-5099698D02*
X-1627437Y-5128270D01*
X-1627437Y-5128270D02*
X-1636961Y-5166365D01*
X-1636961Y-5166365D02*
X-1646485Y-5185412D01*
X-1646485Y-5185412D02*
X-1665533Y-5204460D01*
X-1665533Y-5204460D02*
X-1694104Y-5213984D01*
X-1694104Y-5213984D02*
X-1741723Y-5213984D01*
X-1541723Y-5213984D02*
X-1541723Y-5080650D01*
X-1541723Y-5118746D02*
X-1532199Y-5099698D01*
X-1532199Y-5099698D02*
X-1522675Y-5090174D01*
X-1522675Y-5090174D02*
X-1503628Y-5080650D01*
X-1503628Y-5080650D02*
X-1484580Y-5080650D01*
X-1417914Y-5213984D02*
X-1417914Y-5080650D01*
X-1417914Y-5013984D02*
X-1427437Y-5023508D01*
X-1427437Y-5023508D02*
X-1417914Y-5033031D01*
X-1417914Y-5033031D02*
X-1408390Y-5023508D01*
X-1408390Y-5023508D02*
X-1417914Y-5013984D01*
X-1417914Y-5013984D02*
X-1417914Y-5033031D01*
X-1294104Y-5213984D02*
X-1313152Y-5204460D01*
X-1313152Y-5204460D02*
X-1322676Y-5185412D01*
X-1322676Y-5185412D02*
X-1322676Y-5013984D01*
X-1189342Y-5213984D02*
X-1208390Y-5204460D01*
X-1208390Y-5204460D02*
X-1217914Y-5185412D01*
X-1217914Y-5185412D02*
X-1217914Y-5013984D01*
X-960771Y-5213984D02*
X-960771Y-5013984D01*
X-960771Y-5013984D02*
X-894104Y-5156841D01*
X-894104Y-5156841D02*
X-827437Y-5013984D01*
X-827437Y-5013984D02*
X-827437Y-5213984D01*
X-646485Y-5213984D02*
X-646485Y-5109222D01*
X-646485Y-5109222D02*
X-656009Y-5090174D01*
X-656009Y-5090174D02*
X-675056Y-5080650D01*
X-675056Y-5080650D02*
X-713152Y-5080650D01*
X-713152Y-5080650D02*
X-732199Y-5090174D01*
X-646485Y-5204460D02*
X-665533Y-5213984D01*
X-665533Y-5213984D02*
X-713152Y-5213984D01*
X-713152Y-5213984D02*
X-732199Y-5204460D01*
X-732199Y-5204460D02*
X-741723Y-5185412D01*
X-741723Y-5185412D02*
X-741723Y-5166365D01*
X-741723Y-5166365D02*
X-732199Y-5147317D01*
X-732199Y-5147317D02*
X-713152Y-5137793D01*
X-713152Y-5137793D02*
X-665533Y-5137793D01*
X-665533Y-5137793D02*
X-646485Y-5128270D01*
X-551247Y-5080650D02*
X-551247Y-5280650D01*
X-551247Y-5090174D02*
X-532199Y-5080650D01*
X-532199Y-5080650D02*
X-494104Y-5080650D01*
X-494104Y-5080650D02*
X-475056Y-5090174D01*
X-475056Y-5090174D02*
X-465533Y-5099698D01*
X-465533Y-5099698D02*
X-456009Y-5118746D01*
X-456009Y-5118746D02*
X-456009Y-5175889D01*
X-456009Y-5175889D02*
X-465533Y-5194936D01*
X-465533Y-5194936D02*
X-475056Y-5204460D01*
X-475056Y-5204460D02*
X-494104Y-5213984D01*
X-494104Y-5213984D02*
X-532199Y-5213984D01*
X-532199Y-5213984D02*
X-551247Y-5204460D01*
X-370294Y-5194936D02*
X-360771Y-5204460D01*
X-360771Y-5204460D02*
X-370294Y-5213984D01*
X-370294Y-5213984D02*
X-379818Y-5204460D01*
X-379818Y-5204460D02*
X-370294Y-5194936D01*
X-370294Y-5194936D02*
X-370294Y-5213984D01*
X-370294Y-5090174D02*
X-360771Y-5099698D01*
X-360771Y-5099698D02*
X-370294Y-5109222D01*
X-370294Y-5109222D02*
X-379818Y-5099698D01*
X-379818Y-5099698D02*
X-370294Y-5090174D01*
X-370294Y-5090174D02*
X-370294Y-5109222D01*
D12*
X-2101560Y-5492970D02*
X-2002500Y-5592030D01*
X-2002500Y-5492970D02*
X-2101560Y-5592030D01*
D11*
X-1703628Y-5433984D02*
X-1684580Y-5433984D01*
X-1684580Y-5433984D02*
X-1665533Y-5443508D01*
X-1665533Y-5443508D02*
X-1656009Y-5453031D01*
X-1656009Y-5453031D02*
X-1646485Y-5472079D01*
X-1646485Y-5472079D02*
X-1636961Y-5510174D01*
X-1636961Y-5510174D02*
X-1636961Y-5557793D01*
X-1636961Y-5557793D02*
X-1646485Y-5595888D01*
X-1646485Y-5595888D02*
X-1656009Y-5614936D01*
X-1656009Y-5614936D02*
X-1665533Y-5624460D01*
X-1665533Y-5624460D02*
X-1684580Y-5633984D01*
X-1684580Y-5633984D02*
X-1703628Y-5633984D01*
X-1703628Y-5633984D02*
X-1722675Y-5624460D01*
X-1722675Y-5624460D02*
X-1732199Y-5614936D01*
X-1732199Y-5614936D02*
X-1741723Y-5595888D01*
X-1741723Y-5595888D02*
X-1751247Y-5557793D01*
X-1751247Y-5557793D02*
X-1751247Y-5510174D01*
X-1751247Y-5510174D02*
X-1741723Y-5472079D01*
X-1741723Y-5472079D02*
X-1732199Y-5453031D01*
X-1732199Y-5453031D02*
X-1722675Y-5443508D01*
X-1722675Y-5443508D02*
X-1703628Y-5433984D01*
X-1551247Y-5614936D02*
X-1541723Y-5624460D01*
X-1541723Y-5624460D02*
X-1551247Y-5633984D01*
X-1551247Y-5633984D02*
X-1560771Y-5624460D01*
X-1560771Y-5624460D02*
X-1551247Y-5614936D01*
X-1551247Y-5614936D02*
X-1551247Y-5633984D01*
X-1446485Y-5633984D02*
X-1408390Y-5633984D01*
X-1408390Y-5633984D02*
X-1389342Y-5624460D01*
X-1389342Y-5624460D02*
X-1379818Y-5614936D01*
X-1379818Y-5614936D02*
X-1360771Y-5586365D01*
X-1360771Y-5586365D02*
X-1351247Y-5548270D01*
X-1351247Y-5548270D02*
X-1351247Y-5472079D01*
X-1351247Y-5472079D02*
X-1360771Y-5453031D01*
X-1360771Y-5453031D02*
X-1370295Y-5443508D01*
X-1370295Y-5443508D02*
X-1389342Y-5433984D01*
X-1389342Y-5433984D02*
X-1427437Y-5433984D01*
X-1427437Y-5433984D02*
X-1446485Y-5443508D01*
X-1446485Y-5443508D02*
X-1456009Y-5453031D01*
X-1456009Y-5453031D02*
X-1465533Y-5472079D01*
X-1465533Y-5472079D02*
X-1465533Y-5519698D01*
X-1465533Y-5519698D02*
X-1456009Y-5538746D01*
X-1456009Y-5538746D02*
X-1446485Y-5548270D01*
X-1446485Y-5548270D02*
X-1427437Y-5557793D01*
X-1427437Y-5557793D02*
X-1389342Y-5557793D01*
X-1389342Y-5557793D02*
X-1370295Y-5548270D01*
X-1370295Y-5548270D02*
X-1360771Y-5538746D01*
X-1360771Y-5538746D02*
X-1351247Y-5519698D01*
X-1256009Y-5633984D02*
X-1217914Y-5633984D01*
X-1217914Y-5633984D02*
X-1198866Y-5624460D01*
X-1198866Y-5624460D02*
X-1189342Y-5614936D01*
X-1189342Y-5614936D02*
X-1170295Y-5586365D01*
X-1170295Y-5586365D02*
X-1160771Y-5548270D01*
X-1160771Y-5548270D02*
X-1160771Y-5472079D01*
X-1160771Y-5472079D02*
X-1170295Y-5453031D01*
X-1170295Y-5453031D02*
X-1179818Y-5443508D01*
X-1179818Y-5443508D02*
X-1198866Y-5433984D01*
X-1198866Y-5433984D02*
X-1236961Y-5433984D01*
X-1236961Y-5433984D02*
X-1256009Y-5443508D01*
X-1256009Y-5443508D02*
X-1265533Y-5453031D01*
X-1265533Y-5453031D02*
X-1275056Y-5472079D01*
X-1275056Y-5472079D02*
X-1275056Y-5519698D01*
X-1275056Y-5519698D02*
X-1265533Y-5538746D01*
X-1265533Y-5538746D02*
X-1256009Y-5548270D01*
X-1256009Y-5548270D02*
X-1236961Y-5557793D01*
X-1236961Y-5557793D02*
X-1198866Y-5557793D01*
X-1198866Y-5557793D02*
X-1179818Y-5548270D01*
X-1179818Y-5548270D02*
X-1170295Y-5538746D01*
X-1170295Y-5538746D02*
X-1160771Y-5519698D01*
X-970294Y-5633984D02*
X-1084580Y-5633984D01*
X-1027437Y-5633984D02*
X-1027437Y-5433984D01*
X-1027437Y-5433984D02*
X-1046485Y-5462555D01*
X-1046485Y-5462555D02*
X-1065533Y-5481603D01*
X-1065533Y-5481603D02*
X-1084580Y-5491127D01*
X-884580Y-5633984D02*
X-884580Y-5500650D01*
X-884580Y-5519698D02*
X-875056Y-5510174D01*
X-875056Y-5510174D02*
X-856009Y-5500650D01*
X-856009Y-5500650D02*
X-827437Y-5500650D01*
X-827437Y-5500650D02*
X-808390Y-5510174D01*
X-808390Y-5510174D02*
X-798866Y-5529222D01*
X-798866Y-5529222D02*
X-798866Y-5633984D01*
X-798866Y-5529222D02*
X-789342Y-5510174D01*
X-789342Y-5510174D02*
X-770294Y-5500650D01*
X-770294Y-5500650D02*
X-741723Y-5500650D01*
X-741723Y-5500650D02*
X-722675Y-5510174D01*
X-722675Y-5510174D02*
X-713152Y-5529222D01*
X-713152Y-5529222D02*
X-713152Y-5633984D01*
X-617914Y-5633984D02*
X-617914Y-5500650D01*
X-617914Y-5519698D02*
X-608390Y-5510174D01*
X-608390Y-5510174D02*
X-589342Y-5500650D01*
X-589342Y-5500650D02*
X-560771Y-5500650D01*
X-560771Y-5500650D02*
X-541723Y-5510174D01*
X-541723Y-5510174D02*
X-532199Y-5529222D01*
X-532199Y-5529222D02*
X-532199Y-5633984D01*
X-532199Y-5529222D02*
X-522675Y-5510174D01*
X-522675Y-5510174D02*
X-503628Y-5500650D01*
X-503628Y-5500650D02*
X-475056Y-5500650D01*
X-475056Y-5500650D02*
X-456009Y-5510174D01*
X-456009Y-5510174D02*
X-446485Y-5529222D01*
X-446485Y-5529222D02*
X-446485Y-5633984D01*
X-56009Y-5424460D02*
X-227437Y-5681603D01*
X201134Y-5433984D02*
X220182Y-5433984D01*
X220182Y-5433984D02*
X239229Y-5443508D01*
X239229Y-5443508D02*
X248753Y-5453031D01*
X248753Y-5453031D02*
X258277Y-5472079D01*
X258277Y-5472079D02*
X267801Y-5510174D01*
X267801Y-5510174D02*
X267801Y-5557793D01*
X267801Y-5557793D02*
X258277Y-5595888D01*
X258277Y-5595888D02*
X248753Y-5614936D01*
X248753Y-5614936D02*
X239229Y-5624460D01*
X239229Y-5624460D02*
X220182Y-5633984D01*
X220182Y-5633984D02*
X201134Y-5633984D01*
X201134Y-5633984D02*
X182086Y-5624460D01*
X182086Y-5624460D02*
X172563Y-5614936D01*
X172563Y-5614936D02*
X163039Y-5595888D01*
X163039Y-5595888D02*
X153515Y-5557793D01*
X153515Y-5557793D02*
X153515Y-5510174D01*
X153515Y-5510174D02*
X163039Y-5472079D01*
X163039Y-5472079D02*
X172563Y-5453031D01*
X172563Y-5453031D02*
X182086Y-5443508D01*
X182086Y-5443508D02*
X201134Y-5433984D01*
X353515Y-5614936D02*
X363039Y-5624460D01*
X363039Y-5624460D02*
X353515Y-5633984D01*
X353515Y-5633984D02*
X343991Y-5624460D01*
X343991Y-5624460D02*
X353515Y-5614936D01*
X353515Y-5614936D02*
X353515Y-5633984D01*
X486848Y-5433984D02*
X505896Y-5433984D01*
X505896Y-5433984D02*
X524944Y-5443508D01*
X524944Y-5443508D02*
X534468Y-5453031D01*
X534468Y-5453031D02*
X543991Y-5472079D01*
X543991Y-5472079D02*
X553515Y-5510174D01*
X553515Y-5510174D02*
X553515Y-5557793D01*
X553515Y-5557793D02*
X543991Y-5595888D01*
X543991Y-5595888D02*
X534468Y-5614936D01*
X534468Y-5614936D02*
X524944Y-5624460D01*
X524944Y-5624460D02*
X505896Y-5633984D01*
X505896Y-5633984D02*
X486848Y-5633984D01*
X486848Y-5633984D02*
X467801Y-5624460D01*
X467801Y-5624460D02*
X458277Y-5614936D01*
X458277Y-5614936D02*
X448753Y-5595888D01*
X448753Y-5595888D02*
X439229Y-5557793D01*
X439229Y-5557793D02*
X439229Y-5510174D01*
X439229Y-5510174D02*
X448753Y-5472079D01*
X448753Y-5472079D02*
X458277Y-5453031D01*
X458277Y-5453031D02*
X467801Y-5443508D01*
X467801Y-5443508D02*
X486848Y-5433984D01*
X620182Y-5433984D02*
X743991Y-5433984D01*
X743991Y-5433984D02*
X677325Y-5510174D01*
X677325Y-5510174D02*
X705896Y-5510174D01*
X705896Y-5510174D02*
X724944Y-5519698D01*
X724944Y-5519698D02*
X734467Y-5529222D01*
X734467Y-5529222D02*
X743991Y-5548270D01*
X743991Y-5548270D02*
X743991Y-5595888D01*
X743991Y-5595888D02*
X734467Y-5614936D01*
X734467Y-5614936D02*
X724944Y-5624460D01*
X724944Y-5624460D02*
X705896Y-5633984D01*
X705896Y-5633984D02*
X648753Y-5633984D01*
X648753Y-5633984D02*
X629706Y-5624460D01*
X629706Y-5624460D02*
X620182Y-5614936D01*
X839229Y-5633984D02*
X877325Y-5633984D01*
X877325Y-5633984D02*
X896372Y-5624460D01*
X896372Y-5624460D02*
X905896Y-5614936D01*
X905896Y-5614936D02*
X924944Y-5586365D01*
X924944Y-5586365D02*
X934467Y-5548270D01*
X934467Y-5548270D02*
X934467Y-5472079D01*
X934467Y-5472079D02*
X924944Y-5453031D01*
X924944Y-5453031D02*
X915420Y-5443508D01*
X915420Y-5443508D02*
X896372Y-5433984D01*
X896372Y-5433984D02*
X858277Y-5433984D01*
X858277Y-5433984D02*
X839229Y-5443508D01*
X839229Y-5443508D02*
X829706Y-5453031D01*
X829706Y-5453031D02*
X820182Y-5472079D01*
X820182Y-5472079D02*
X820182Y-5519698D01*
X820182Y-5519698D02*
X829706Y-5538746D01*
X829706Y-5538746D02*
X839229Y-5548270D01*
X839229Y-5548270D02*
X858277Y-5557793D01*
X858277Y-5557793D02*
X896372Y-5557793D01*
X896372Y-5557793D02*
X915420Y-5548270D01*
X915420Y-5548270D02*
X924944Y-5538746D01*
X924944Y-5538746D02*
X934467Y-5519698D01*
X1058277Y-5433984D02*
X1077325Y-5433984D01*
X1077325Y-5433984D02*
X1096372Y-5443508D01*
X1096372Y-5443508D02*
X1105896Y-5453031D01*
X1105896Y-5453031D02*
X1115420Y-5472079D01*
X1115420Y-5472079D02*
X1124944Y-5510174D01*
X1124944Y-5510174D02*
X1124944Y-5557793D01*
X1124944Y-5557793D02*
X1115420Y-5595888D01*
X1115420Y-5595888D02*
X1105896Y-5614936D01*
X1105896Y-5614936D02*
X1096372Y-5624460D01*
X1096372Y-5624460D02*
X1077325Y-5633984D01*
X1077325Y-5633984D02*
X1058277Y-5633984D01*
X1058277Y-5633984D02*
X1039229Y-5624460D01*
X1039229Y-5624460D02*
X1029706Y-5614936D01*
X1029706Y-5614936D02*
X1020182Y-5595888D01*
X1020182Y-5595888D02*
X1010658Y-5557793D01*
X1010658Y-5557793D02*
X1010658Y-5510174D01*
X1010658Y-5510174D02*
X1020182Y-5472079D01*
X1020182Y-5472079D02*
X1029706Y-5453031D01*
X1029706Y-5453031D02*
X1039229Y-5443508D01*
X1039229Y-5443508D02*
X1058277Y-5433984D01*
X1201134Y-5433984D02*
X1201134Y-5472079D01*
X1277325Y-5433984D02*
X1277325Y-5472079D01*
X1572563Y-5710174D02*
X1563039Y-5700650D01*
X1563039Y-5700650D02*
X1543991Y-5672079D01*
X1543991Y-5672079D02*
X1534468Y-5653031D01*
X1534468Y-5653031D02*
X1524944Y-5624460D01*
X1524944Y-5624460D02*
X1515420Y-5576841D01*
X1515420Y-5576841D02*
X1515420Y-5538746D01*
X1515420Y-5538746D02*
X1524944Y-5491127D01*
X1524944Y-5491127D02*
X1534468Y-5462555D01*
X1534468Y-5462555D02*
X1543991Y-5443508D01*
X1543991Y-5443508D02*
X1563039Y-5414936D01*
X1563039Y-5414936D02*
X1572563Y-5405412D01*
X1629706Y-5433984D02*
X1753515Y-5433984D01*
X1753515Y-5433984D02*
X1686848Y-5510174D01*
X1686848Y-5510174D02*
X1715420Y-5510174D01*
X1715420Y-5510174D02*
X1734468Y-5519698D01*
X1734468Y-5519698D02*
X1743991Y-5529222D01*
X1743991Y-5529222D02*
X1753515Y-5548270D01*
X1753515Y-5548270D02*
X1753515Y-5595888D01*
X1753515Y-5595888D02*
X1743991Y-5614936D01*
X1743991Y-5614936D02*
X1734468Y-5624460D01*
X1734468Y-5624460D02*
X1715420Y-5633984D01*
X1715420Y-5633984D02*
X1658277Y-5633984D01*
X1658277Y-5633984D02*
X1639229Y-5624460D01*
X1639229Y-5624460D02*
X1629706Y-5614936D01*
X1991610Y-5633984D02*
X1991610Y-5433984D01*
X2077325Y-5633984D02*
X2077325Y-5529222D01*
X2077325Y-5529222D02*
X2067801Y-5510174D01*
X2067801Y-5510174D02*
X2048753Y-5500650D01*
X2048753Y-5500650D02*
X2020182Y-5500650D01*
X2020182Y-5500650D02*
X2001134Y-5510174D01*
X2001134Y-5510174D02*
X1991610Y-5519698D01*
X2201134Y-5633984D02*
X2182087Y-5624460D01*
X2182087Y-5624460D02*
X2172563Y-5614936D01*
X2172563Y-5614936D02*
X2163039Y-5595888D01*
X2163039Y-5595888D02*
X2163039Y-5538746D01*
X2163039Y-5538746D02*
X2172563Y-5519698D01*
X2172563Y-5519698D02*
X2182087Y-5510174D01*
X2182087Y-5510174D02*
X2201134Y-5500650D01*
X2201134Y-5500650D02*
X2229706Y-5500650D01*
X2229706Y-5500650D02*
X2248753Y-5510174D01*
X2248753Y-5510174D02*
X2258277Y-5519698D01*
X2258277Y-5519698D02*
X2267801Y-5538746D01*
X2267801Y-5538746D02*
X2267801Y-5595888D01*
X2267801Y-5595888D02*
X2258277Y-5614936D01*
X2258277Y-5614936D02*
X2248753Y-5624460D01*
X2248753Y-5624460D02*
X2229706Y-5633984D01*
X2229706Y-5633984D02*
X2201134Y-5633984D01*
X2382087Y-5633984D02*
X2363039Y-5624460D01*
X2363039Y-5624460D02*
X2353515Y-5605412D01*
X2353515Y-5605412D02*
X2353515Y-5433984D01*
X2534468Y-5624460D02*
X2515420Y-5633984D01*
X2515420Y-5633984D02*
X2477325Y-5633984D01*
X2477325Y-5633984D02*
X2458277Y-5624460D01*
X2458277Y-5624460D02*
X2448753Y-5605412D01*
X2448753Y-5605412D02*
X2448753Y-5529222D01*
X2448753Y-5529222D02*
X2458277Y-5510174D01*
X2458277Y-5510174D02*
X2477325Y-5500650D01*
X2477325Y-5500650D02*
X2515420Y-5500650D01*
X2515420Y-5500650D02*
X2534468Y-5510174D01*
X2534468Y-5510174D02*
X2543992Y-5529222D01*
X2543992Y-5529222D02*
X2543992Y-5548270D01*
X2543992Y-5548270D02*
X2448753Y-5567317D01*
X2620182Y-5624460D02*
X2639230Y-5633984D01*
X2639230Y-5633984D02*
X2677325Y-5633984D01*
X2677325Y-5633984D02*
X2696373Y-5624460D01*
X2696373Y-5624460D02*
X2705896Y-5605412D01*
X2705896Y-5605412D02*
X2705896Y-5595888D01*
X2705896Y-5595888D02*
X2696373Y-5576841D01*
X2696373Y-5576841D02*
X2677325Y-5567317D01*
X2677325Y-5567317D02*
X2648753Y-5567317D01*
X2648753Y-5567317D02*
X2629706Y-5557793D01*
X2629706Y-5557793D02*
X2620182Y-5538746D01*
X2620182Y-5538746D02*
X2620182Y-5529222D01*
X2620182Y-5529222D02*
X2629706Y-5510174D01*
X2629706Y-5510174D02*
X2648753Y-5500650D01*
X2648753Y-5500650D02*
X2677325Y-5500650D01*
X2677325Y-5500650D02*
X2696373Y-5510174D01*
X2772563Y-5710174D02*
X2782087Y-5700650D01*
X2782087Y-5700650D02*
X2801134Y-5672079D01*
X2801134Y-5672079D02*
X2810658Y-5653031D01*
X2810658Y-5653031D02*
X2820182Y-5624460D01*
X2820182Y-5624460D02*
X2829706Y-5576841D01*
X2829706Y-5576841D02*
X2829706Y-5538746D01*
X2829706Y-5538746D02*
X2820182Y-5491127D01*
X2820182Y-5491127D02*
X2810658Y-5462555D01*
X2810658Y-5462555D02*
X2801134Y-5443508D01*
X2801134Y-5443508D02*
X2782087Y-5414936D01*
X2782087Y-5414936D02*
X2772563Y-5405412D01*
X3134468Y-5710174D02*
X3124944Y-5700650D01*
X3124944Y-5700650D02*
X3105896Y-5672079D01*
X3105896Y-5672079D02*
X3096372Y-5653031D01*
X3096372Y-5653031D02*
X3086849Y-5624460D01*
X3086849Y-5624460D02*
X3077325Y-5576841D01*
X3077325Y-5576841D02*
X3077325Y-5538746D01*
X3077325Y-5538746D02*
X3086849Y-5491127D01*
X3086849Y-5491127D02*
X3096372Y-5462555D01*
X3096372Y-5462555D02*
X3105896Y-5443508D01*
X3105896Y-5443508D02*
X3124944Y-5414936D01*
X3124944Y-5414936D02*
X3134468Y-5405412D01*
X3210658Y-5500650D02*
X3210658Y-5633984D01*
X3210658Y-5519698D02*
X3220182Y-5510174D01*
X3220182Y-5510174D02*
X3239230Y-5500650D01*
X3239230Y-5500650D02*
X3267801Y-5500650D01*
X3267801Y-5500650D02*
X3286849Y-5510174D01*
X3286849Y-5510174D02*
X3296372Y-5529222D01*
X3296372Y-5529222D02*
X3296372Y-5633984D01*
X3420182Y-5633984D02*
X3401134Y-5624460D01*
X3401134Y-5624460D02*
X3391611Y-5614936D01*
X3391611Y-5614936D02*
X3382087Y-5595888D01*
X3382087Y-5595888D02*
X3382087Y-5538746D01*
X3382087Y-5538746D02*
X3391611Y-5519698D01*
X3391611Y-5519698D02*
X3401134Y-5510174D01*
X3401134Y-5510174D02*
X3420182Y-5500650D01*
X3420182Y-5500650D02*
X3448753Y-5500650D01*
X3448753Y-5500650D02*
X3467801Y-5510174D01*
X3467801Y-5510174D02*
X3477325Y-5519698D01*
X3477325Y-5519698D02*
X3486849Y-5538746D01*
X3486849Y-5538746D02*
X3486849Y-5595888D01*
X3486849Y-5595888D02*
X3477325Y-5614936D01*
X3477325Y-5614936D02*
X3467801Y-5624460D01*
X3467801Y-5624460D02*
X3448753Y-5633984D01*
X3448753Y-5633984D02*
X3420182Y-5633984D01*
X3543992Y-5500650D02*
X3620182Y-5500650D01*
X3572563Y-5433984D02*
X3572563Y-5605412D01*
X3572563Y-5605412D02*
X3582087Y-5624460D01*
X3582087Y-5624460D02*
X3601134Y-5633984D01*
X3601134Y-5633984D02*
X3620182Y-5633984D01*
X3839230Y-5500650D02*
X3839230Y-5700650D01*
X3839230Y-5510174D02*
X3858277Y-5500650D01*
X3858277Y-5500650D02*
X3896373Y-5500650D01*
X3896373Y-5500650D02*
X3915420Y-5510174D01*
X3915420Y-5510174D02*
X3924944Y-5519698D01*
X3924944Y-5519698D02*
X3934468Y-5538746D01*
X3934468Y-5538746D02*
X3934468Y-5595888D01*
X3934468Y-5595888D02*
X3924944Y-5614936D01*
X3924944Y-5614936D02*
X3915420Y-5624460D01*
X3915420Y-5624460D02*
X3896373Y-5633984D01*
X3896373Y-5633984D02*
X3858277Y-5633984D01*
X3858277Y-5633984D02*
X3839230Y-5624460D01*
X4048753Y-5633984D02*
X4029706Y-5624460D01*
X4029706Y-5624460D02*
X4020182Y-5605412D01*
X4020182Y-5605412D02*
X4020182Y-5433984D01*
X4210658Y-5633984D02*
X4210658Y-5529222D01*
X4210658Y-5529222D02*
X4201135Y-5510174D01*
X4201135Y-5510174D02*
X4182087Y-5500650D01*
X4182087Y-5500650D02*
X4143992Y-5500650D01*
X4143992Y-5500650D02*
X4124944Y-5510174D01*
X4210658Y-5624460D02*
X4191611Y-5633984D01*
X4191611Y-5633984D02*
X4143992Y-5633984D01*
X4143992Y-5633984D02*
X4124944Y-5624460D01*
X4124944Y-5624460D02*
X4115420Y-5605412D01*
X4115420Y-5605412D02*
X4115420Y-5586365D01*
X4115420Y-5586365D02*
X4124944Y-5567317D01*
X4124944Y-5567317D02*
X4143992Y-5557793D01*
X4143992Y-5557793D02*
X4191611Y-5557793D01*
X4191611Y-5557793D02*
X4210658Y-5548270D01*
X4277325Y-5500650D02*
X4353515Y-5500650D01*
X4305896Y-5433984D02*
X4305896Y-5605412D01*
X4305896Y-5605412D02*
X4315420Y-5624460D01*
X4315420Y-5624460D02*
X4334468Y-5633984D01*
X4334468Y-5633984D02*
X4353515Y-5633984D01*
X4496373Y-5624460D02*
X4477325Y-5633984D01*
X4477325Y-5633984D02*
X4439230Y-5633984D01*
X4439230Y-5633984D02*
X4420182Y-5624460D01*
X4420182Y-5624460D02*
X4410658Y-5605412D01*
X4410658Y-5605412D02*
X4410658Y-5529222D01*
X4410658Y-5529222D02*
X4420182Y-5510174D01*
X4420182Y-5510174D02*
X4439230Y-5500650D01*
X4439230Y-5500650D02*
X4477325Y-5500650D01*
X4477325Y-5500650D02*
X4496373Y-5510174D01*
X4496373Y-5510174D02*
X4505896Y-5529222D01*
X4505896Y-5529222D02*
X4505896Y-5548270D01*
X4505896Y-5548270D02*
X4410658Y-5567317D01*
X4677325Y-5633984D02*
X4677325Y-5433984D01*
X4677325Y-5624460D02*
X4658277Y-5633984D01*
X4658277Y-5633984D02*
X4620182Y-5633984D01*
X4620182Y-5633984D02*
X4601135Y-5624460D01*
X4601135Y-5624460D02*
X4591611Y-5614936D01*
X4591611Y-5614936D02*
X4582087Y-5595888D01*
X4582087Y-5595888D02*
X4582087Y-5538746D01*
X4582087Y-5538746D02*
X4591611Y-5519698D01*
X4591611Y-5519698D02*
X4601135Y-5510174D01*
X4601135Y-5510174D02*
X4620182Y-5500650D01*
X4620182Y-5500650D02*
X4658277Y-5500650D01*
X4658277Y-5500650D02*
X4677325Y-5510174D01*
X4753516Y-5710174D02*
X4763039Y-5700650D01*
X4763039Y-5700650D02*
X4782087Y-5672079D01*
X4782087Y-5672079D02*
X4791611Y-5653031D01*
X4791611Y-5653031D02*
X4801135Y-5624460D01*
X4801135Y-5624460D02*
X4810658Y-5576841D01*
X4810658Y-5576841D02*
X4810658Y-5538746D01*
X4810658Y-5538746D02*
X4801135Y-5491127D01*
X4801135Y-5491127D02*
X4791611Y-5462555D01*
X4791611Y-5462555D02*
X4782087Y-5443508D01*
X4782087Y-5443508D02*
X4763039Y-5414936D01*
X4763039Y-5414936D02*
X4753516Y-5405412D01*
X-2002500Y-5806500D02*
G75*
G02*
X-2202500Y-5806500I-100000J0D01*
G01*
X-2202500Y-5806500D02*
G75*
G02*
X-2002500Y-5806500I100000J0D01*
G01*
X-1760771Y-5697984D02*
X-1636961Y-5697984D01*
X-1636961Y-5697984D02*
X-1703628Y-5774174D01*
X-1703628Y-5774174D02*
X-1675056Y-5774174D01*
X-1675056Y-5774174D02*
X-1656009Y-5783698D01*
X-1656009Y-5783698D02*
X-1646485Y-5793222D01*
X-1646485Y-5793222D02*
X-1636961Y-5812269D01*
X-1636961Y-5812269D02*
X-1636961Y-5859888D01*
X-1636961Y-5859888D02*
X-1646485Y-5878936D01*
X-1646485Y-5878936D02*
X-1656009Y-5888460D01*
X-1656009Y-5888460D02*
X-1675056Y-5897984D01*
X-1675056Y-5897984D02*
X-1732199Y-5897984D01*
X-1732199Y-5897984D02*
X-1751247Y-5888460D01*
X-1751247Y-5888460D02*
X-1760771Y-5878936D01*
X-1551247Y-5878936D02*
X-1541723Y-5888460D01*
X-1541723Y-5888460D02*
X-1551247Y-5897984D01*
X-1551247Y-5897984D02*
X-1560771Y-5888460D01*
X-1560771Y-5888460D02*
X-1551247Y-5878936D01*
X-1551247Y-5878936D02*
X-1551247Y-5897984D01*
X-1370295Y-5764650D02*
X-1370295Y-5897984D01*
X-1417914Y-5688460D02*
X-1465533Y-5831317D01*
X-1465533Y-5831317D02*
X-1341723Y-5831317D01*
X-1284580Y-5697984D02*
X-1160771Y-5697984D01*
X-1160771Y-5697984D02*
X-1227437Y-5774174D01*
X-1227437Y-5774174D02*
X-1198866Y-5774174D01*
X-1198866Y-5774174D02*
X-1179818Y-5783698D01*
X-1179818Y-5783698D02*
X-1170295Y-5793222D01*
X-1170295Y-5793222D02*
X-1160771Y-5812269D01*
X-1160771Y-5812269D02*
X-1160771Y-5859888D01*
X-1160771Y-5859888D02*
X-1170295Y-5878936D01*
X-1170295Y-5878936D02*
X-1179818Y-5888460D01*
X-1179818Y-5888460D02*
X-1198866Y-5897984D01*
X-1198866Y-5897984D02*
X-1256009Y-5897984D01*
X-1256009Y-5897984D02*
X-1275056Y-5888460D01*
X-1275056Y-5888460D02*
X-1284580Y-5878936D01*
X-1036961Y-5697984D02*
X-1017913Y-5697984D01*
X-1017913Y-5697984D02*
X-998866Y-5707508D01*
X-998866Y-5707508D02*
X-989342Y-5717031D01*
X-989342Y-5717031D02*
X-979818Y-5736079D01*
X-979818Y-5736079D02*
X-970294Y-5774174D01*
X-970294Y-5774174D02*
X-970294Y-5821793D01*
X-970294Y-5821793D02*
X-979818Y-5859888D01*
X-979818Y-5859888D02*
X-989342Y-5878936D01*
X-989342Y-5878936D02*
X-998866Y-5888460D01*
X-998866Y-5888460D02*
X-1017913Y-5897984D01*
X-1017913Y-5897984D02*
X-1036961Y-5897984D01*
X-1036961Y-5897984D02*
X-1056009Y-5888460D01*
X-1056009Y-5888460D02*
X-1065533Y-5878936D01*
X-1065533Y-5878936D02*
X-1075056Y-5859888D01*
X-1075056Y-5859888D02*
X-1084580Y-5821793D01*
X-1084580Y-5821793D02*
X-1084580Y-5774174D01*
X-1084580Y-5774174D02*
X-1075056Y-5736079D01*
X-1075056Y-5736079D02*
X-1065533Y-5717031D01*
X-1065533Y-5717031D02*
X-1056009Y-5707508D01*
X-1056009Y-5707508D02*
X-1036961Y-5697984D01*
X-884580Y-5897984D02*
X-884580Y-5764650D01*
X-884580Y-5783698D02*
X-875056Y-5774174D01*
X-875056Y-5774174D02*
X-856009Y-5764650D01*
X-856009Y-5764650D02*
X-827437Y-5764650D01*
X-827437Y-5764650D02*
X-808390Y-5774174D01*
X-808390Y-5774174D02*
X-798866Y-5793222D01*
X-798866Y-5793222D02*
X-798866Y-5897984D01*
X-798866Y-5793222D02*
X-789342Y-5774174D01*
X-789342Y-5774174D02*
X-770294Y-5764650D01*
X-770294Y-5764650D02*
X-741723Y-5764650D01*
X-741723Y-5764650D02*
X-722675Y-5774174D01*
X-722675Y-5774174D02*
X-713152Y-5793222D01*
X-713152Y-5793222D02*
X-713152Y-5897984D01*
X-617914Y-5897984D02*
X-617914Y-5764650D01*
X-617914Y-5783698D02*
X-608390Y-5774174D01*
X-608390Y-5774174D02*
X-589342Y-5764650D01*
X-589342Y-5764650D02*
X-560771Y-5764650D01*
X-560771Y-5764650D02*
X-541723Y-5774174D01*
X-541723Y-5774174D02*
X-532199Y-5793222D01*
X-532199Y-5793222D02*
X-532199Y-5897984D01*
X-532199Y-5793222D02*
X-522675Y-5774174D01*
X-522675Y-5774174D02*
X-503628Y-5764650D01*
X-503628Y-5764650D02*
X-475056Y-5764650D01*
X-475056Y-5764650D02*
X-456009Y-5774174D01*
X-456009Y-5774174D02*
X-446485Y-5793222D01*
X-446485Y-5793222D02*
X-446485Y-5897984D01*
X-56009Y-5688460D02*
X-227437Y-5945603D01*
X201134Y-5697984D02*
X220182Y-5697984D01*
X220182Y-5697984D02*
X239229Y-5707508D01*
X239229Y-5707508D02*
X248753Y-5717031D01*
X248753Y-5717031D02*
X258277Y-5736079D01*
X258277Y-5736079D02*
X267801Y-5774174D01*
X267801Y-5774174D02*
X267801Y-5821793D01*
X267801Y-5821793D02*
X258277Y-5859888D01*
X258277Y-5859888D02*
X248753Y-5878936D01*
X248753Y-5878936D02*
X239229Y-5888460D01*
X239229Y-5888460D02*
X220182Y-5897984D01*
X220182Y-5897984D02*
X201134Y-5897984D01*
X201134Y-5897984D02*
X182086Y-5888460D01*
X182086Y-5888460D02*
X172563Y-5878936D01*
X172563Y-5878936D02*
X163039Y-5859888D01*
X163039Y-5859888D02*
X153515Y-5821793D01*
X153515Y-5821793D02*
X153515Y-5774174D01*
X153515Y-5774174D02*
X163039Y-5736079D01*
X163039Y-5736079D02*
X172563Y-5717031D01*
X172563Y-5717031D02*
X182086Y-5707508D01*
X182086Y-5707508D02*
X201134Y-5697984D01*
X353515Y-5878936D02*
X363039Y-5888460D01*
X363039Y-5888460D02*
X353515Y-5897984D01*
X353515Y-5897984D02*
X343991Y-5888460D01*
X343991Y-5888460D02*
X353515Y-5878936D01*
X353515Y-5878936D02*
X353515Y-5897984D01*
X553515Y-5897984D02*
X439229Y-5897984D01*
X496372Y-5897984D02*
X496372Y-5697984D01*
X496372Y-5697984D02*
X477325Y-5726555D01*
X477325Y-5726555D02*
X458277Y-5745603D01*
X458277Y-5745603D02*
X439229Y-5755127D01*
X620182Y-5697984D02*
X743991Y-5697984D01*
X743991Y-5697984D02*
X677325Y-5774174D01*
X677325Y-5774174D02*
X705896Y-5774174D01*
X705896Y-5774174D02*
X724944Y-5783698D01*
X724944Y-5783698D02*
X734467Y-5793222D01*
X734467Y-5793222D02*
X743991Y-5812269D01*
X743991Y-5812269D02*
X743991Y-5859888D01*
X743991Y-5859888D02*
X734467Y-5878936D01*
X734467Y-5878936D02*
X724944Y-5888460D01*
X724944Y-5888460D02*
X705896Y-5897984D01*
X705896Y-5897984D02*
X648753Y-5897984D01*
X648753Y-5897984D02*
X629706Y-5888460D01*
X629706Y-5888460D02*
X620182Y-5878936D01*
X924944Y-5697984D02*
X829706Y-5697984D01*
X829706Y-5697984D02*
X820182Y-5793222D01*
X820182Y-5793222D02*
X829706Y-5783698D01*
X829706Y-5783698D02*
X848753Y-5774174D01*
X848753Y-5774174D02*
X896372Y-5774174D01*
X896372Y-5774174D02*
X915420Y-5783698D01*
X915420Y-5783698D02*
X924944Y-5793222D01*
X924944Y-5793222D02*
X934467Y-5812269D01*
X934467Y-5812269D02*
X934467Y-5859888D01*
X934467Y-5859888D02*
X924944Y-5878936D01*
X924944Y-5878936D02*
X915420Y-5888460D01*
X915420Y-5888460D02*
X896372Y-5897984D01*
X896372Y-5897984D02*
X848753Y-5897984D01*
X848753Y-5897984D02*
X829706Y-5888460D01*
X829706Y-5888460D02*
X820182Y-5878936D01*
X1058277Y-5697984D02*
X1077325Y-5697984D01*
X1077325Y-5697984D02*
X1096372Y-5707508D01*
X1096372Y-5707508D02*
X1105896Y-5717031D01*
X1105896Y-5717031D02*
X1115420Y-5736079D01*
X1115420Y-5736079D02*
X1124944Y-5774174D01*
X1124944Y-5774174D02*
X1124944Y-5821793D01*
X1124944Y-5821793D02*
X1115420Y-5859888D01*
X1115420Y-5859888D02*
X1105896Y-5878936D01*
X1105896Y-5878936D02*
X1096372Y-5888460D01*
X1096372Y-5888460D02*
X1077325Y-5897984D01*
X1077325Y-5897984D02*
X1058277Y-5897984D01*
X1058277Y-5897984D02*
X1039229Y-5888460D01*
X1039229Y-5888460D02*
X1029706Y-5878936D01*
X1029706Y-5878936D02*
X1020182Y-5859888D01*
X1020182Y-5859888D02*
X1010658Y-5821793D01*
X1010658Y-5821793D02*
X1010658Y-5774174D01*
X1010658Y-5774174D02*
X1020182Y-5736079D01*
X1020182Y-5736079D02*
X1029706Y-5717031D01*
X1029706Y-5717031D02*
X1039229Y-5707508D01*
X1039229Y-5707508D02*
X1058277Y-5697984D01*
X1201134Y-5697984D02*
X1201134Y-5736079D01*
X1277325Y-5697984D02*
X1277325Y-5736079D01*
X1572563Y-5974174D02*
X1563039Y-5964650D01*
X1563039Y-5964650D02*
X1543991Y-5936079D01*
X1543991Y-5936079D02*
X1534468Y-5917031D01*
X1534468Y-5917031D02*
X1524944Y-5888460D01*
X1524944Y-5888460D02*
X1515420Y-5840841D01*
X1515420Y-5840841D02*
X1515420Y-5802746D01*
X1515420Y-5802746D02*
X1524944Y-5755127D01*
X1524944Y-5755127D02*
X1534468Y-5726555D01*
X1534468Y-5726555D02*
X1543991Y-5707508D01*
X1543991Y-5707508D02*
X1563039Y-5678936D01*
X1563039Y-5678936D02*
X1572563Y-5669412D01*
X1629706Y-5697984D02*
X1753515Y-5697984D01*
X1753515Y-5697984D02*
X1686848Y-5774174D01*
X1686848Y-5774174D02*
X1715420Y-5774174D01*
X1715420Y-5774174D02*
X1734468Y-5783698D01*
X1734468Y-5783698D02*
X1743991Y-5793222D01*
X1743991Y-5793222D02*
X1753515Y-5812269D01*
X1753515Y-5812269D02*
X1753515Y-5859888D01*
X1753515Y-5859888D02*
X1743991Y-5878936D01*
X1743991Y-5878936D02*
X1734468Y-5888460D01*
X1734468Y-5888460D02*
X1715420Y-5897984D01*
X1715420Y-5897984D02*
X1658277Y-5897984D01*
X1658277Y-5897984D02*
X1639229Y-5888460D01*
X1639229Y-5888460D02*
X1629706Y-5878936D01*
X1991610Y-5897984D02*
X1991610Y-5697984D01*
X2077325Y-5897984D02*
X2077325Y-5793222D01*
X2077325Y-5793222D02*
X2067801Y-5774174D01*
X2067801Y-5774174D02*
X2048753Y-5764650D01*
X2048753Y-5764650D02*
X2020182Y-5764650D01*
X2020182Y-5764650D02*
X2001134Y-5774174D01*
X2001134Y-5774174D02*
X1991610Y-5783698D01*
X2201134Y-5897984D02*
X2182087Y-5888460D01*
X2182087Y-5888460D02*
X2172563Y-5878936D01*
X2172563Y-5878936D02*
X2163039Y-5859888D01*
X2163039Y-5859888D02*
X2163039Y-5802746D01*
X2163039Y-5802746D02*
X2172563Y-5783698D01*
X2172563Y-5783698D02*
X2182087Y-5774174D01*
X2182087Y-5774174D02*
X2201134Y-5764650D01*
X2201134Y-5764650D02*
X2229706Y-5764650D01*
X2229706Y-5764650D02*
X2248753Y-5774174D01*
X2248753Y-5774174D02*
X2258277Y-5783698D01*
X2258277Y-5783698D02*
X2267801Y-5802746D01*
X2267801Y-5802746D02*
X2267801Y-5859888D01*
X2267801Y-5859888D02*
X2258277Y-5878936D01*
X2258277Y-5878936D02*
X2248753Y-5888460D01*
X2248753Y-5888460D02*
X2229706Y-5897984D01*
X2229706Y-5897984D02*
X2201134Y-5897984D01*
X2382087Y-5897984D02*
X2363039Y-5888460D01*
X2363039Y-5888460D02*
X2353515Y-5869412D01*
X2353515Y-5869412D02*
X2353515Y-5697984D01*
X2534468Y-5888460D02*
X2515420Y-5897984D01*
X2515420Y-5897984D02*
X2477325Y-5897984D01*
X2477325Y-5897984D02*
X2458277Y-5888460D01*
X2458277Y-5888460D02*
X2448753Y-5869412D01*
X2448753Y-5869412D02*
X2448753Y-5793222D01*
X2448753Y-5793222D02*
X2458277Y-5774174D01*
X2458277Y-5774174D02*
X2477325Y-5764650D01*
X2477325Y-5764650D02*
X2515420Y-5764650D01*
X2515420Y-5764650D02*
X2534468Y-5774174D01*
X2534468Y-5774174D02*
X2543992Y-5793222D01*
X2543992Y-5793222D02*
X2543992Y-5812269D01*
X2543992Y-5812269D02*
X2448753Y-5831317D01*
X2620182Y-5888460D02*
X2639230Y-5897984D01*
X2639230Y-5897984D02*
X2677325Y-5897984D01*
X2677325Y-5897984D02*
X2696373Y-5888460D01*
X2696373Y-5888460D02*
X2705896Y-5869412D01*
X2705896Y-5869412D02*
X2705896Y-5859888D01*
X2705896Y-5859888D02*
X2696373Y-5840841D01*
X2696373Y-5840841D02*
X2677325Y-5831317D01*
X2677325Y-5831317D02*
X2648753Y-5831317D01*
X2648753Y-5831317D02*
X2629706Y-5821793D01*
X2629706Y-5821793D02*
X2620182Y-5802746D01*
X2620182Y-5802746D02*
X2620182Y-5793222D01*
X2620182Y-5793222D02*
X2629706Y-5774174D01*
X2629706Y-5774174D02*
X2648753Y-5764650D01*
X2648753Y-5764650D02*
X2677325Y-5764650D01*
X2677325Y-5764650D02*
X2696373Y-5774174D01*
X2772563Y-5974174D02*
X2782087Y-5964650D01*
X2782087Y-5964650D02*
X2801134Y-5936079D01*
X2801134Y-5936079D02*
X2810658Y-5917031D01*
X2810658Y-5917031D02*
X2820182Y-5888460D01*
X2820182Y-5888460D02*
X2829706Y-5840841D01*
X2829706Y-5840841D02*
X2829706Y-5802746D01*
X2829706Y-5802746D02*
X2820182Y-5755127D01*
X2820182Y-5755127D02*
X2810658Y-5726555D01*
X2810658Y-5726555D02*
X2801134Y-5707508D01*
X2801134Y-5707508D02*
X2782087Y-5678936D01*
X2782087Y-5678936D02*
X2772563Y-5669412D01*
X3134468Y-5974174D02*
X3124944Y-5964650D01*
X3124944Y-5964650D02*
X3105896Y-5936079D01*
X3105896Y-5936079D02*
X3096372Y-5917031D01*
X3096372Y-5917031D02*
X3086849Y-5888460D01*
X3086849Y-5888460D02*
X3077325Y-5840841D01*
X3077325Y-5840841D02*
X3077325Y-5802746D01*
X3077325Y-5802746D02*
X3086849Y-5755127D01*
X3086849Y-5755127D02*
X3096372Y-5726555D01*
X3096372Y-5726555D02*
X3105896Y-5707508D01*
X3105896Y-5707508D02*
X3124944Y-5678936D01*
X3124944Y-5678936D02*
X3134468Y-5669412D01*
X3210658Y-5764650D02*
X3210658Y-5897984D01*
X3210658Y-5783698D02*
X3220182Y-5774174D01*
X3220182Y-5774174D02*
X3239230Y-5764650D01*
X3239230Y-5764650D02*
X3267801Y-5764650D01*
X3267801Y-5764650D02*
X3286849Y-5774174D01*
X3286849Y-5774174D02*
X3296372Y-5793222D01*
X3296372Y-5793222D02*
X3296372Y-5897984D01*
X3420182Y-5897984D02*
X3401134Y-5888460D01*
X3401134Y-5888460D02*
X3391611Y-5878936D01*
X3391611Y-5878936D02*
X3382087Y-5859888D01*
X3382087Y-5859888D02*
X3382087Y-5802746D01*
X3382087Y-5802746D02*
X3391611Y-5783698D01*
X3391611Y-5783698D02*
X3401134Y-5774174D01*
X3401134Y-5774174D02*
X3420182Y-5764650D01*
X3420182Y-5764650D02*
X3448753Y-5764650D01*
X3448753Y-5764650D02*
X3467801Y-5774174D01*
X3467801Y-5774174D02*
X3477325Y-5783698D01*
X3477325Y-5783698D02*
X3486849Y-5802746D01*
X3486849Y-5802746D02*
X3486849Y-5859888D01*
X3486849Y-5859888D02*
X3477325Y-5878936D01*
X3477325Y-5878936D02*
X3467801Y-5888460D01*
X3467801Y-5888460D02*
X3448753Y-5897984D01*
X3448753Y-5897984D02*
X3420182Y-5897984D01*
X3543992Y-5764650D02*
X3620182Y-5764650D01*
X3572563Y-5697984D02*
X3572563Y-5869412D01*
X3572563Y-5869412D02*
X3582087Y-5888460D01*
X3582087Y-5888460D02*
X3601134Y-5897984D01*
X3601134Y-5897984D02*
X3620182Y-5897984D01*
X3839230Y-5764650D02*
X3839230Y-5964650D01*
X3839230Y-5774174D02*
X3858277Y-5764650D01*
X3858277Y-5764650D02*
X3896373Y-5764650D01*
X3896373Y-5764650D02*
X3915420Y-5774174D01*
X3915420Y-5774174D02*
X3924944Y-5783698D01*
X3924944Y-5783698D02*
X3934468Y-5802746D01*
X3934468Y-5802746D02*
X3934468Y-5859888D01*
X3934468Y-5859888D02*
X3924944Y-5878936D01*
X3924944Y-5878936D02*
X3915420Y-5888460D01*
X3915420Y-5888460D02*
X3896373Y-5897984D01*
X3896373Y-5897984D02*
X3858277Y-5897984D01*
X3858277Y-5897984D02*
X3839230Y-5888460D01*
X4048753Y-5897984D02*
X4029706Y-5888460D01*
X4029706Y-5888460D02*
X4020182Y-5869412D01*
X4020182Y-5869412D02*
X4020182Y-5697984D01*
X4210658Y-5897984D02*
X4210658Y-5793222D01*
X4210658Y-5793222D02*
X4201135Y-5774174D01*
X4201135Y-5774174D02*
X4182087Y-5764650D01*
X4182087Y-5764650D02*
X4143992Y-5764650D01*
X4143992Y-5764650D02*
X4124944Y-5774174D01*
X4210658Y-5888460D02*
X4191611Y-5897984D01*
X4191611Y-5897984D02*
X4143992Y-5897984D01*
X4143992Y-5897984D02*
X4124944Y-5888460D01*
X4124944Y-5888460D02*
X4115420Y-5869412D01*
X4115420Y-5869412D02*
X4115420Y-5850365D01*
X4115420Y-5850365D02*
X4124944Y-5831317D01*
X4124944Y-5831317D02*
X4143992Y-5821793D01*
X4143992Y-5821793D02*
X4191611Y-5821793D01*
X4191611Y-5821793D02*
X4210658Y-5812269D01*
X4277325Y-5764650D02*
X4353515Y-5764650D01*
X4305896Y-5697984D02*
X4305896Y-5869412D01*
X4305896Y-5869412D02*
X4315420Y-5888460D01*
X4315420Y-5888460D02*
X4334468Y-5897984D01*
X4334468Y-5897984D02*
X4353515Y-5897984D01*
X4496373Y-5888460D02*
X4477325Y-5897984D01*
X4477325Y-5897984D02*
X4439230Y-5897984D01*
X4439230Y-5897984D02*
X4420182Y-5888460D01*
X4420182Y-5888460D02*
X4410658Y-5869412D01*
X4410658Y-5869412D02*
X4410658Y-5793222D01*
X4410658Y-5793222D02*
X4420182Y-5774174D01*
X4420182Y-5774174D02*
X4439230Y-5764650D01*
X4439230Y-5764650D02*
X4477325Y-5764650D01*
X4477325Y-5764650D02*
X4496373Y-5774174D01*
X4496373Y-5774174D02*
X4505896Y-5793222D01*
X4505896Y-5793222D02*
X4505896Y-5812269D01*
X4505896Y-5812269D02*
X4410658Y-5831317D01*
X4677325Y-5897984D02*
X4677325Y-5697984D01*
X4677325Y-5888460D02*
X4658277Y-5897984D01*
X4658277Y-5897984D02*
X4620182Y-5897984D01*
X4620182Y-5897984D02*
X4601135Y-5888460D01*
X4601135Y-5888460D02*
X4591611Y-5878936D01*
X4591611Y-5878936D02*
X4582087Y-5859888D01*
X4582087Y-5859888D02*
X4582087Y-5802746D01*
X4582087Y-5802746D02*
X4591611Y-5783698D01*
X4591611Y-5783698D02*
X4601135Y-5774174D01*
X4601135Y-5774174D02*
X4620182Y-5764650D01*
X4620182Y-5764650D02*
X4658277Y-5764650D01*
X4658277Y-5764650D02*
X4677325Y-5774174D01*
X4753516Y-5974174D02*
X4763039Y-5964650D01*
X4763039Y-5964650D02*
X4782087Y-5936079D01*
X4782087Y-5936079D02*
X4791611Y-5917031D01*
X4791611Y-5917031D02*
X4801135Y-5888460D01*
X4801135Y-5888460D02*
X4810658Y-5840841D01*
X4810658Y-5840841D02*
X4810658Y-5802746D01*
X4810658Y-5802746D02*
X4801135Y-5755127D01*
X4801135Y-5755127D02*
X4791611Y-5726555D01*
X4791611Y-5726555D02*
X4782087Y-5707508D01*
X4782087Y-5707508D02*
X4763039Y-5678936D01*
X4763039Y-5678936D02*
X4753516Y-5669412D01*
M02*
