M48
; DRILL file {KiCad 9.0.3} date 2025-08-22T23:16:24-0400
; FORMAT={-:-/ absolute / metric / decimal}
; #@! TF.CreationDate,2025-08-22T23:16:24-04:00
; #@! TF.GenerationSoftware,Kicad,Pcbnew,9.0.3
; #@! TF.FileFunction,Plated,1,4,PTH
FMAT,2
METRIC
; #@! TA.AperFunction,Plated,PTH,ViaDrill
T1C0.350
; #@! TA.AperFunction,Plated,PTH,ComponentDrill
T2C0.400
; #@! TA.AperFunction,Plated,PTH,ComponentDrill
T3C0.600
; #@! TA.AperFunction,Plated,PTH,ComponentDrill
T4C1.000
; #@! TA.AperFunction,Plated,PTH,ComponentDrill
T5C1.200
%
G90
G05
T1
X-17.6Y-37.2
X-14.0Y-27.2
X-11.5Y-45.1
X-10.4Y-27.2
X-7.5Y-45.1
X-6.7Y-26.9
X-6.6Y-20.4
X-6.6Y-25.7
X-6.2Y-38.4
X-5.8Y-30.0
X-5.8Y-36.2
X-5.8Y-37.0
X-5.0Y-4.0
X-5.0Y-8.0
X-3.5Y-4.0
X-3.5Y-8.0
X-3.4Y-21.0
X-3.4Y-23.0
X-3.4Y-25.5
X-3.4Y-27.8
X-3.2Y-40.6
X-2.6Y-37.0
X-2.0Y-45.2
X-2.0Y-46.0
X-2.0Y-46.8
X-1.0Y-21.0
X-0.8Y-32.0
X-0.5Y-4.0
X-0.5Y-8.0
X-0.4Y-27.8
X-0.05Y-32.01
X0.4Y-41.506
X1.0Y-4.0
X1.0Y-8.0
X1.4Y-27.8
X1.6Y-41.506
X2.0Y-21.0
X2.2Y-37.6
X2.6Y-32.6
X3.2Y-40.4
X4.55Y-45.6
X4.6Y-21.0
X4.6Y-23.0
X4.6Y-25.5
X4.6Y-27.8
X5.0Y-18.4
X5.15Y-45.6
X5.75Y-45.6
X5.8Y-28.825
X5.8Y-35.2
X7.0Y-37.285
X7.4Y-30.0
X7.8Y-40.2
X8.0Y-18.4
X10.6Y-22.8
X11.0Y-27.0
X12.775Y-42.099
X13.4Y-34.6
X13.4Y-39.4
X13.9Y-29.0
X14.6Y1.8
X14.6Y-26.2
X15.6Y-21.6
X16.1Y-31.0
X16.2Y-40.8
X16.5Y-32.34
X16.6Y-26.2
X16.8Y-4.8
X17.125Y-40.8
X17.8Y-4.8
X20.9Y-20.3
X20.9Y-21.3
X21.3Y-20.8
X21.3Y-21.8
X21.7Y-20.3
X21.7Y-21.3
X23.2Y-20.3
X23.2Y-21.3
X23.6Y-20.8
X23.6Y-21.8
X24.0Y-20.3
X24.0Y-21.3
X25.0Y4.4
X25.0Y2.0
T2
X-1.95Y-42.74
X-1.95Y-44.09
X-1.1Y-42.74
X-1.1Y-44.09
X-0.25Y-42.74
X-0.25Y-44.09
X0.6Y-42.74
X0.6Y-44.09
X1.45Y-42.74
X1.45Y-44.09
X2.3Y-42.74
X2.3Y-44.09
X3.15Y-42.74
X3.15Y-44.09
X4.0Y-42.74
X4.0Y-44.09
T4
X-14.6Y-32.4
X-14.6Y-36.0
X-14.6Y-39.6
X-11.4Y-33.8
X-11.4Y-37.4
X22.6Y-32.05
X22.6Y-35.6
T5
X-4.2Y-6.0
X-4.2Y-12.35
X0.0Y-6.0
X0.0Y-12.35
X4.2Y-6.0
X4.2Y-12.35
T3
G00X-3.3Y-42.97
M15
G01X-3.3Y-44.47
M16
G05
G00X-3.3Y-46.7
M15
G01X-3.3Y-47.5
M16
G05
G00X5.35Y-42.97
M15
G01X5.35Y-44.47
M16
G05
G00X5.35Y-46.7
M15
G01X5.35Y-47.5
M16
G05
M30
